SplineFontDB: 3.2
FontName: BalladeTempo-Regular
FullName: Ballade Tempo
FamilyName: Ballade Tempo
Weight: Regular
Copyright: Copyright 2024 Soya Shigeta (https://shigeta.info)\nCopyright 2011 The Old Standard Project Authors (amkryukov@gmail.com)\nCopyright 2021 The Shippori Mincho Project Authors (https://github.com/fontdasu/ShipporiMincho)
Version: 1.00
ItalicAngle: 0
UnderlinePosition: -100
UnderlineWidth: 50
Ascent: 762
Descent: 238
InvalidEm: 0
LayerCount: 2
Layer: 0 1 "+gMyXYgAA" 1
Layer: 1 1 "+Uk2XYgAA" 0
XUID: [1021 383 -810783533 5667401]
StyleMap: 0x0040
FSType: 0
OS2Version: 4
OS2_WeightWidthSlopeOnly: 0
OS2_UseTypoMetrics: 1
CreationTime: 1472226051
ModificationTime: 1714056143
PfmFamily: 81
TTFWeight: 400
TTFWidth: 5
LineGap: 236
VLineGap: 0
Panose: 0 0 5 0 0 0 0 0 0 0
OS2TypoAscent: 762
OS2TypoAOffset: 0
OS2TypoDescent: -238
OS2TypoDOffset: 0
OS2TypoLinegap: 236
OS2WinAscent: 948
OS2WinAOffset: 0
OS2WinDescent: 282
OS2WinDOffset: 0
HheadAscent: 762
HheadAOffset: 0
HheadDescent: -238
HheadDOffset: 0
OS2SubXSize: 650
OS2SubYSize: 600
OS2SubXOff: 0
OS2SubYOff: 75
OS2SupXSize: 650
OS2SupYSize: 600
OS2SupXOff: 0
OS2SupYOff: 350
OS2StrikeYSize: 50
OS2StrikeYPos: 273
OS2CapHeight: 712
OS2XHeight: 456
OS2Vendor: 'PfEd'
OS2CodePages: 20000197.00000000
OS2UnicodeRanges: 20000207.00000001.00000000.00000000
Lookup: 1 0 0 "'aalt' +MFkweTBmMG51cE9TW1cweDBuMKIwrzC7MLkA lookup 0" { "'aalt' +MFkweTBmMG51cE9TW1cweDBuMKIwrzC7MLkA lookup 0 +MLUw1jDGMPww1jDr"  } ['aalt' ('DFLT' <'dflt' > 'cyrl' <'SRB ' 'dflt' > 'latn' <'CAT ' 'MOL ' 'ROM ' 'dflt' > ) ]
Lookup: 3 0 0 "'aalt' +MFkweTBmMG51cE9TW1cweDBuMKIwrzC7MLkA lookup 1" { "'aalt' +MFkweTBmMG51cE9TW1cweDBuMKIwrzC7MLkA lookup 1 +MLUw1jDGMPww1jDr"  } ['aalt' ('DFLT' <'dflt' > 'cyrl' <'SRB ' 'dflt' > 'latn' <'CAT ' 'MOL ' 'ROM ' 'dflt' > ) ]

StartChar: .notdef
Encoding: 888 -1 0
Width: 500
GlyphClass: 1
Flags: W
LayerCount: 2
Fore
SplineSet
410 762 m 1,0,-1
 410 -238 l 1,1,-1
 93 -238 l 1,2,-1
 93 762 l 1,3,-1
 410 762 l 1,0,-1
333 695 m 1,4,-1
 168 695 l 1,5,-1
 168 662 l 1,6,-1
 233 662 l 1,7,-1
 233 625 l 1,8,-1
 167 625 l 1,9,-1
 167 592 l 1,10,-1
 333 592 l 1,11,-1
 333 625 l 1,12,-1
 267 625 l 1,13,-1
 267 662 l 1,14,-1
 333 662 l 1,15,-1
 333 695 l 1,4,-1
267 566 m 1,16,-1
 167 566 l 1,17,-1
 167 462 l 1,18,-1
 333 462 l 1,19,-1
 333 496 l 1,20,-1
 267 496 l 1,21,-1
 267 566 l 1,16,-1
233 532 m 1,22,-1
 233 496 l 1,23,-1
 200 496 l 1,24,-1
 200 532 l 1,25,-1
 233 532 l 1,22,-1
333 435 m 1,26,-1
 167 435 l 1,27,-1
 167 402 l 1,28,-1
 233 402 l 1,29,-1
 233 365 l 1,30,-1
 167 365 l 1,31,-1
 167 332 l 1,32,-1
 267 332 l 1,33,-1
 267 402 l 1,34,-1
 333 402 l 1,35,-1
 333 435 l 1,26,-1
333 375 m 1,36,-1
 300 375 l 1,37,-1
 300 309 l 1,38,-1
 167 309 l 1,39,-1
 167 275 l 1,40,-1
 333 275 l 1,41,-1
 333 375 l 1,36,-1
333 253 m 1,42,-1
 233 253 l 1,43,-1
 233 197 l 1,44,-1
 267 197 l 1,45,-1
 267 220 l 1,46,-1
 300 220 l 1,47,-1
 300 173 l 1,48,-1
 200 173 l 1,49,-1
 200 253 l 1,50,-1
 167 253 l 1,51,-1
 167 140 l 1,52,-1
 333 140 l 1,53,-1
 333 253 l 1,42,-1
333 80 m 1,54,-1
 167 80 l 1,55,-1
 167 -33 l 1,56,-1
 333 -33 l 1,57,-1
 333 80 l 1,54,-1
300 47 m 1,58,-1
 300 0 l 1,59,-1
 200 0 l 1,60,-1
 200 47 l 1,61,-1
 300 47 l 1,58,-1
333 -56 m 1,62,-1
 167 -56 l 1,63,-1
 167 -89 l 1,64,-1
 237 -89 l 1,65,-1
 167 -136 l 1,66,-1
 167 -169 l 1,67,-1
 333 -169 l 1,68,-1
 333 -136 l 1,69,-1
 231 -136 l 1,70,-1
 301 -89 l 1,71,-1
 333 -89 l 1,72,-1
 333 -56 l 1,62,-1
EndSplineSet
Validated: 1
EndChar

StartChar: A
Encoding: 35 65 4
Width: 764
GlyphClass: 2
Flags: W
AnchorPoint: "Anchor-9" 0 0 basechar 0
AnchorPoint: "Anchor-8" 0 0 basechar 0
AnchorPoint: "Anchor-7" 396 712 basechar 0
AnchorPoint: "Anchor-6" 688 10 basechar 0
AnchorPoint: "Anchor-5" 382 0 basechar 0
LayerCount: 2
Fore
SplineSet
46 32 m 1,0,-1
 83 32 l 2,1,2
 142 32 142 32 169 105 c 2,3,-1
 384 712 l 1,4,-1
 409 712 l 1,5,-1
 626 76 l 2,6,7
 636 51 636 51 650 41.5 c 128,-1,8
 664 32 664 32 686 32 c 2,9,-1
 742 32 l 1,10,-1
 742 0 l 1,11,-1
 432 0 l 1,12,-1
 432 32 l 1,13,-1
 498 32 l 2,14,15
 513 32 513 32 523 39.5 c 128,-1,16
 533 47 533 47 533 57 c 0,17,18
 533 70 533 70 529 79 c 2,19,-1
 482 212 l 1,20,-1
 248 212 l 1,21,-1
 224 145 l 2,22,23
 210 105 210 105 210 87 c 0,24,25
 210 65 210 65 221 48.5 c 128,-1,26
 232 32 232 32 259 32 c 2,27,-1
 320 32 l 1,28,-1
 320 0 l 1,29,-1
 46 0 l 1,30,-1
 46 32 l 1,0,-1
259 244 m 1,31,-1
 471 244 l 1,32,-1
 367 549 l 1,33,-1
 259 244 l 1,31,-1
EndSplineSet
Validated: 1
Substitution2: "+U1h9FH9uY9sA lookup 23 +MLUw1jDGMPww1jDr" ordfeminine
Substitution2: "'aalt' +MFkweTBmMG51cE9TW1cweDBuMKIwrzC7MLkA lookup 0 +MLUw1jDGMPww1jDr" ordfeminine
EndChar

StartChar: Aacute
Encoding: 130 193 5
Width: 764
GlyphClass: 1
Flags: W
LayerCount: 2
Fore
SplineSet
371 773 m 1,0,-1
 463 906 l 2,1,2
 476 924 476 924 487 931 c 128,-1,3
 498 938 498 938 512 938 c 0,4,5
 525 938 525 938 532.5 929.5 c 128,-1,6
 540 921 540 921 540 907 c 0,7,8
 540 884 540 884 512 863 c 2,9,-1
 384 762 l 1,10,-1
 371 773 l 1,0,-1
46 32 m 1,11,-1
 83 32 l 2,12,13
 142 32 142 32 169 105 c 2,14,-1
 384 712 l 1,15,-1
 409 712 l 1,16,-1
 626 76 l 2,17,18
 636 51 636 51 650 41.5 c 128,-1,19
 664 32 664 32 686 32 c 2,20,-1
 742 32 l 1,21,-1
 742 0 l 1,22,-1
 432 0 l 1,23,-1
 432 32 l 1,24,-1
 498 32 l 2,25,26
 513 32 513 32 523 39.5 c 128,-1,27
 533 47 533 47 533 57 c 0,28,29
 533 70 533 70 529 79 c 2,30,-1
 482 212 l 1,31,-1
 248 212 l 1,32,-1
 224 145 l 2,33,34
 210 105 210 105 210 87 c 0,35,36
 210 65 210 65 221 48.5 c 128,-1,37
 232 32 232 32 259 32 c 2,38,-1
 320 32 l 1,39,-1
 320 0 l 1,40,-1
 46 0 l 1,41,-1
 46 32 l 1,11,-1
259 244 m 1,42,-1
 471 244 l 1,43,-1
 367 549 l 1,44,-1
 259 244 l 1,42,-1
EndSplineSet
Validated: 1
EndChar

StartChar: uni1EAE
Encoding: 719 7854 7
Width: 764
GlyphClass: 2
Flags: W
AnchorPoint: "Anchor-9" 0 0 basechar 0
AnchorPoint: "Anchor-8" 0 0 basechar 0
AnchorPoint: "Anchor-7" 468 1091 basechar 0
AnchorPoint: "Anchor-6" 688 10 basechar 0
AnchorPoint: "Anchor-5" 382 0 basechar 0
LayerCount: 2
Fore
SplineSet
383 926 m 1,0,-1
 475 1059 l 2,1,2
 488 1077 488 1077 499 1084 c 128,-1,3
 510 1091 510 1091 524 1091 c 0,4,5
 537 1091 537 1091 544.5 1082.5 c 128,-1,6
 552 1074 552 1074 552 1060 c 0,7,8
 552 1037 552 1037 524 1016 c 2,9,-1
 396 915 l 1,10,-1
 383 926 l 1,0,-1
320.5 805.5 m 128,-1,12
 289 829 289 829 273.5 862 c 128,-1,13
 258 895 258 895 258 922 c 1,14,-1
 280 922 l 1,15,16
 286 882 286 882 313.5 852 c 128,-1,17
 341 822 341 822 396 822 c 256,18,19
 451 822 451 822 478.5 852 c 128,-1,20
 506 882 506 882 512 922 c 1,21,-1
 534 922 l 1,22,23
 534 895 534 895 518.5 862 c 128,-1,24
 503 829 503 829 471.5 805.5 c 128,-1,25
 440 782 440 782 396 782 c 256,26,11
 352 782 352 782 320.5 805.5 c 128,-1,12
46 32 m 1,27,-1
 83 32 l 2,28,29
 142 32 142 32 169 105 c 2,30,-1
 384 712 l 1,31,-1
 409 712 l 1,32,-1
 626 76 l 2,33,34
 636 51 636 51 650 41.5 c 128,-1,35
 664 32 664 32 686 32 c 2,36,-1
 742 32 l 1,37,-1
 742 0 l 1,38,-1
 432 0 l 1,39,-1
 432 32 l 1,40,-1
 498 32 l 2,41,42
 513 32 513 32 523 39.5 c 128,-1,43
 533 47 533 47 533 57 c 0,44,45
 533 70 533 70 529 79 c 2,46,-1
 482 212 l 1,47,-1
 248 212 l 1,48,-1
 224 145 l 2,49,50
 210 105 210 105 210 87 c 0,51,52
 210 65 210 65 221 48.5 c 128,-1,53
 232 32 232 32 259 32 c 2,54,-1
 320 32 l 1,55,-1
 320 0 l 1,56,-1
 46 0 l 1,57,-1
 46 32 l 1,27,-1
259 244 m 1,58,-1
 471 244 l 1,59,-1
 367 549 l 1,60,-1
 259 244 l 1,58,-1
EndSplineSet
Validated: 1
EndChar

StartChar: uni1EB0
Encoding: 721 7856 9
Width: 764
GlyphClass: 2
Flags: W
AnchorPoint: "Anchor-9" 0 0 basechar 0
AnchorPoint: "Anchor-8" 0 0 basechar 0
AnchorPoint: "Anchor-7" 318 1097 basechar 0
AnchorPoint: "Anchor-6" 688 10 basechar 0
AnchorPoint: "Anchor-5" 382 0 basechar 0
LayerCount: 2
Fore
SplineSet
261 1022 m 2,0,1
 233 1043 233 1043 233 1066 c 0,2,3
 233 1080 233 1080 240.5 1088.5 c 128,-1,4
 248 1097 248 1097 261 1097 c 0,5,6
 275 1097 275 1097 286 1090 c 128,-1,7
 297 1083 297 1083 310 1065 c 2,8,-1
 402 932 l 1,9,-1
 389 921 l 1,10,-1
 261 1022 l 2,0,1
320.5 805.5 m 128,-1,12
 289 829 289 829 273.5 862 c 128,-1,13
 258 895 258 895 258 922 c 1,14,-1
 280 922 l 1,15,16
 286 882 286 882 313.5 852 c 128,-1,17
 341 822 341 822 396 822 c 256,18,19
 451 822 451 822 478.5 852 c 128,-1,20
 506 882 506 882 512 922 c 1,21,-1
 534 922 l 1,22,23
 534 895 534 895 518.5 862 c 128,-1,24
 503 829 503 829 471.5 805.5 c 128,-1,25
 440 782 440 782 396 782 c 256,26,11
 352 782 352 782 320.5 805.5 c 128,-1,12
46 32 m 1,27,-1
 83 32 l 2,28,29
 142 32 142 32 169 105 c 2,30,-1
 384 712 l 1,31,-1
 409 712 l 1,32,-1
 626 76 l 2,33,34
 636 51 636 51 650 41.5 c 128,-1,35
 664 32 664 32 686 32 c 2,36,-1
 742 32 l 1,37,-1
 742 0 l 1,38,-1
 432 0 l 1,39,-1
 432 32 l 1,40,-1
 498 32 l 2,41,42
 513 32 513 32 523 39.5 c 128,-1,43
 533 47 533 47 533 57 c 0,44,45
 533 70 533 70 529 79 c 2,46,-1
 482 212 l 1,47,-1
 248 212 l 1,48,-1
 224 145 l 2,49,50
 210 105 210 105 210 87 c 0,51,52
 210 65 210 65 221 48.5 c 128,-1,53
 232 32 232 32 259 32 c 2,54,-1
 320 32 l 1,55,-1
 320 0 l 1,56,-1
 46 0 l 1,57,-1
 46 32 l 1,27,-1
259 244 m 1,58,-1
 471 244 l 1,59,-1
 367 549 l 1,60,-1
 259 244 l 1,58,-1
EndSplineSet
Validated: 1
EndChar

StartChar: Acircumflex
Encoding: 131 194 12
Width: 764
GlyphClass: 1
Flags: W
LayerCount: 2
Fore
SplineSet
238 778 m 1,0,1
 329 830 329 830 376 920 c 1,2,-1
 416 920 l 1,3,4
 463 830 463 830 554 778 c 1,5,-1
 544 762 l 1,6,7
 518 771 518 771 472.5 800.5 c 128,-1,8
 427 830 427 830 396 858 c 1,9,10
 365 830 365 830 319.5 800.5 c 128,-1,11
 274 771 274 771 248 762 c 1,12,-1
 238 778 l 1,0,1
46 32 m 1,13,-1
 83 32 l 2,14,15
 142 32 142 32 169 105 c 2,16,-1
 384 712 l 1,17,-1
 409 712 l 1,18,-1
 626 76 l 2,19,20
 636 51 636 51 650 41.5 c 128,-1,21
 664 32 664 32 686 32 c 2,22,-1
 742 32 l 1,23,-1
 742 0 l 1,24,-1
 432 0 l 1,25,-1
 432 32 l 1,26,-1
 498 32 l 2,27,28
 513 32 513 32 523 39.5 c 128,-1,29
 533 47 533 47 533 57 c 0,30,31
 533 70 533 70 529 79 c 2,32,-1
 482 212 l 1,33,-1
 248 212 l 1,34,-1
 224 145 l 2,35,36
 210 105 210 105 210 87 c 0,37,38
 210 65 210 65 221 48.5 c 128,-1,39
 232 32 232 32 259 32 c 2,40,-1
 320 32 l 1,41,-1
 320 0 l 1,42,-1
 46 0 l 1,43,-1
 46 32 l 1,13,-1
259 244 m 1,44,-1
 471 244 l 1,45,-1
 367 549 l 1,46,-1
 259 244 l 1,44,-1
EndSplineSet
Validated: 1
EndChar

StartChar: uni0200
Encoding: 343 512 18
Width: 764
GlyphClass: 1
Flags: W
LayerCount: 2
Fore
SplineSet
212 863 m 2,0,1
 184 884 184 884 184 907 c 0,2,3
 184 921 184 921 191.5 929.5 c 128,-1,4
 199 938 199 938 212 938 c 0,5,6
 226 938 226 938 237 931 c 128,-1,7
 248 924 248 924 261 906 c 2,8,-1
 353 773 l 1,9,-1
 340 762 l 1,10,-1
 212 863 l 2,0,1
348 863 m 2,11,12
 320 884 320 884 320 907 c 0,13,14
 320 921 320 921 327.5 929.5 c 128,-1,15
 335 938 335 938 348 938 c 0,16,17
 362 938 362 938 373 931 c 128,-1,18
 384 924 384 924 397 906 c 2,19,-1
 489 773 l 1,20,-1
 476 762 l 1,21,-1
 348 863 l 2,11,12
46 32 m 1,22,-1
 83 32 l 2,23,24
 142 32 142 32 169 105 c 2,25,-1
 384 712 l 1,26,-1
 409 712 l 1,27,-1
 626 76 l 2,28,29
 636 51 636 51 650 41.5 c 128,-1,30
 664 32 664 32 686 32 c 2,31,-1
 742 32 l 1,32,-1
 742 0 l 1,33,-1
 432 0 l 1,34,-1
 432 32 l 1,35,-1
 498 32 l 2,36,37
 513 32 513 32 523 39.5 c 128,-1,38
 533 47 533 47 533 57 c 0,39,40
 533 70 533 70 529 79 c 2,41,-1
 482 212 l 1,42,-1
 248 212 l 1,43,-1
 224 145 l 2,44,45
 210 105 210 105 210 87 c 0,46,47
 210 65 210 65 221 48.5 c 128,-1,48
 232 32 232 32 259 32 c 2,49,-1
 320 32 l 1,50,-1
 320 0 l 1,51,-1
 46 0 l 1,52,-1
 46 32 l 1,22,-1
259 244 m 1,53,-1
 471 244 l 1,54,-1
 367 549 l 1,55,-1
 259 244 l 1,53,-1
EndSplineSet
Validated: 1
EndChar

StartChar: Adieresis
Encoding: 133 196 19
Width: 764
GlyphClass: 1
Flags: W
LayerCount: 2
Fore
SplineSet
257 813 m 128,-1,1
 242 828 242 828 242 850 c 0,2,3
 242 873 242 873 257 887.5 c 128,-1,4
 272 902 272 902 294 902 c 0,5,6
 317 902 317 902 331.5 887.5 c 128,-1,7
 346 873 346 873 346 850 c 0,8,9
 346 828 346 828 331.5 813 c 128,-1,10
 317 798 317 798 294 798 c 0,11,0
 272 798 272 798 257 813 c 128,-1,1
461 813 m 128,-1,13
 446 828 446 828 446 850 c 0,14,15
 446 873 446 873 461 887.5 c 128,-1,16
 476 902 476 902 498 902 c 0,17,18
 521 902 521 902 535.5 887.5 c 128,-1,19
 550 873 550 873 550 850 c 0,20,21
 550 828 550 828 535.5 813 c 128,-1,22
 521 798 521 798 498 798 c 0,23,12
 476 798 476 798 461 813 c 128,-1,13
46 32 m 1,24,-1
 83 32 l 2,25,26
 142 32 142 32 169 105 c 2,27,-1
 384 712 l 1,28,-1
 409 712 l 1,29,-1
 626 76 l 2,30,31
 636 51 636 51 650 41.5 c 128,-1,32
 664 32 664 32 686 32 c 2,33,-1
 742 32 l 1,34,-1
 742 0 l 1,35,-1
 432 0 l 1,36,-1
 432 32 l 1,37,-1
 498 32 l 2,38,39
 513 32 513 32 523 39.5 c 128,-1,40
 533 47 533 47 533 57 c 0,41,42
 533 70 533 70 529 79 c 2,43,-1
 482 212 l 1,44,-1
 248 212 l 1,45,-1
 224 145 l 2,46,47
 210 105 210 105 210 87 c 0,48,49
 210 65 210 65 221 48.5 c 128,-1,50
 232 32 232 32 259 32 c 2,51,-1
 320 32 l 1,52,-1
 320 0 l 1,53,-1
 46 0 l 1,54,-1
 46 32 l 1,24,-1
259 244 m 1,55,-1
 471 244 l 1,56,-1
 367 549 l 1,57,-1
 259 244 l 1,55,-1
EndSplineSet
Validated: 1
EndChar

StartChar: Agrave
Encoding: 129 192 21
Width: 764
GlyphClass: 1
Flags: W
LayerCount: 2
Fore
SplineSet
280 863 m 2,0,1
 252 884 252 884 252 907 c 0,2,3
 252 921 252 921 259.5 929.5 c 128,-1,4
 267 938 267 938 280 938 c 0,5,6
 294 938 294 938 305 931 c 128,-1,7
 316 924 316 924 329 906 c 2,8,-1
 421 773 l 1,9,-1
 408 762 l 1,10,-1
 280 863 l 2,0,1
46 32 m 1,11,-1
 83 32 l 2,12,13
 142 32 142 32 169 105 c 2,14,-1
 384 712 l 1,15,-1
 409 712 l 1,16,-1
 626 76 l 2,17,18
 636 51 636 51 650 41.5 c 128,-1,19
 664 32 664 32 686 32 c 2,20,-1
 742 32 l 1,21,-1
 742 0 l 1,22,-1
 432 0 l 1,23,-1
 432 32 l 1,24,-1
 498 32 l 2,25,26
 513 32 513 32 523 39.5 c 128,-1,27
 533 47 533 47 533 57 c 0,28,29
 533 70 533 70 529 79 c 2,30,-1
 482 212 l 1,31,-1
 248 212 l 1,32,-1
 224 145 l 2,33,34
 210 105 210 105 210 87 c 0,35,36
 210 65 210 65 221 48.5 c 128,-1,37
 232 32 232 32 259 32 c 2,38,-1
 320 32 l 1,39,-1
 320 0 l 1,40,-1
 46 0 l 1,41,-1
 46 32 l 1,11,-1
259 244 m 1,42,-1
 471 244 l 1,43,-1
 367 549 l 1,44,-1
 259 244 l 1,42,-1
EndSplineSet
Validated: 1
EndChar

StartChar: uni0202
Encoding: 345 514 23
Width: 764
GlyphClass: 1
Flags: W
LayerCount: 2
Fore
SplineSet
249 770 m 1,0,1
 256 801 256 801 278 836.5 c 128,-1,2
 300 872 300 872 331 896 c 128,-1,3
 362 920 362 920 396 920 c 256,4,5
 430 920 430 920 461 896 c 128,-1,6
 492 872 492 872 514 836.5 c 128,-1,7
 536 801 536 801 543 770 c 1,8,-1
 523 762 l 1,9,10
 502 807 502 807 469 835.5 c 128,-1,11
 436 864 436 864 396 864 c 256,12,13
 356 864 356 864 323 835.5 c 128,-1,14
 290 807 290 807 269 762 c 1,15,-1
 249 770 l 1,0,1
46 32 m 1,16,-1
 83 32 l 2,17,18
 142 32 142 32 169 105 c 2,19,-1
 384 712 l 1,20,-1
 409 712 l 1,21,-1
 626 76 l 2,22,23
 636 51 636 51 650 41.5 c 128,-1,24
 664 32 664 32 686 32 c 2,25,-1
 742 32 l 1,26,-1
 742 0 l 1,27,-1
 432 0 l 1,28,-1
 432 32 l 1,29,-1
 498 32 l 2,30,31
 513 32 513 32 523 39.5 c 128,-1,32
 533 47 533 47 533 57 c 0,33,34
 533 70 533 70 529 79 c 2,35,-1
 482 212 l 1,36,-1
 248 212 l 1,37,-1
 224 145 l 2,38,39
 210 105 210 105 210 87 c 0,40,41
 210 65 210 65 221 48.5 c 128,-1,42
 232 32 232 32 259 32 c 2,43,-1
 320 32 l 1,44,-1
 320 0 l 1,45,-1
 46 0 l 1,46,-1
 46 32 l 1,16,-1
259 244 m 1,47,-1
 471 244 l 1,48,-1
 367 549 l 1,49,-1
 259 244 l 1,47,-1
EndSplineSet
Validated: 1
EndChar

StartChar: Amacron
Encoding: 193 256 24
Width: 764
GlyphClass: 1
Flags: W
LayerCount: 2
Fore
SplineSet
260 822 m 1,0,-1
 260 862 l 1,1,-1
 532 862 l 1,2,-1
 532 822 l 1,3,-1
 260 822 l 1,0,-1
46 32 m 1,4,-1
 83 32 l 2,5,6
 142 32 142 32 169 105 c 2,7,-1
 384 712 l 1,8,-1
 409 712 l 1,9,-1
 626 76 l 2,10,11
 636 51 636 51 650 41.5 c 128,-1,12
 664 32 664 32 686 32 c 2,13,-1
 742 32 l 1,14,-1
 742 0 l 1,15,-1
 432 0 l 1,16,-1
 432 32 l 1,17,-1
 498 32 l 2,18,19
 513 32 513 32 523 39.5 c 128,-1,20
 533 47 533 47 533 57 c 0,21,22
 533 70 533 70 529 79 c 2,23,-1
 482 212 l 1,24,-1
 248 212 l 1,25,-1
 224 145 l 2,26,27
 210 105 210 105 210 87 c 0,28,29
 210 65 210 65 221 48.5 c 128,-1,30
 232 32 232 32 259 32 c 2,31,-1
 320 32 l 1,32,-1
 320 0 l 1,33,-1
 46 0 l 1,34,-1
 46 32 l 1,4,-1
259 244 m 1,35,-1
 471 244 l 1,36,-1
 367 549 l 1,37,-1
 259 244 l 1,35,-1
EndSplineSet
Validated: 1
EndChar

StartChar: Aogonek
Encoding: 197 260 25
Width: 764
GlyphClass: 1
Flags: W
LayerCount: 2
Fore
SplineSet
477.5 -213.5 m 128,-1,1
 452 -189 452 -189 452 -148 c 0,2,3
 452 -68 452 -68 564 -5 c 1,4,-1
 562 0 l 1,5,-1
 432 0 l 1,6,-1
 432 32 l 1,7,-1
 498 32 l 2,8,9
 513 32 513 32 523 39.5 c 128,-1,10
 533 47 533 47 533 57 c 0,11,12
 533 70 533 70 529 79 c 2,13,-1
 482 212 l 1,14,-1
 248 212 l 1,15,-1
 224 145 l 2,16,17
 210 105 210 105 210 87 c 0,18,19
 210 65 210 65 221 48.5 c 128,-1,20
 232 32 232 32 259 32 c 2,21,-1
 320 32 l 1,22,-1
 320 0 l 1,23,-1
 46 0 l 1,24,-1
 46 32 l 1,25,-1
 83 32 l 2,26,27
 142 32 142 32 169 105 c 2,28,-1
 384 712 l 1,29,-1
 409 712 l 1,30,-1
 626 76 l 2,31,32
 636 51 636 51 650 41.5 c 128,-1,33
 664 32 664 32 686 32 c 2,34,-1
 742 32 l 1,35,-1
 742 0 l 1,36,-1
 616 0 l 1,37,38
 574 -21 574 -21 547 -55.5 c 128,-1,39
 520 -90 520 -90 520 -135 c 0,40,41
 520 -160 520 -160 534 -177 c 128,-1,42
 548 -194 548 -194 572 -194 c 0,43,44
 594 -194 594 -194 607.5 -187.5 c 128,-1,45
 621 -181 621 -181 634 -167 c 1,46,-1
 646 -176 l 1,47,48
 633 -201 633 -201 608 -219.5 c 128,-1,49
 583 -238 583 -238 547 -238 c 0,50,0
 503 -238 503 -238 477.5 -213.5 c 128,-1,1
259 244 m 1,51,-1
 471 244 l 1,52,-1
 367 549 l 1,53,-1
 259 244 l 1,51,-1
EndSplineSet
Validated: 1
EndChar

StartChar: Aring
Encoding: 134 197 26
Width: 764
GlyphClass: 1
Flags: W
LayerCount: 2
Fore
SplineSet
327 781 m 128,-1,1
 298 810 298 810 298 850 c 0,2,3
 298 891 298 891 327 919.5 c 128,-1,4
 356 948 356 948 396 948 c 0,5,6
 437 948 437 948 465.5 919.5 c 128,-1,7
 494 891 494 891 494 850 c 0,8,9
 494 810 494 810 465.5 781 c 128,-1,10
 437 752 437 752 396 752 c 0,11,0
 356 752 356 752 327 781 c 128,-1,1
448.5 797.5 m 128,-1,13
 470 819 470 819 470 850 c 256,14,15
 470 881 470 881 448.5 902.5 c 128,-1,16
 427 924 427 924 396 924 c 256,17,18
 365 924 365 924 343.5 902.5 c 128,-1,19
 322 881 322 881 322 850 c 256,20,21
 322 819 322 819 343.5 797.5 c 128,-1,22
 365 776 365 776 396 776 c 256,23,12
 427 776 427 776 448.5 797.5 c 128,-1,13
46 32 m 1,24,-1
 83 32 l 2,25,26
 142 32 142 32 169 105 c 2,27,-1
 384 712 l 1,28,-1
 409 712 l 1,29,-1
 626 76 l 2,30,31
 636 51 636 51 650 41.5 c 128,-1,32
 664 32 664 32 686 32 c 2,33,-1
 742 32 l 1,34,-1
 742 0 l 1,35,-1
 432 0 l 1,36,-1
 432 32 l 1,37,-1
 498 32 l 2,38,39
 513 32 513 32 523 39.5 c 128,-1,40
 533 47 533 47 533 57 c 0,41,42
 533 70 533 70 529 79 c 2,43,-1
 482 212 l 1,44,-1
 248 212 l 1,45,-1
 224 145 l 2,46,47
 210 105 210 105 210 87 c 0,48,49
 210 65 210 65 221 48.5 c 128,-1,50
 232 32 232 32 259 32 c 2,51,-1
 320 32 l 1,52,-1
 320 0 l 1,53,-1
 46 0 l 1,54,-1
 46 32 l 1,24,-1
259 244 m 1,55,-1
 471 244 l 1,56,-1
 367 549 l 1,57,-1
 259 244 l 1,55,-1
EndSplineSet
Validated: 1
EndChar

StartChar: Aringacute
Encoding: 337 506 27
Width: 764
GlyphClass: 1
Flags: W
LayerCount: 2
Fore
SplineSet
374 877 m 1,0,-1
 434 934 l 2,1,2
 452 952 452 952 469 952 c 0,3,4
 476 952 476 952 481 946.5 c 128,-1,5
 486 941 486 941 486 933 c 0,6,7
 486 923 486 923 478.5 916.5 c 128,-1,8
 471 910 471 910 457 903 c 2,9,-1
 380 868 l 1,10,-1
 374 877 l 1,0,-1
336 749 m 128,-1,12
 312 766 312 766 312 796 c 256,13,14
 312 826 312 826 336 843 c 128,-1,15
 360 860 360 860 396 860 c 256,16,17
 432 860 432 860 456 843 c 128,-1,18
 480 826 480 826 480 796 c 256,19,20
 480 766 480 766 456 749 c 128,-1,21
 432 732 432 732 396 732 c 256,22,11
 360 732 360 732 336 749 c 128,-1,12
438.5 765 m 128,-1,24
 456 774 456 774 456 796 c 256,25,26
 456 818 456 818 438.5 827 c 128,-1,27
 421 836 421 836 396 836 c 256,28,29
 371 836 371 836 353.5 827 c 128,-1,30
 336 818 336 818 336 796 c 256,31,32
 336 774 336 774 353.5 765 c 128,-1,33
 371 756 371 756 396 756 c 256,34,23
 421 756 421 756 438.5 765 c 128,-1,24
46 32 m 1,35,-1
 83 32 l 2,36,37
 142 32 142 32 169 105 c 2,38,-1
 384 712 l 1,39,-1
 409 712 l 1,40,-1
 626 76 l 2,41,42
 636 51 636 51 650 41.5 c 128,-1,43
 664 32 664 32 686 32 c 2,44,-1
 742 32 l 1,45,-1
 742 0 l 1,46,-1
 432 0 l 1,47,-1
 432 32 l 1,48,-1
 498 32 l 2,49,50
 513 32 513 32 523 39.5 c 128,-1,51
 533 47 533 47 533 57 c 0,52,53
 533 70 533 70 529 79 c 2,54,-1
 482 212 l 1,55,-1
 248 212 l 1,56,-1
 224 145 l 2,57,58
 210 105 210 105 210 87 c 0,59,60
 210 65 210 65 221 48.5 c 128,-1,61
 232 32 232 32 259 32 c 2,62,-1
 320 32 l 1,63,-1
 320 0 l 1,64,-1
 46 0 l 1,65,-1
 46 32 l 1,35,-1
259 244 m 1,66,-1
 471 244 l 1,67,-1
 367 549 l 1,68,-1
 259 244 l 1,66,-1
EndSplineSet
Validated: 1
EndChar

StartChar: Atilde
Encoding: 132 195 28
Width: 764
GlyphClass: 1
Flags: W
LayerCount: 2
Fore
SplineSet
240 810 m 1,0,1
 243 848 243 848 265.5 875 c 128,-1,2
 288 902 288 902 326 902 c 0,3,4
 355 902 355 902 416 881 c 0,5,6
 465 864 465 864 488 864 c 0,7,8
 506 864 506 864 517 875 c 128,-1,9
 528 886 528 886 532 906 c 1,10,-1
 552 904 l 1,11,12
 549 866 549 866 526.5 839 c 128,-1,13
 504 812 504 812 466 812 c 0,14,15
 437 812 437 812 376 833 c 0,16,17
 327 850 327 850 304 850 c 0,18,19
 286 850 286 850 275 839 c 128,-1,20
 264 828 264 828 260 808 c 1,21,-1
 240 810 l 1,0,1
46 32 m 1,22,-1
 83 32 l 2,23,24
 142 32 142 32 169 105 c 2,25,-1
 384 712 l 1,26,-1
 409 712 l 1,27,-1
 626 76 l 2,28,29
 636 51 636 51 650 41.5 c 128,-1,30
 664 32 664 32 686 32 c 2,31,-1
 742 32 l 1,32,-1
 742 0 l 1,33,-1
 432 0 l 1,34,-1
 432 32 l 1,35,-1
 498 32 l 2,36,37
 513 32 513 32 523 39.5 c 128,-1,38
 533 47 533 47 533 57 c 0,39,40
 533 70 533 70 529 79 c 2,41,-1
 482 212 l 1,42,-1
 248 212 l 1,43,-1
 224 145 l 2,44,45
 210 105 210 105 210 87 c 0,46,47
 210 65 210 65 221 48.5 c 128,-1,48
 232 32 232 32 259 32 c 2,49,-1
 320 32 l 1,50,-1
 320 0 l 1,51,-1
 46 0 l 1,52,-1
 46 32 l 1,22,-1
259 244 m 1,53,-1
 471 244 l 1,54,-1
 367 549 l 1,55,-1
 259 244 l 1,53,-1
EndSplineSet
Validated: 1
EndChar

StartChar: AE
Encoding: 135 198 29
Width: 1004
GlyphClass: 1
Flags: W
LayerCount: 2
Fore
SplineSet
26 32 m 1,0,-1
 58 32 l 2,1,2
 96 32 96 32 119.5 52.5 c 128,-1,3
 143 73 143 73 159 105 c 2,4,-1
 425 608 l 2,5,6
 442 639 442 639 442 659 c 0,7,8
 442 670 442 670 436.5 675 c 128,-1,9
 431 680 431 680 417 680 c 2,10,-1
 376 680 l 1,11,-1
 376 712 l 1,12,-1
 934 712 l 1,13,-1
 938 462 l 1,14,-1
 913 462 l 1,15,16
 913 482 913 482 904.5 530 c 128,-1,17
 896 578 896 578 871 616 c 0,18,19
 829 680 829 680 753 680 c 2,20,-1
 594 680 l 2,21,22
 580 680 580 680 573.5 673.5 c 128,-1,23
 567 667 567 667 567 653 c 2,24,-1
 567 384 l 1,25,-1
 644 384 l 2,26,27
 695 384 695 384 717.5 436 c 128,-1,28
 740 488 740 488 740 547 c 1,29,-1
 766 547 l 1,30,-1
 766 189 l 1,31,-1
 740 189 l 1,32,33
 740 248 740 248 717.5 300 c 128,-1,34
 695 352 695 352 644 352 c 2,35,-1
 567 352 l 1,36,-1
 567 59 l 2,37,38
 567 32 567 32 594 32 c 2,39,-1
 754 32 l 2,40,41
 783 32 783 32 813 45 c 128,-1,42
 843 58 843 58 864 85 c 0,43,44
 884 113 884 113 897 155 c 128,-1,45
 910 197 910 197 915 231.5 c 128,-1,46
 920 266 920 266 921 276 c 1,47,-1
 946 276 l 1,48,-1
 934 0 l 1,49,-1
 381 0 l 1,50,-1
 381 32 l 1,51,-1
 448 32 l 2,52,53
 475 32 475 32 475 59 c 2,54,-1
 475 212 l 1,55,-1
 259 212 l 1,56,-1
 223 145 l 2,57,58
 205 111 205 111 205 85 c 0,59,60
 205 62 205 62 213 47 c 128,-1,61
 221 32 221 32 249 32 c 2,62,-1
 296 32 l 1,63,-1
 296 0 l 1,64,-1
 26 0 l 1,65,-1
 26 32 l 1,0,-1
276 244 m 1,66,-1
 475 244 l 1,67,-1
 475 620 l 1,68,-1
 276 244 l 1,66,-1
EndSplineSet
Validated: 1
EndChar

StartChar: AEacute
Encoding: 339 508 30
Width: 1004
GlyphClass: 1
Flags: W
LayerCount: 2
Fore
SplineSet
625 773 m 1,0,-1
 717 906 l 2,1,2
 730 924 730 924 741 931 c 128,-1,3
 752 938 752 938 766 938 c 0,4,5
 779 938 779 938 786.5 929.5 c 128,-1,6
 794 921 794 921 794 907 c 0,7,8
 794 884 794 884 766 863 c 2,9,-1
 638 762 l 1,10,-1
 625 773 l 1,0,-1
26 32 m 1,11,-1
 58 32 l 2,12,13
 96 32 96 32 119.5 52.5 c 128,-1,14
 143 73 143 73 159 105 c 2,15,-1
 425 608 l 2,16,17
 442 639 442 639 442 659 c 0,18,19
 442 670 442 670 436.5 675 c 128,-1,20
 431 680 431 680 417 680 c 2,21,-1
 376 680 l 1,22,-1
 376 712 l 1,23,-1
 934 712 l 1,24,-1
 938 462 l 1,25,-1
 913 462 l 1,26,27
 913 482 913 482 904.5 530 c 128,-1,28
 896 578 896 578 871 616 c 0,29,30
 829 680 829 680 753 680 c 2,31,-1
 594 680 l 2,32,33
 580 680 580 680 573.5 673.5 c 128,-1,34
 567 667 567 667 567 653 c 2,35,-1
 567 384 l 1,36,-1
 644 384 l 2,37,38
 695 384 695 384 717.5 436 c 128,-1,39
 740 488 740 488 740 547 c 1,40,-1
 766 547 l 1,41,-1
 766 189 l 1,42,-1
 740 189 l 1,43,44
 740 248 740 248 717.5 300 c 128,-1,45
 695 352 695 352 644 352 c 2,46,-1
 567 352 l 1,47,-1
 567 59 l 2,48,49
 567 32 567 32 594 32 c 2,50,-1
 754 32 l 2,51,52
 783 32 783 32 813 45 c 128,-1,53
 843 58 843 58 864 85 c 0,54,55
 884 113 884 113 897 155 c 128,-1,56
 910 197 910 197 915 231.5 c 128,-1,57
 920 266 920 266 921 276 c 1,58,-1
 946 276 l 1,59,-1
 934 0 l 1,60,-1
 381 0 l 1,61,-1
 381 32 l 1,62,-1
 448 32 l 2,63,64
 475 32 475 32 475 59 c 2,65,-1
 475 212 l 1,66,-1
 259 212 l 1,67,-1
 223 145 l 2,68,69
 205 111 205 111 205 85 c 0,70,71
 205 62 205 62 213 47 c 128,-1,72
 221 32 221 32 249 32 c 2,73,-1
 296 32 l 1,74,-1
 296 0 l 1,75,-1
 26 0 l 1,76,-1
 26 32 l 1,11,-1
276 244 m 1,77,-1
 475 244 l 1,78,-1
 475 620 l 1,79,-1
 276 244 l 1,77,-1
EndSplineSet
Validated: 1
EndChar

StartChar: B
Encoding: 36 66 31
Width: 690
GlyphClass: 1
Flags: W
LayerCount: 2
Fore
SplineSet
62 32 m 1,0,-1
 134 32 l 2,1,2
 161 32 161 32 161 59 c 2,3,-1
 161 653 l 2,4,5
 161 667 161 667 154.5 673.5 c 128,-1,6
 148 680 148 680 134 680 c 2,7,-1
 62 680 l 1,8,-1
 62 712 l 1,9,-1
 388 712 l 2,10,11
 447 712 447 712 498.5 690 c 128,-1,12
 550 668 550 668 581 629.5 c 128,-1,13
 612 591 612 591 612 542 c 0,14,15
 612 474 612 474 566 430 c 128,-1,16
 520 386 520 386 459 373 c 1,17,-1
 459 369 l 1,18,19
 500 366 500 366 540.5 343.5 c 128,-1,20
 581 321 581 321 607.5 282 c 128,-1,21
 634 243 634 243 634 194 c 0,22,23
 634 133 634 133 602 89 c 128,-1,24
 570 45 570 45 516.5 22.5 c 128,-1,25
 463 0 463 0 399 0 c 2,26,-1
 62 0 l 1,27,-1
 62 32 l 1,0,-1
384 388 m 2,28,29
 465 388 465 388 494.5 429.5 c 128,-1,30
 524 471 524 471 524 542 c 0,31,32
 524 602 524 602 486 641 c 128,-1,33
 448 680 448 680 392 680 c 2,34,-1
 280 680 l 2,35,36
 266 680 266 680 259.5 673.5 c 128,-1,37
 253 667 253 667 253 653 c 2,38,-1
 253 388 l 1,39,-1
 384 388 l 2,28,29
388 32 m 2,40,41
 449 32 449 32 488.5 68.5 c 128,-1,42
 528 105 528 105 528 194 c 256,43,44
 528 283 528 283 488.5 319.5 c 128,-1,45
 449 356 449 356 388 356 c 2,46,-1
 253 356 l 1,47,-1
 253 59 l 2,48,49
 253 32 253 32 280 32 c 2,50,-1
 388 32 l 2,40,41
EndSplineSet
Validated: 1
EndChar

StartChar: C
Encoding: 37 67 32
Width: 670
GlyphClass: 1
Flags: W
LayerCount: 2
Fore
SplineSet
206 36 m 128,-1,1
 139 90 139 90 104.5 177.5 c 128,-1,2
 70 265 70 265 70 362 c 0,3,4
 70 463 70 463 104 547 c 128,-1,5
 138 631 138 631 201 680.5 c 128,-1,6
 264 730 264 730 348 730 c 0,7,8
 392 730 392 730 431 710 c 128,-1,9
 470 690 470 690 495 667 c 0,10,11
 519 645 519 645 527 645 c 256,12,13
 535 645 535 645 538.5 650 c 128,-1,14
 542 655 542 655 546 666 c 2,15,-1
 565 722 l 1,16,-1
 590 722 l 1,17,-1
 594 412 l 1,18,-1
 566 412 l 1,19,20
 544 507 544 507 509 571.5 c 128,-1,21
 474 636 474 636 432.5 667 c 128,-1,22
 391 698 391 698 350 698 c 0,23,24
 255 698 255 698 215.5 612 c 128,-1,25
 176 526 176 526 176 362 c 0,26,27
 176 193 176 193 217 103.5 c 128,-1,28
 258 14 258 14 366 14 c 0,29,30
 462 14 462 14 512.5 85.5 c 128,-1,31
 563 157 563 157 570 259 c 1,32,-1
 606 259 l 1,33,34
 603 200 603 200 581.5 137 c 128,-1,35
 560 74 560 74 507 28 c 128,-1,36
 454 -18 454 -18 366 -18 c 0,37,0
 273 -18 273 -18 206 36 c 128,-1,1
EndSplineSet
Validated: 1
EndChar

StartChar: Cacute
Encoding: 199 262 33
Width: 670
GlyphClass: 1
Flags: W
LayerCount: 2
Fore
SplineSet
323 773 m 1,0,-1
 415 906 l 2,1,2
 428 924 428 924 439 931 c 128,-1,3
 450 938 450 938 464 938 c 0,4,5
 477 938 477 938 484.5 929.5 c 128,-1,6
 492 921 492 921 492 907 c 0,7,8
 492 884 492 884 464 863 c 2,9,-1
 336 762 l 1,10,-1
 323 773 l 1,0,-1
206 36 m 128,-1,12
 139 90 139 90 104.5 177.5 c 128,-1,13
 70 265 70 265 70 362 c 0,14,15
 70 463 70 463 104 547 c 128,-1,16
 138 631 138 631 201 680.5 c 128,-1,17
 264 730 264 730 348 730 c 0,18,19
 392 730 392 730 431 710 c 128,-1,20
 470 690 470 690 495 667 c 0,21,22
 519 645 519 645 527 645 c 256,23,24
 535 645 535 645 538.5 650 c 128,-1,25
 542 655 542 655 546 666 c 2,26,-1
 565 722 l 1,27,-1
 590 722 l 1,28,-1
 594 412 l 1,29,-1
 566 412 l 1,30,31
 544 507 544 507 509 571.5 c 128,-1,32
 474 636 474 636 432.5 667 c 128,-1,33
 391 698 391 698 350 698 c 0,34,35
 255 698 255 698 215.5 612 c 128,-1,36
 176 526 176 526 176 362 c 0,37,38
 176 193 176 193 217 103.5 c 128,-1,39
 258 14 258 14 366 14 c 0,40,41
 462 14 462 14 512.5 85.5 c 128,-1,42
 563 157 563 157 570 259 c 1,43,-1
 606 259 l 1,44,45
 603 200 603 200 581.5 137 c 128,-1,46
 560 74 560 74 507 28 c 128,-1,47
 454 -18 454 -18 366 -18 c 0,48,11
 273 -18 273 -18 206 36 c 128,-1,12
EndSplineSet
Validated: 1
EndChar

StartChar: Ccaron
Encoding: 205 268 34
Width: 670
GlyphClass: 1
Flags: W
LayerCount: 2
Fore
SplineSet
328 762 m 1,0,-1
 188 906 l 1,1,-1
 200 920 l 1,2,-1
 348 824 l 1,3,-1
 496 920 l 1,4,-1
 508 906 l 1,5,-1
 368 762 l 1,6,-1
 328 762 l 1,0,-1
206 36 m 128,-1,8
 139 90 139 90 104.5 177.5 c 128,-1,9
 70 265 70 265 70 362 c 0,10,11
 70 463 70 463 104 547 c 128,-1,12
 138 631 138 631 201 680.5 c 128,-1,13
 264 730 264 730 348 730 c 0,14,15
 392 730 392 730 431 710 c 128,-1,16
 470 690 470 690 495 667 c 0,17,18
 519 645 519 645 527 645 c 256,19,20
 535 645 535 645 538.5 650 c 128,-1,21
 542 655 542 655 546 666 c 2,22,-1
 565 722 l 1,23,-1
 590 722 l 1,24,-1
 594 412 l 1,25,-1
 566 412 l 1,26,27
 544 507 544 507 509 571.5 c 128,-1,28
 474 636 474 636 432.5 667 c 128,-1,29
 391 698 391 698 350 698 c 0,30,31
 255 698 255 698 215.5 612 c 128,-1,32
 176 526 176 526 176 362 c 0,33,34
 176 193 176 193 217 103.5 c 128,-1,35
 258 14 258 14 366 14 c 0,36,37
 462 14 462 14 512.5 85.5 c 128,-1,38
 563 157 563 157 570 259 c 1,39,-1
 606 259 l 1,40,41
 603 200 603 200 581.5 137 c 128,-1,42
 560 74 560 74 507 28 c 128,-1,43
 454 -18 454 -18 366 -18 c 0,44,7
 273 -18 273 -18 206 36 c 128,-1,8
EndSplineSet
Validated: 1
EndChar

StartChar: Ccedilla
Encoding: 136 199 35
Width: 670
GlyphClass: 1
Flags: W
LayerCount: 2
Fore
SplineSet
298 -219.5 m 128,-1,1
 268 -201 268 -201 268 -168 c 0,2,3
 268 -156 268 -156 275.5 -147 c 128,-1,4
 283 -138 283 -138 295 -138 c 0,5,6
 321 -138 321 -138 327 -173 c 0,7,8
 330 -192 330 -192 344 -203 c 128,-1,9
 358 -214 358 -214 379 -214 c 0,10,11
 410 -214 410 -214 425 -200.5 c 128,-1,12
 440 -187 440 -187 440 -164 c 0,13,14
 440 -112 440 -112 372 -112 c 2,15,-1
 323 -112 l 1,16,-1
 340 -17 l 1,17,18
 255 -9 255 -9 194 46.5 c 128,-1,19
 133 102 133 102 101.5 186 c 128,-1,20
 70 270 70 270 70 362 c 0,21,22
 70 463 70 463 104 547 c 128,-1,23
 138 631 138 631 201 680.5 c 128,-1,24
 264 730 264 730 348 730 c 0,25,26
 392 730 392 730 431 710 c 128,-1,27
 470 690 470 690 495 667 c 0,28,29
 519 645 519 645 527 645 c 256,30,31
 535 645 535 645 538.5 650 c 128,-1,32
 542 655 542 655 546 666 c 2,33,-1
 565 722 l 1,34,-1
 590 722 l 1,35,-1
 594 412 l 1,36,-1
 566 412 l 1,37,38
 544 507 544 507 509 571.5 c 128,-1,39
 474 636 474 636 432.5 667 c 128,-1,40
 391 698 391 698 350 698 c 0,41,42
 255 698 255 698 215.5 612 c 128,-1,43
 176 526 176 526 176 362 c 0,44,45
 176 193 176 193 217 103.5 c 128,-1,46
 258 14 258 14 366 14 c 0,47,48
 462 14 462 14 512.5 85.5 c 128,-1,49
 563 157 563 157 570 259 c 1,50,-1
 606 259 l 1,51,52
 603 200 603 200 581.5 137 c 128,-1,53
 560 74 560 74 507 28 c 128,-1,54
 454 -18 454 -18 366 -18 c 1,55,-1
 359 -56 l 1,56,-1
 390 -56 l 2,57,58
 429 -56 429 -56 456.5 -77 c 128,-1,59
 484 -98 484 -98 484 -137 c 0,60,61
 484 -179 484 -179 456 -208.5 c 128,-1,62
 428 -238 428 -238 366 -238 c 0,63,0
 328 -238 328 -238 298 -219.5 c 128,-1,1
EndSplineSet
Validated: 1
EndChar

StartChar: uni1E08
Encoding: 631 7688 36
Width: 670
GlyphClass: 1
Flags: W
LayerCount: 2
Fore
SplineSet
333 773 m 1,0,-1
 425 906 l 2,1,2
 438 924 438 924 449 931 c 128,-1,3
 460 938 460 938 474 938 c 0,4,5
 487 938 487 938 494.5 929.5 c 128,-1,6
 502 921 502 921 502 907 c 0,7,8
 502 884 502 884 474 863 c 2,9,-1
 346 762 l 1,10,-1
 333 773 l 1,0,-1
298 -219.5 m 128,-1,12
 268 -201 268 -201 268 -168 c 0,13,14
 268 -156 268 -156 275.5 -147 c 128,-1,15
 283 -138 283 -138 295 -138 c 0,16,17
 321 -138 321 -138 327 -173 c 0,18,19
 330 -192 330 -192 344 -203 c 128,-1,20
 358 -214 358 -214 379 -214 c 0,21,22
 410 -214 410 -214 425 -200.5 c 128,-1,23
 440 -187 440 -187 440 -164 c 0,24,25
 440 -112 440 -112 372 -112 c 2,26,-1
 323 -112 l 1,27,-1
 340 -17 l 1,28,29
 255 -9 255 -9 194 46.5 c 128,-1,30
 133 102 133 102 101.5 186 c 128,-1,31
 70 270 70 270 70 362 c 0,32,33
 70 463 70 463 104 547 c 128,-1,34
 138 631 138 631 201 680.5 c 128,-1,35
 264 730 264 730 348 730 c 0,36,37
 392 730 392 730 431 710 c 128,-1,38
 470 690 470 690 495 667 c 0,39,40
 519 645 519 645 527 645 c 256,41,42
 535 645 535 645 538.5 650 c 128,-1,43
 542 655 542 655 546 666 c 2,44,-1
 565 722 l 1,45,-1
 590 722 l 1,46,-1
 594 412 l 1,47,-1
 566 412 l 1,48,49
 544 507 544 507 509 571.5 c 128,-1,50
 474 636 474 636 432.5 667 c 128,-1,51
 391 698 391 698 350 698 c 0,52,53
 255 698 255 698 215.5 612 c 128,-1,54
 176 526 176 526 176 362 c 0,55,56
 176 193 176 193 217 103.5 c 128,-1,57
 258 14 258 14 366 14 c 0,58,59
 462 14 462 14 512.5 85.5 c 128,-1,60
 563 157 563 157 570 259 c 1,61,-1
 606 259 l 1,62,63
 603 200 603 200 581.5 137 c 128,-1,64
 560 74 560 74 507 28 c 128,-1,65
 454 -18 454 -18 366 -18 c 1,66,-1
 359 -56 l 1,67,-1
 390 -56 l 2,68,69
 429 -56 429 -56 456.5 -77 c 128,-1,70
 484 -98 484 -98 484 -137 c 0,71,72
 484 -179 484 -179 456 -208.5 c 128,-1,73
 428 -238 428 -238 366 -238 c 0,74,11
 328 -238 328 -238 298 -219.5 c 128,-1,12
EndSplineSet
Validated: 1
EndChar

StartChar: Ccircumflex
Encoding: 201 264 37
Width: 670
GlyphClass: 1
Flags: W
LayerCount: 2
Fore
SplineSet
190 778 m 1,0,1
 281 830 281 830 328 920 c 1,2,-1
 368 920 l 1,3,4
 415 830 415 830 506 778 c 1,5,-1
 496 762 l 1,6,7
 470 771 470 771 424.5 800.5 c 128,-1,8
 379 830 379 830 348 858 c 1,9,10
 317 830 317 830 271.5 800.5 c 128,-1,11
 226 771 226 771 200 762 c 1,12,-1
 190 778 l 1,0,1
206 36 m 128,-1,14
 139 90 139 90 104.5 177.5 c 128,-1,15
 70 265 70 265 70 362 c 0,16,17
 70 463 70 463 104 547 c 128,-1,18
 138 631 138 631 201 680.5 c 128,-1,19
 264 730 264 730 348 730 c 0,20,21
 392 730 392 730 431 710 c 128,-1,22
 470 690 470 690 495 667 c 0,23,24
 519 645 519 645 527 645 c 256,25,26
 535 645 535 645 538.5 650 c 128,-1,27
 542 655 542 655 546 666 c 2,28,-1
 565 722 l 1,29,-1
 590 722 l 1,30,-1
 594 412 l 1,31,-1
 566 412 l 1,32,33
 544 507 544 507 509 571.5 c 128,-1,34
 474 636 474 636 432.5 667 c 128,-1,35
 391 698 391 698 350 698 c 0,36,37
 255 698 255 698 215.5 612 c 128,-1,38
 176 526 176 526 176 362 c 0,39,40
 176 193 176 193 217 103.5 c 128,-1,41
 258 14 258 14 366 14 c 0,42,43
 462 14 462 14 512.5 85.5 c 128,-1,44
 563 157 563 157 570 259 c 1,45,-1
 606 259 l 1,46,47
 603 200 603 200 581.5 137 c 128,-1,48
 560 74 560 74 507 28 c 128,-1,49
 454 -18 454 -18 366 -18 c 0,50,13
 273 -18 273 -18 206 36 c 128,-1,14
EndSplineSet
Validated: 1
EndChar

StartChar: Cdotaccent
Encoding: 203 266 38
Width: 670
GlyphClass: 1
Flags: W
LayerCount: 2
Fore
SplineSet
311 813 m 128,-1,1
 296 828 296 828 296 850 c 0,2,3
 296 873 296 873 311 887.5 c 128,-1,4
 326 902 326 902 348 902 c 0,5,6
 371 902 371 902 385.5 887.5 c 128,-1,7
 400 873 400 873 400 850 c 0,8,9
 400 828 400 828 385.5 813 c 128,-1,10
 371 798 371 798 348 798 c 0,11,0
 326 798 326 798 311 813 c 128,-1,1
206 36 m 128,-1,13
 139 90 139 90 104.5 177.5 c 128,-1,14
 70 265 70 265 70 362 c 0,15,16
 70 463 70 463 104 547 c 128,-1,17
 138 631 138 631 201 680.5 c 128,-1,18
 264 730 264 730 348 730 c 0,19,20
 392 730 392 730 431 710 c 128,-1,21
 470 690 470 690 495 667 c 0,22,23
 519 645 519 645 527 645 c 256,24,25
 535 645 535 645 538.5 650 c 128,-1,26
 542 655 542 655 546 666 c 2,27,-1
 565 722 l 1,28,-1
 590 722 l 1,29,-1
 594 412 l 1,30,-1
 566 412 l 1,31,32
 544 507 544 507 509 571.5 c 128,-1,33
 474 636 474 636 432.5 667 c 128,-1,34
 391 698 391 698 350 698 c 0,35,36
 255 698 255 698 215.5 612 c 128,-1,37
 176 526 176 526 176 362 c 0,38,39
 176 193 176 193 217 103.5 c 128,-1,40
 258 14 258 14 366 14 c 0,41,42
 462 14 462 14 512.5 85.5 c 128,-1,43
 563 157 563 157 570 259 c 1,44,-1
 606 259 l 1,45,46
 603 200 603 200 581.5 137 c 128,-1,47
 560 74 560 74 507 28 c 128,-1,48
 454 -18 454 -18 366 -18 c 0,49,12
 273 -18 273 -18 206 36 c 128,-1,13
EndSplineSet
Validated: 1
EndChar

StartChar: D
Encoding: 38 68 39
Width: 780
GlyphClass: 1
Flags: W
LayerCount: 2
Fore
SplineSet
62 32 m 1,0,-1
 134 32 l 2,1,2
 161 32 161 32 161 59 c 2,3,-1
 161 653 l 2,4,5
 161 667 161 667 154.5 673.5 c 128,-1,6
 148 680 148 680 134 680 c 2,7,-1
 62 680 l 1,8,-1
 62 712 l 1,9,-1
 428 712 l 2,10,11
 511 712 511 712 580 667.5 c 128,-1,12
 649 623 649 623 689.5 543.5 c 128,-1,13
 730 464 730 464 730 362 c 256,14,15
 730 260 730 260 689.5 177 c 128,-1,16
 649 94 649 94 579.5 47 c 128,-1,17
 510 0 510 0 428 0 c 2,18,-1
 62 0 l 1,19,-1
 62 32 l 1,0,-1
424 32 m 2,20,21
 494 32 494 32 539 79.5 c 128,-1,22
 584 127 584 127 604 201.5 c 128,-1,23
 624 276 624 276 624 362 c 0,24,25
 624 496 624 496 575.5 588 c 128,-1,26
 527 680 527 680 424 680 c 2,27,-1
 280 680 l 2,28,29
 266 680 266 680 259.5 673.5 c 128,-1,30
 253 667 253 667 253 653 c 2,31,-1
 253 59 l 2,32,33
 253 32 253 32 280 32 c 2,34,-1
 424 32 l 2,20,21
EndSplineSet
Validated: 1
EndChar

StartChar: uni01F1
Encoding: 334 497 40
Width: 1432
GlyphClass: 1
Flags: W
LayerCount: 2
Fore
SplineSet
62 32 m 1,0,-1
 134 32 l 2,1,2
 161 32 161 32 161 59 c 2,3,-1
 161 653 l 2,4,5
 161 667 161 667 154.5 673.5 c 128,-1,6
 148 680 148 680 134 680 c 2,7,-1
 62 680 l 1,8,-1
 62 712 l 1,9,-1
 428 712 l 2,10,11
 511 712 511 712 580 667.5 c 128,-1,12
 649 623 649 623 689.5 543.5 c 128,-1,13
 730 464 730 464 730 362 c 256,14,15
 730 260 730 260 689.5 177 c 128,-1,16
 649 94 649 94 579.5 47 c 128,-1,17
 510 0 510 0 428 0 c 2,18,-1
 62 0 l 1,19,-1
 62 32 l 1,0,-1
848 32 m 1,20,-1
 1262 680 l 1,21,-1
 1074 680 l 2,22,23
 1041 680 1041 680 1012.5 662 c 128,-1,24
 984 644 984 644 965 622 c 0,25,26
 941 594 941 594 925 557.5 c 128,-1,27
 909 521 909 521 901 490.5 c 128,-1,28
 893 460 893 460 893 456 c 1,29,-1
 868 456 l 1,30,-1
 892 712 l 1,31,-1
 1368 712 l 1,32,-1
 1368 680 l 1,33,-1
 958 32 l 1,34,-1
 1158 32 l 2,35,36
 1192 32 1192 32 1228 52.5 c 128,-1,37
 1264 73 1264 73 1287 105 c 0,38,39
 1312 141 1312 141 1328.5 184.5 c 128,-1,40
 1345 228 1345 228 1353 263 c 128,-1,41
 1361 298 1361 298 1361 302 c 1,42,-1
 1386 302 l 1,43,-1
 1370 0 l 1,44,-1
 848 0 l 1,45,-1
 848 32 l 1,20,-1
424 32 m 2,46,47
 494 32 494 32 539 79.5 c 128,-1,48
 584 127 584 127 604 201.5 c 128,-1,49
 624 276 624 276 624 362 c 0,50,51
 624 496 624 496 575.5 588 c 128,-1,52
 527 680 527 680 424 680 c 2,53,-1
 280 680 l 2,54,55
 266 680 266 680 259.5 673.5 c 128,-1,56
 253 667 253 667 253 653 c 2,57,-1
 253 59 l 2,58,59
 253 32 253 32 280 32 c 2,60,-1
 424 32 l 2,46,47
EndSplineSet
Validated: 1
EndChar

StartChar: uni01C4
Encoding: 323 452 41
Width: 652
GlyphClass: 1
Flags: W
LayerCount: 2
Fore
SplineSet
1120 762 m 1,0,-1
 980 906 l 1,1,-1
 992 920 l 1,2,-1
 1140 824 l 1,3,-1
 1288 920 l 1,4,-1
 1300 906 l 1,5,-1
 1160 762 l 1,6,-1
 1120 762 l 1,0,-1
62 32 m 1,7,-1
 134 32 l 2,8,9
 161 32 161 32 161 59 c 2,10,-1
 161 653 l 2,11,12
 161 667 161 667 154.5 673.5 c 128,-1,13
 148 680 148 680 134 680 c 2,14,-1
 62 680 l 1,15,-1
 62 712 l 1,16,-1
 428 712 l 2,17,18
 511 712 511 712 580 667.5 c 128,-1,19
 649 623 649 623 689.5 543.5 c 128,-1,20
 730 464 730 464 730 362 c 256,21,22
 730 260 730 260 689.5 177 c 128,-1,23
 649 94 649 94 579.5 47 c 128,-1,24
 510 0 510 0 428 0 c 2,25,-1
 62 0 l 1,26,-1
 62 32 l 1,7,-1
848 32 m 1,27,-1
 1262 680 l 1,28,-1
 1074 680 l 2,29,30
 1041 680 1041 680 1012.5 662 c 128,-1,31
 984 644 984 644 965 622 c 0,32,33
 941 594 941 594 925 557.5 c 128,-1,34
 909 521 909 521 901 490.5 c 128,-1,35
 893 460 893 460 893 456 c 1,36,-1
 868 456 l 1,37,-1
 892 712 l 1,38,-1
 1368 712 l 1,39,-1
 1368 680 l 1,40,-1
 958 32 l 1,41,-1
 1158 32 l 2,42,43
 1192 32 1192 32 1228 52.5 c 128,-1,44
 1264 73 1264 73 1287 105 c 0,45,46
 1312 141 1312 141 1328.5 184.5 c 128,-1,47
 1345 228 1345 228 1353 263 c 128,-1,48
 1361 298 1361 298 1361 302 c 1,49,-1
 1386 302 l 1,50,-1
 1370 0 l 1,51,-1
 848 0 l 1,52,-1
 848 32 l 1,27,-1
424 32 m 2,53,54
 494 32 494 32 539 79.5 c 128,-1,55
 584 127 584 127 604 201.5 c 128,-1,56
 624 276 624 276 624 362 c 0,57,58
 624 496 624 496 575.5 588 c 128,-1,59
 527 680 527 680 424 680 c 2,60,-1
 280 680 l 2,61,62
 266 680 266 680 259.5 673.5 c 128,-1,63
 253 667 253 667 253 653 c 2,64,-1
 253 59 l 2,65,66
 253 32 253 32 280 32 c 2,67,-1
 424 32 l 2,53,54
EndSplineSet
Validated: 1
EndChar

StartChar: Eth
Encoding: 145 208 42
Width: 768
GlyphClass: 1
Flags: W
LayerCount: 2
Fore
SplineSet
62 32 m 1,0,-1
 134 32 l 2,1,2
 161 32 161 32 161 59 c 2,3,-1
 161 356 l 1,4,-1
 68 356 l 1,5,-1
 68 392 l 1,6,-1
 161 392 l 1,7,-1
 161 653 l 2,8,9
 161 667 161 667 154.5 673.5 c 128,-1,10
 148 680 148 680 134 680 c 2,11,-1
 62 680 l 1,12,-1
 62 712 l 1,13,-1
 428 712 l 2,14,15
 511 712 511 712 580 667.5 c 128,-1,16
 649 623 649 623 689.5 543.5 c 128,-1,17
 730 464 730 464 730 362 c 256,18,19
 730 260 730 260 689.5 177 c 128,-1,20
 649 94 649 94 579.5 47 c 128,-1,21
 510 0 510 0 428 0 c 2,22,-1
 62 0 l 1,23,-1
 62 32 l 1,0,-1
424 32 m 2,24,25
 494 32 494 32 539 79.5 c 128,-1,26
 584 127 584 127 604 201.5 c 128,-1,27
 624 276 624 276 624 362 c 0,28,29
 624 496 624 496 575.5 588 c 128,-1,30
 527 680 527 680 424 680 c 2,31,-1
 280 680 l 2,32,33
 266 680 266 680 259.5 673.5 c 128,-1,34
 253 667 253 667 253 653 c 2,35,-1
 253 392 l 1,36,-1
 368 392 l 1,37,-1
 368 356 l 1,38,-1
 253 356 l 1,39,-1
 253 59 l 2,40,41
 253 32 253 32 280 32 c 2,42,-1
 424 32 l 2,24,25
EndSplineSet
Validated: 1
EndChar

StartChar: Dcaron
Encoding: 207 270 43
Width: 780
GlyphClass: 1
Flags: W
LayerCount: 2
Fore
SplineSet
348 762 m 1,0,-1
 208 906 l 1,1,-1
 220 920 l 1,2,-1
 368 824 l 1,3,-1
 516 920 l 1,4,-1
 528 906 l 1,5,-1
 388 762 l 1,6,-1
 348 762 l 1,0,-1
62 32 m 1,7,-1
 134 32 l 2,8,9
 161 32 161 32 161 59 c 2,10,-1
 161 653 l 2,11,12
 161 667 161 667 154.5 673.5 c 128,-1,13
 148 680 148 680 134 680 c 2,14,-1
 62 680 l 1,15,-1
 62 712 l 1,16,-1
 428 712 l 2,17,18
 511 712 511 712 580 667.5 c 128,-1,19
 649 623 649 623 689.5 543.5 c 128,-1,20
 730 464 730 464 730 362 c 256,21,22
 730 260 730 260 689.5 177 c 128,-1,23
 649 94 649 94 579.5 47 c 128,-1,24
 510 0 510 0 428 0 c 2,25,-1
 62 0 l 1,26,-1
 62 32 l 1,7,-1
424 32 m 2,27,28
 494 32 494 32 539 79.5 c 128,-1,29
 584 127 584 127 604 201.5 c 128,-1,30
 624 276 624 276 624 362 c 0,31,32
 624 496 624 496 575.5 588 c 128,-1,33
 527 680 527 680 424 680 c 2,34,-1
 280 680 l 2,35,36
 266 680 266 680 259.5 673.5 c 128,-1,37
 253 667 253 667 253 653 c 2,38,-1
 253 59 l 2,39,40
 253 32 253 32 280 32 c 2,41,-1
 424 32 l 2,27,28
EndSplineSet
Validated: 1
EndChar

StartChar: Dcroat
Encoding: 209 272 44
Width: 768
GlyphClass: 1
Flags: W
LayerCount: 2
Fore
SplineSet
62 32 m 1,0,-1
 134 32 l 2,1,2
 161 32 161 32 161 59 c 2,3,-1
 161 356 l 1,4,-1
 68 356 l 1,5,-1
 68 392 l 1,6,-1
 161 392 l 1,7,-1
 161 653 l 2,8,9
 161 667 161 667 154.5 673.5 c 128,-1,10
 148 680 148 680 134 680 c 2,11,-1
 62 680 l 1,12,-1
 62 712 l 1,13,-1
 428 712 l 2,14,15
 511 712 511 712 580 667.5 c 128,-1,16
 649 623 649 623 689.5 543.5 c 128,-1,17
 730 464 730 464 730 362 c 256,18,19
 730 260 730 260 689.5 177 c 128,-1,20
 649 94 649 94 579.5 47 c 128,-1,21
 510 0 510 0 428 0 c 2,22,-1
 62 0 l 1,23,-1
 62 32 l 1,0,-1
424 32 m 2,24,25
 494 32 494 32 539 79.5 c 128,-1,26
 584 127 584 127 604 201.5 c 128,-1,27
 624 276 624 276 624 362 c 0,28,29
 624 496 624 496 575.5 588 c 128,-1,30
 527 680 527 680 424 680 c 2,31,-1
 280 680 l 2,32,33
 266 680 266 680 259.5 673.5 c 128,-1,34
 253 667 253 667 253 653 c 2,35,-1
 253 392 l 1,36,-1
 368 392 l 1,37,-1
 368 356 l 1,38,-1
 253 356 l 1,39,-1
 253 59 l 2,40,41
 253 32 253 32 280 32 c 2,42,-1
 424 32 l 2,24,25
EndSplineSet
Validated: 1
EndChar

StartChar: uni1E0C
Encoding: 633 7692 45
Width: 780
GlyphClass: 1
Flags: W
LayerCount: 2
Fore
SplineSet
62 32 m 1,0,-1
 134 32 l 2,1,2
 161 32 161 32 161 59 c 2,3,-1
 161 653 l 2,4,5
 161 667 161 667 154.5 673.5 c 128,-1,6
 148 680 148 680 134 680 c 2,7,-1
 62 680 l 1,8,-1
 62 712 l 1,9,-1
 428 712 l 2,10,11
 511 712 511 712 580 667.5 c 128,-1,12
 649 623 649 623 689.5 543.5 c 128,-1,13
 730 464 730 464 730 362 c 256,14,15
 730 260 730 260 689.5 177 c 128,-1,16
 649 94 649 94 579.5 47 c 128,-1,17
 510 0 510 0 428 0 c 2,18,-1
 62 0 l 1,19,-1
 62 32 l 1,0,-1
424 32 m 2,20,21
 494 32 494 32 539 79.5 c 128,-1,22
 584 127 584 127 604 201.5 c 128,-1,23
 624 276 624 276 624 362 c 0,24,25
 624 496 624 496 575.5 588 c 128,-1,26
 527 680 527 680 424 680 c 2,27,-1
 280 680 l 2,28,29
 266 680 266 680 259.5 673.5 c 128,-1,30
 253 667 253 667 253 653 c 2,31,-1
 253 59 l 2,32,33
 253 32 253 32 280 32 c 2,34,-1
 424 32 l 2,20,21
331 -179.5 m 128,-1,36
 316 -165 316 -165 316 -142 c 0,37,38
 316 -120 316 -120 331 -105 c 128,-1,39
 346 -90 346 -90 368 -90 c 0,40,41
 391 -90 391 -90 405.5 -105 c 128,-1,42
 420 -120 420 -120 420 -142 c 0,43,44
 420 -165 420 -165 405.5 -179.5 c 128,-1,45
 391 -194 391 -194 368 -194 c 0,46,35
 346 -194 346 -194 331 -179.5 c 128,-1,36
EndSplineSet
Validated: 1
EndChar

StartChar: uni1E0E
Encoding: 635 7694 46
Width: 780
GlyphClass: 1
Flags: W
LayerCount: 2
Fore
SplineSet
62 32 m 1,0,-1
 134 32 l 2,1,2
 161 32 161 32 161 59 c 2,3,-1
 161 653 l 2,4,5
 161 667 161 667 154.5 673.5 c 128,-1,6
 148 680 148 680 134 680 c 2,7,-1
 62 680 l 1,8,-1
 62 712 l 1,9,-1
 428 712 l 2,10,11
 511 712 511 712 580 667.5 c 128,-1,12
 649 623 649 623 689.5 543.5 c 128,-1,13
 730 464 730 464 730 362 c 256,14,15
 730 260 730 260 689.5 177 c 128,-1,16
 649 94 649 94 579.5 47 c 128,-1,17
 510 0 510 0 428 0 c 2,18,-1
 62 0 l 1,19,-1
 62 32 l 1,0,-1
424 32 m 2,20,21
 494 32 494 32 539 79.5 c 128,-1,22
 584 127 584 127 604 201.5 c 128,-1,23
 624 276 624 276 624 362 c 0,24,25
 624 496 624 496 575.5 588 c 128,-1,26
 527 680 527 680 424 680 c 2,27,-1
 280 680 l 2,28,29
 266 680 266 680 259.5 673.5 c 128,-1,30
 253 667 253 667 253 653 c 2,31,-1
 253 59 l 2,32,33
 253 32 253 32 280 32 c 2,34,-1
 424 32 l 2,20,21
238 -166 m 1,35,-1
 238 -126 l 1,36,-1
 498 -126 l 1,37,-1
 498 -166 l 1,38,-1
 238 -166 l 1,35,-1
EndSplineSet
Validated: 1
EndChar

StartChar: uni01F2
Encoding: 335 498 47
Width: 1220
GlyphClass: 1
Flags: W
LayerCount: 2
Fore
SplineSet
62 32 m 1,0,-1
 134 32 l 2,1,2
 161 32 161 32 161 59 c 2,3,-1
 161 653 l 2,4,5
 161 667 161 667 154.5 673.5 c 128,-1,6
 148 680 148 680 134 680 c 2,7,-1
 62 680 l 1,8,-1
 62 712 l 1,9,-1
 428 712 l 2,10,11
 511 712 511 712 580 667.5 c 128,-1,12
 649 623 649 623 689.5 543.5 c 128,-1,13
 730 464 730 464 730 362 c 256,14,15
 730 260 730 260 689.5 177 c 128,-1,16
 649 94 649 94 579.5 47 c 128,-1,17
 510 0 510 0 428 0 c 2,18,-1
 62 0 l 1,19,-1
 62 32 l 1,0,-1
424 32 m 2,20,21
 494 32 494 32 539 79.5 c 128,-1,22
 584 127 584 127 604 201.5 c 128,-1,23
 624 276 624 276 624 362 c 0,24,25
 624 496 624 496 575.5 588 c 128,-1,26
 527 680 527 680 424 680 c 2,27,-1
 280 680 l 2,28,29
 266 680 266 680 259.5 673.5 c 128,-1,30
 253 667 253 667 253 653 c 2,31,-1
 253 59 l 2,32,33
 253 32 253 32 280 32 c 2,34,-1
 424 32 l 2,20,21
820 26 m 1,35,-1
 1080 432 l 1,36,-1
 958 432 l 2,37,38
 896 432 896 432 870 382 c 0,39,40
 855 352 855 352 847.5 319.5 c 128,-1,41
 840 287 840 287 840 280 c 1,42,-1
 820 280 l 1,43,-1
 826 456 l 1,44,-1
 1162 456 l 1,45,-1
 1162 424 l 1,46,-1
 903 24 l 1,47,-1
 1030 24 l 2,48,49
 1062 24 1062 24 1084 37.5 c 128,-1,50
 1106 51 1106 51 1118 74 c 0,51,52
 1133 104 1133 104 1140.5 136.5 c 128,-1,53
 1148 169 1148 169 1148 176 c 1,54,-1
 1168 176 l 1,55,-1
 1162 0 l 1,56,-1
 820 0 l 1,57,-1
 820 26 l 1,35,-1
EndSplineSet
Validated: 1
EndChar

StartChar: uni01C5
Encoding: 324 453 48
Width: 1220
GlyphClass: 1
Flags: W
LayerCount: 2
Fore
SplineSet
62 32 m 1,0,-1
 134 32 l 2,1,2
 161 32 161 32 161 59 c 2,3,-1
 161 653 l 2,4,5
 161 667 161 667 154.5 673.5 c 128,-1,6
 148 680 148 680 134 680 c 2,7,-1
 62 680 l 1,8,-1
 62 712 l 1,9,-1
 428 712 l 2,10,11
 511 712 511 712 580 667.5 c 128,-1,12
 649 623 649 623 689.5 543.5 c 128,-1,13
 730 464 730 464 730 362 c 256,14,15
 730 260 730 260 689.5 177 c 128,-1,16
 649 94 649 94 579.5 47 c 128,-1,17
 510 0 510 0 428 0 c 2,18,-1
 62 0 l 1,19,-1
 62 32 l 1,0,-1
424 32 m 2,20,21
 494 32 494 32 539 79.5 c 128,-1,22
 584 127 584 127 604 201.5 c 128,-1,23
 624 276 624 276 624 362 c 0,24,25
 624 496 624 496 575.5 588 c 128,-1,26
 527 680 527 680 424 680 c 2,27,-1
 280 680 l 2,28,29
 266 680 266 680 259.5 673.5 c 128,-1,30
 253 667 253 667 253 653 c 2,31,-1
 253 59 l 2,32,33
 253 32 253 32 280 32 c 2,34,-1
 424 32 l 2,20,21
980 508 m 1,35,-1
 868 661 l 1,36,-1
 881 672 l 1,37,-1
 1000 572 l 1,38,-1
 1119 672 l 1,39,-1
 1132 661 l 1,40,-1
 1020 508 l 1,41,-1
 980 508 l 1,35,-1
820 26 m 1,42,-1
 1080 432 l 1,43,-1
 958 432 l 2,44,45
 896 432 896 432 870 382 c 0,46,47
 855 352 855 352 847.5 319.5 c 128,-1,48
 840 287 840 287 840 280 c 1,49,-1
 820 280 l 1,50,-1
 826 456 l 1,51,-1
 1162 456 l 1,52,-1
 1162 424 l 1,53,-1
 903 24 l 1,54,-1
 1030 24 l 2,55,56
 1062 24 1062 24 1084 37.5 c 128,-1,57
 1106 51 1106 51 1118 74 c 0,58,59
 1133 104 1133 104 1140.5 136.5 c 128,-1,60
 1148 169 1148 169 1148 176 c 1,61,-1
 1168 176 l 1,62,-1
 1162 0 l 1,63,-1
 820 0 l 1,64,-1
 820 26 l 1,42,-1
EndSplineSet
Validated: 1
EndChar

StartChar: E
Encoding: 39 69 49
Width: 690
GlyphClass: 2
Flags: W
AnchorPoint: "Anchor-9" 0 0 basechar 0
AnchorPoint: "Anchor-8" 0 0 basechar 0
AnchorPoint: "Anchor-7" 345 712 basechar 0
AnchorPoint: "Anchor-6" 621 10 basechar 0
AnchorPoint: "Anchor-5" 345 0 basechar 0
LayerCount: 2
Fore
SplineSet
62 32 m 1,0,-1
 134 32 l 2,1,2
 161 32 161 32 161 59 c 2,3,-1
 161 653 l 2,4,5
 161 667 161 667 154.5 673.5 c 128,-1,6
 148 680 148 680 134 680 c 2,7,-1
 62 680 l 1,8,-1
 62 712 l 1,9,-1
 620 712 l 1,10,-1
 624 462 l 1,11,-1
 599 462 l 1,12,13
 599 482 599 482 590.5 530 c 128,-1,14
 582 578 582 578 557 616 c 0,15,16
 515 680 515 680 439 680 c 2,17,-1
 280 680 l 2,18,19
 266 680 266 680 259.5 673.5 c 128,-1,20
 253 667 253 667 253 653 c 2,21,-1
 253 384 l 1,22,-1
 330 384 l 2,23,24
 381 384 381 384 403.5 436 c 128,-1,25
 426 488 426 488 426 547 c 1,26,-1
 452 547 l 1,27,-1
 452 189 l 1,28,-1
 426 189 l 1,29,30
 426 248 426 248 403.5 300 c 128,-1,31
 381 352 381 352 330 352 c 2,32,-1
 253 352 l 1,33,-1
 253 59 l 2,34,35
 253 32 253 32 280 32 c 2,36,-1
 440 32 l 2,37,38
 469 32 469 32 499 45 c 128,-1,39
 529 58 529 58 550 85 c 0,40,41
 570 113 570 113 583 155 c 128,-1,42
 596 197 596 197 601 231.5 c 128,-1,43
 606 266 606 266 607 276 c 1,44,-1
 632 276 l 1,45,-1
 620 0 l 1,46,-1
 62 0 l 1,47,-1
 62 32 l 1,0,-1
EndSplineSet
Validated: 1
EndChar

StartChar: Eacute
Encoding: 138 201 50
Width: 690
GlyphClass: 1
Flags: W
LayerCount: 2
Fore
SplineSet
343 773 m 1,0,-1
 435 906 l 2,1,2
 448 924 448 924 459 931 c 128,-1,3
 470 938 470 938 484 938 c 0,4,5
 497 938 497 938 504.5 929.5 c 128,-1,6
 512 921 512 921 512 907 c 0,7,8
 512 884 512 884 484 863 c 2,9,-1
 356 762 l 1,10,-1
 343 773 l 1,0,-1
62 32 m 1,11,-1
 134 32 l 2,12,13
 161 32 161 32 161 59 c 2,14,-1
 161 653 l 2,15,16
 161 667 161 667 154.5 673.5 c 128,-1,17
 148 680 148 680 134 680 c 2,18,-1
 62 680 l 1,19,-1
 62 712 l 1,20,-1
 620 712 l 1,21,-1
 624 462 l 1,22,-1
 599 462 l 1,23,24
 599 482 599 482 590.5 530 c 128,-1,25
 582 578 582 578 557 616 c 0,26,27
 515 680 515 680 439 680 c 2,28,-1
 280 680 l 2,29,30
 266 680 266 680 259.5 673.5 c 128,-1,31
 253 667 253 667 253 653 c 2,32,-1
 253 384 l 1,33,-1
 330 384 l 2,34,35
 381 384 381 384 403.5 436 c 128,-1,36
 426 488 426 488 426 547 c 1,37,-1
 452 547 l 1,38,-1
 452 189 l 1,39,-1
 426 189 l 1,40,41
 426 248 426 248 403.5 300 c 128,-1,42
 381 352 381 352 330 352 c 2,43,-1
 253 352 l 1,44,-1
 253 59 l 2,45,46
 253 32 253 32 280 32 c 2,47,-1
 440 32 l 2,48,49
 469 32 469 32 499 45 c 128,-1,50
 529 58 529 58 550 85 c 0,51,52
 570 113 570 113 583 155 c 128,-1,53
 596 197 596 197 601 231.5 c 128,-1,54
 606 266 606 266 607 276 c 1,55,-1
 632 276 l 1,56,-1
 620 0 l 1,57,-1
 62 0 l 1,58,-1
 62 32 l 1,11,-1
EndSplineSet
Validated: 1
EndChar

StartChar: Ebreve
Encoding: 213 276 51
Width: 690
GlyphClass: 1
Flags: W
LayerCount: 2
Fore
SplineSet
284.5 786.5 m 128,-1,1
 250 811 250 811 233.5 847 c 128,-1,2
 217 883 217 883 217 916 c 1,3,-1
 245 916 l 1,4,5
 254 874 254 874 285.5 841 c 128,-1,6
 317 808 317 808 368 808 c 256,7,8
 419 808 419 808 450.5 841 c 128,-1,9
 482 874 482 874 491 916 c 1,10,-1
 519 916 l 1,11,12
 519 883 519 883 502.5 847 c 128,-1,13
 486 811 486 811 451.5 786.5 c 128,-1,14
 417 762 417 762 368 762 c 256,15,0
 319 762 319 762 284.5 786.5 c 128,-1,1
62 32 m 1,16,-1
 134 32 l 2,17,18
 161 32 161 32 161 59 c 2,19,-1
 161 653 l 2,20,21
 161 667 161 667 154.5 673.5 c 128,-1,22
 148 680 148 680 134 680 c 2,23,-1
 62 680 l 1,24,-1
 62 712 l 1,25,-1
 620 712 l 1,26,-1
 624 462 l 1,27,-1
 599 462 l 1,28,29
 599 482 599 482 590.5 530 c 128,-1,30
 582 578 582 578 557 616 c 0,31,32
 515 680 515 680 439 680 c 2,33,-1
 280 680 l 2,34,35
 266 680 266 680 259.5 673.5 c 128,-1,36
 253 667 253 667 253 653 c 2,37,-1
 253 384 l 1,38,-1
 330 384 l 2,39,40
 381 384 381 384 403.5 436 c 128,-1,41
 426 488 426 488 426 547 c 1,42,-1
 452 547 l 1,43,-1
 452 189 l 1,44,-1
 426 189 l 1,45,46
 426 248 426 248 403.5 300 c 128,-1,47
 381 352 381 352 330 352 c 2,48,-1
 253 352 l 1,49,-1
 253 59 l 2,50,51
 253 32 253 32 280 32 c 2,52,-1
 440 32 l 2,53,54
 469 32 469 32 499 45 c 128,-1,55
 529 58 529 58 550 85 c 0,56,57
 570 113 570 113 583 155 c 128,-1,58
 596 197 596 197 601 231.5 c 128,-1,59
 606 266 606 266 607 276 c 1,60,-1
 632 276 l 1,61,-1
 620 0 l 1,62,-1
 62 0 l 1,63,-1
 62 32 l 1,16,-1
EndSplineSet
Validated: 1
EndChar

StartChar: Ecaron
Encoding: 219 282 52
Width: 690
GlyphClass: 1
Flags: W
LayerCount: 2
Fore
SplineSet
348 762 m 1,0,-1
 208 906 l 1,1,-1
 220 920 l 1,2,-1
 368 824 l 1,3,-1
 516 920 l 1,4,-1
 528 906 l 1,5,-1
 388 762 l 1,6,-1
 348 762 l 1,0,-1
62 32 m 1,7,-1
 134 32 l 2,8,9
 161 32 161 32 161 59 c 2,10,-1
 161 653 l 2,11,12
 161 667 161 667 154.5 673.5 c 128,-1,13
 148 680 148 680 134 680 c 2,14,-1
 62 680 l 1,15,-1
 62 712 l 1,16,-1
 620 712 l 1,17,-1
 624 462 l 1,18,-1
 599 462 l 1,19,20
 599 482 599 482 590.5 530 c 128,-1,21
 582 578 582 578 557 616 c 0,22,23
 515 680 515 680 439 680 c 2,24,-1
 280 680 l 2,25,26
 266 680 266 680 259.5 673.5 c 128,-1,27
 253 667 253 667 253 653 c 2,28,-1
 253 384 l 1,29,-1
 330 384 l 2,30,31
 381 384 381 384 403.5 436 c 128,-1,32
 426 488 426 488 426 547 c 1,33,-1
 452 547 l 1,34,-1
 452 189 l 1,35,-1
 426 189 l 1,36,37
 426 248 426 248 403.5 300 c 128,-1,38
 381 352 381 352 330 352 c 2,39,-1
 253 352 l 1,40,-1
 253 59 l 2,41,42
 253 32 253 32 280 32 c 2,43,-1
 440 32 l 2,44,45
 469 32 469 32 499 45 c 128,-1,46
 529 58 529 58 550 85 c 0,47,48
 570 113 570 113 583 155 c 128,-1,49
 596 197 596 197 601 231.5 c 128,-1,50
 606 266 606 266 607 276 c 1,51,-1
 632 276 l 1,52,-1
 620 0 l 1,53,-1
 62 0 l 1,54,-1
 62 32 l 1,7,-1
EndSplineSet
Validated: 1
EndChar

StartChar: uni1E1C
Encoding: 641 7708 53
Width: 690
GlyphClass: 1
Flags: W
LayerCount: 2
Fore
SplineSet
284.5 786.5 m 128,-1,1
 250 811 250 811 233.5 847 c 128,-1,2
 217 883 217 883 217 916 c 1,3,-1
 245 916 l 1,4,5
 254 874 254 874 285.5 841 c 128,-1,6
 317 808 317 808 368 808 c 256,7,8
 419 808 419 808 450.5 841 c 128,-1,9
 482 874 482 874 491 916 c 1,10,-1
 519 916 l 1,11,12
 519 883 519 883 502.5 847 c 128,-1,13
 486 811 486 811 451.5 786.5 c 128,-1,14
 417 762 417 762 368 762 c 256,15,0
 319 762 319 762 284.5 786.5 c 128,-1,1
308 -219.5 m 128,-1,17
 278 -201 278 -201 278 -168 c 0,18,19
 278 -156 278 -156 285.5 -147 c 128,-1,20
 293 -138 293 -138 305 -138 c 0,21,22
 331 -138 331 -138 337 -173 c 0,23,24
 340 -192 340 -192 354 -203 c 128,-1,25
 368 -214 368 -214 389 -214 c 0,26,27
 420 -214 420 -214 435 -200.5 c 128,-1,28
 450 -187 450 -187 450 -164 c 0,29,30
 450 -112 450 -112 382 -112 c 2,31,-1
 333 -112 l 1,32,-1
 353 0 l 1,33,-1
 62 0 l 1,34,-1
 62 32 l 1,35,-1
 134 32 l 2,36,37
 161 32 161 32 161 59 c 2,38,-1
 161 653 l 2,39,40
 161 667 161 667 154.5 673.5 c 128,-1,41
 148 680 148 680 134 680 c 2,42,-1
 62 680 l 1,43,-1
 62 712 l 1,44,-1
 620 712 l 1,45,-1
 624 462 l 1,46,-1
 599 462 l 1,47,48
 599 482 599 482 590.5 530 c 128,-1,49
 582 578 582 578 557 616 c 0,50,51
 515 680 515 680 439 680 c 2,52,-1
 280 680 l 2,53,54
 266 680 266 680 259.5 673.5 c 128,-1,55
 253 667 253 667 253 653 c 2,56,-1
 253 384 l 1,57,-1
 330 384 l 2,58,59
 381 384 381 384 403.5 436 c 128,-1,60
 426 488 426 488 426 547 c 1,61,-1
 452 547 l 1,62,-1
 452 189 l 1,63,-1
 426 189 l 1,64,65
 426 248 426 248 403.5 300 c 128,-1,66
 381 352 381 352 330 352 c 2,67,-1
 253 352 l 1,68,-1
 253 59 l 2,69,70
 253 32 253 32 280 32 c 2,71,-1
 440 32 l 2,72,73
 469 32 469 32 499 45 c 128,-1,74
 529 58 529 58 550 85 c 0,75,76
 570 113 570 113 583 155 c 128,-1,77
 596 197 596 197 601 231.5 c 128,-1,78
 606 266 606 266 607 276 c 1,79,-1
 632 276 l 1,80,-1
 620 0 l 1,81,-1
 379 0 l 1,82,-1
 369 -56 l 1,83,-1
 400 -56 l 2,84,85
 439 -56 439 -56 466.5 -77 c 128,-1,86
 494 -98 494 -98 494 -137 c 0,87,88
 494 -179 494 -179 466 -208.5 c 128,-1,89
 438 -238 438 -238 376 -238 c 0,90,16
 338 -238 338 -238 308 -219.5 c 128,-1,17
EndSplineSet
Validated: 1
EndChar

StartChar: Ecircumflex
Encoding: 139 202 54
Width: 690
GlyphClass: 1
Flags: W
LayerCount: 2
Fore
SplineSet
210 778 m 1,0,1
 301 830 301 830 348 920 c 1,2,-1
 388 920 l 1,3,4
 435 830 435 830 526 778 c 1,5,-1
 516 762 l 1,6,7
 490 771 490 771 444.5 800.5 c 128,-1,8
 399 830 399 830 368 858 c 1,9,10
 337 830 337 830 291.5 800.5 c 128,-1,11
 246 771 246 771 220 762 c 1,12,-1
 210 778 l 1,0,1
62 32 m 1,13,-1
 134 32 l 2,14,15
 161 32 161 32 161 59 c 2,16,-1
 161 653 l 2,17,18
 161 667 161 667 154.5 673.5 c 128,-1,19
 148 680 148 680 134 680 c 2,20,-1
 62 680 l 1,21,-1
 62 712 l 1,22,-1
 620 712 l 1,23,-1
 624 462 l 1,24,-1
 599 462 l 1,25,26
 599 482 599 482 590.5 530 c 128,-1,27
 582 578 582 578 557 616 c 0,28,29
 515 680 515 680 439 680 c 2,30,-1
 280 680 l 2,31,32
 266 680 266 680 259.5 673.5 c 128,-1,33
 253 667 253 667 253 653 c 2,34,-1
 253 384 l 1,35,-1
 330 384 l 2,36,37
 381 384 381 384 403.5 436 c 128,-1,38
 426 488 426 488 426 547 c 1,39,-1
 452 547 l 1,40,-1
 452 189 l 1,41,-1
 426 189 l 1,42,43
 426 248 426 248 403.5 300 c 128,-1,44
 381 352 381 352 330 352 c 2,45,-1
 253 352 l 1,46,-1
 253 59 l 2,47,48
 253 32 253 32 280 32 c 2,49,-1
 440 32 l 2,50,51
 469 32 469 32 499 45 c 128,-1,52
 529 58 529 58 550 85 c 0,53,54
 570 113 570 113 583 155 c 128,-1,55
 596 197 596 197 601 231.5 c 128,-1,56
 606 266 606 266 607 276 c 1,57,-1
 632 276 l 1,58,-1
 620 0 l 1,59,-1
 62 0 l 1,60,-1
 62 32 l 1,13,-1
EndSplineSet
Validated: 1
EndChar

StartChar: uni0204
Encoding: 347 516 60
Width: 690
GlyphClass: 1
Flags: W
LayerCount: 2
Fore
SplineSet
184 863 m 2,0,1
 156 884 156 884 156 907 c 0,2,3
 156 921 156 921 163.5 929.5 c 128,-1,4
 171 938 171 938 184 938 c 0,5,6
 198 938 198 938 209 931 c 128,-1,7
 220 924 220 924 233 906 c 2,8,-1
 325 773 l 1,9,-1
 312 762 l 1,10,-1
 184 863 l 2,0,1
320 863 m 2,11,12
 292 884 292 884 292 907 c 0,13,14
 292 921 292 921 299.5 929.5 c 128,-1,15
 307 938 307 938 320 938 c 0,16,17
 334 938 334 938 345 931 c 128,-1,18
 356 924 356 924 369 906 c 2,19,-1
 461 773 l 1,20,-1
 448 762 l 1,21,-1
 320 863 l 2,11,12
62 32 m 1,22,-1
 134 32 l 2,23,24
 161 32 161 32 161 59 c 2,25,-1
 161 653 l 2,26,27
 161 667 161 667 154.5 673.5 c 128,-1,28
 148 680 148 680 134 680 c 2,29,-1
 62 680 l 1,30,-1
 62 712 l 1,31,-1
 620 712 l 1,32,-1
 624 462 l 1,33,-1
 599 462 l 1,34,35
 599 482 599 482 590.5 530 c 128,-1,36
 582 578 582 578 557 616 c 0,37,38
 515 680 515 680 439 680 c 2,39,-1
 280 680 l 2,40,41
 266 680 266 680 259.5 673.5 c 128,-1,42
 253 667 253 667 253 653 c 2,43,-1
 253 384 l 1,44,-1
 330 384 l 2,45,46
 381 384 381 384 403.5 436 c 128,-1,47
 426 488 426 488 426 547 c 1,48,-1
 452 547 l 1,49,-1
 452 189 l 1,50,-1
 426 189 l 1,51,52
 426 248 426 248 403.5 300 c 128,-1,53
 381 352 381 352 330 352 c 2,54,-1
 253 352 l 1,55,-1
 253 59 l 2,56,57
 253 32 253 32 280 32 c 2,58,-1
 440 32 l 2,59,60
 469 32 469 32 499 45 c 128,-1,61
 529 58 529 58 550 85 c 0,62,63
 570 113 570 113 583 155 c 128,-1,64
 596 197 596 197 601 231.5 c 128,-1,65
 606 266 606 266 607 276 c 1,66,-1
 632 276 l 1,67,-1
 620 0 l 1,68,-1
 62 0 l 1,69,-1
 62 32 l 1,22,-1
EndSplineSet
Validated: 1
EndChar

StartChar: Edieresis
Encoding: 140 203 61
Width: 690
GlyphClass: 1
Flags: W
LayerCount: 2
Fore
SplineSet
229 813 m 128,-1,1
 214 828 214 828 214 850 c 0,2,3
 214 873 214 873 229 887.5 c 128,-1,4
 244 902 244 902 266 902 c 0,5,6
 289 902 289 902 303.5 887.5 c 128,-1,7
 318 873 318 873 318 850 c 0,8,9
 318 828 318 828 303.5 813 c 128,-1,10
 289 798 289 798 266 798 c 0,11,0
 244 798 244 798 229 813 c 128,-1,1
433 813 m 128,-1,13
 418 828 418 828 418 850 c 0,14,15
 418 873 418 873 433 887.5 c 128,-1,16
 448 902 448 902 470 902 c 0,17,18
 493 902 493 902 507.5 887.5 c 128,-1,19
 522 873 522 873 522 850 c 0,20,21
 522 828 522 828 507.5 813 c 128,-1,22
 493 798 493 798 470 798 c 0,23,12
 448 798 448 798 433 813 c 128,-1,13
62 32 m 1,24,-1
 134 32 l 2,25,26
 161 32 161 32 161 59 c 2,27,-1
 161 653 l 2,28,29
 161 667 161 667 154.5 673.5 c 128,-1,30
 148 680 148 680 134 680 c 2,31,-1
 62 680 l 1,32,-1
 62 712 l 1,33,-1
 620 712 l 1,34,-1
 624 462 l 1,35,-1
 599 462 l 1,36,37
 599 482 599 482 590.5 530 c 128,-1,38
 582 578 582 578 557 616 c 0,39,40
 515 680 515 680 439 680 c 2,41,-1
 280 680 l 2,42,43
 266 680 266 680 259.5 673.5 c 128,-1,44
 253 667 253 667 253 653 c 2,45,-1
 253 384 l 1,46,-1
 330 384 l 2,47,48
 381 384 381 384 403.5 436 c 128,-1,49
 426 488 426 488 426 547 c 1,50,-1
 452 547 l 1,51,-1
 452 189 l 1,52,-1
 426 189 l 1,53,54
 426 248 426 248 403.5 300 c 128,-1,55
 381 352 381 352 330 352 c 2,56,-1
 253 352 l 1,57,-1
 253 59 l 2,58,59
 253 32 253 32 280 32 c 2,60,-1
 440 32 l 2,61,62
 469 32 469 32 499 45 c 128,-1,63
 529 58 529 58 550 85 c 0,64,65
 570 113 570 113 583 155 c 128,-1,66
 596 197 596 197 601 231.5 c 128,-1,67
 606 266 606 266 607 276 c 1,68,-1
 632 276 l 1,69,-1
 620 0 l 1,70,-1
 62 0 l 1,71,-1
 62 32 l 1,24,-1
EndSplineSet
Validated: 1
EndChar

StartChar: Edotaccent
Encoding: 215 278 62
Width: 690
GlyphClass: 1
Flags: W
LayerCount: 2
Fore
SplineSet
331 813 m 128,-1,1
 316 828 316 828 316 850 c 0,2,3
 316 873 316 873 331 887.5 c 128,-1,4
 346 902 346 902 368 902 c 0,5,6
 391 902 391 902 405.5 887.5 c 128,-1,7
 420 873 420 873 420 850 c 0,8,9
 420 828 420 828 405.5 813 c 128,-1,10
 391 798 391 798 368 798 c 0,11,0
 346 798 346 798 331 813 c 128,-1,1
62 32 m 1,12,-1
 134 32 l 2,13,14
 161 32 161 32 161 59 c 2,15,-1
 161 653 l 2,16,17
 161 667 161 667 154.5 673.5 c 128,-1,18
 148 680 148 680 134 680 c 2,19,-1
 62 680 l 1,20,-1
 62 712 l 1,21,-1
 620 712 l 1,22,-1
 624 462 l 1,23,-1
 599 462 l 1,24,25
 599 482 599 482 590.5 530 c 128,-1,26
 582 578 582 578 557 616 c 0,27,28
 515 680 515 680 439 680 c 2,29,-1
 280 680 l 2,30,31
 266 680 266 680 259.5 673.5 c 128,-1,32
 253 667 253 667 253 653 c 2,33,-1
 253 384 l 1,34,-1
 330 384 l 2,35,36
 381 384 381 384 403.5 436 c 128,-1,37
 426 488 426 488 426 547 c 1,38,-1
 452 547 l 1,39,-1
 452 189 l 1,40,-1
 426 189 l 1,41,42
 426 248 426 248 403.5 300 c 128,-1,43
 381 352 381 352 330 352 c 2,44,-1
 253 352 l 1,45,-1
 253 59 l 2,46,47
 253 32 253 32 280 32 c 2,48,-1
 440 32 l 2,49,50
 469 32 469 32 499 45 c 128,-1,51
 529 58 529 58 550 85 c 0,52,53
 570 113 570 113 583 155 c 128,-1,54
 596 197 596 197 601 231.5 c 128,-1,55
 606 266 606 266 607 276 c 1,56,-1
 632 276 l 1,57,-1
 620 0 l 1,58,-1
 62 0 l 1,59,-1
 62 32 l 1,12,-1
EndSplineSet
Validated: 1
EndChar

StartChar: Egrave
Encoding: 137 200 64
Width: 690
GlyphClass: 1
Flags: W
LayerCount: 2
Fore
SplineSet
252 863 m 2,0,1
 224 884 224 884 224 907 c 0,2,3
 224 921 224 921 231.5 929.5 c 128,-1,4
 239 938 239 938 252 938 c 0,5,6
 266 938 266 938 277 931 c 128,-1,7
 288 924 288 924 301 906 c 2,8,-1
 393 773 l 1,9,-1
 380 762 l 1,10,-1
 252 863 l 2,0,1
62 32 m 1,11,-1
 134 32 l 2,12,13
 161 32 161 32 161 59 c 2,14,-1
 161 653 l 2,15,16
 161 667 161 667 154.5 673.5 c 128,-1,17
 148 680 148 680 134 680 c 2,18,-1
 62 680 l 1,19,-1
 62 712 l 1,20,-1
 620 712 l 1,21,-1
 624 462 l 1,22,-1
 599 462 l 1,23,24
 599 482 599 482 590.5 530 c 128,-1,25
 582 578 582 578 557 616 c 0,26,27
 515 680 515 680 439 680 c 2,28,-1
 280 680 l 2,29,30
 266 680 266 680 259.5 673.5 c 128,-1,31
 253 667 253 667 253 653 c 2,32,-1
 253 384 l 1,33,-1
 330 384 l 2,34,35
 381 384 381 384 403.5 436 c 128,-1,36
 426 488 426 488 426 547 c 1,37,-1
 452 547 l 1,38,-1
 452 189 l 1,39,-1
 426 189 l 1,40,41
 426 248 426 248 403.5 300 c 128,-1,42
 381 352 381 352 330 352 c 2,43,-1
 253 352 l 1,44,-1
 253 59 l 2,45,46
 253 32 253 32 280 32 c 2,47,-1
 440 32 l 2,48,49
 469 32 469 32 499 45 c 128,-1,50
 529 58 529 58 550 85 c 0,51,52
 570 113 570 113 583 155 c 128,-1,53
 596 197 596 197 601 231.5 c 128,-1,54
 606 266 606 266 607 276 c 1,55,-1
 632 276 l 1,56,-1
 620 0 l 1,57,-1
 62 0 l 1,58,-1
 62 32 l 1,11,-1
EndSplineSet
Validated: 1
EndChar

StartChar: uni0206
Encoding: 349 518 66
Width: 690
GlyphClass: 1
Flags: W
LayerCount: 2
Fore
SplineSet
221 770 m 1,0,1
 228 801 228 801 250 836.5 c 128,-1,2
 272 872 272 872 303 896 c 128,-1,3
 334 920 334 920 368 920 c 256,4,5
 402 920 402 920 433 896 c 128,-1,6
 464 872 464 872 486 836.5 c 128,-1,7
 508 801 508 801 515 770 c 1,8,-1
 495 762 l 1,9,10
 474 807 474 807 441 835.5 c 128,-1,11
 408 864 408 864 368 864 c 256,12,13
 328 864 328 864 295 835.5 c 128,-1,14
 262 807 262 807 241 762 c 1,15,-1
 221 770 l 1,0,1
62 32 m 1,16,-1
 134 32 l 2,17,18
 161 32 161 32 161 59 c 2,19,-1
 161 653 l 2,20,21
 161 667 161 667 154.5 673.5 c 128,-1,22
 148 680 148 680 134 680 c 2,23,-1
 62 680 l 1,24,-1
 62 712 l 1,25,-1
 620 712 l 1,26,-1
 624 462 l 1,27,-1
 599 462 l 1,28,29
 599 482 599 482 590.5 530 c 128,-1,30
 582 578 582 578 557 616 c 0,31,32
 515 680 515 680 439 680 c 2,33,-1
 280 680 l 2,34,35
 266 680 266 680 259.5 673.5 c 128,-1,36
 253 667 253 667 253 653 c 2,37,-1
 253 384 l 1,38,-1
 330 384 l 2,39,40
 381 384 381 384 403.5 436 c 128,-1,41
 426 488 426 488 426 547 c 1,42,-1
 452 547 l 1,43,-1
 452 189 l 1,44,-1
 426 189 l 1,45,46
 426 248 426 248 403.5 300 c 128,-1,47
 381 352 381 352 330 352 c 2,48,-1
 253 352 l 1,49,-1
 253 59 l 2,50,51
 253 32 253 32 280 32 c 2,52,-1
 440 32 l 2,53,54
 469 32 469 32 499 45 c 128,-1,55
 529 58 529 58 550 85 c 0,56,57
 570 113 570 113 583 155 c 128,-1,58
 596 197 596 197 601 231.5 c 128,-1,59
 606 266 606 266 607 276 c 1,60,-1
 632 276 l 1,61,-1
 620 0 l 1,62,-1
 62 0 l 1,63,-1
 62 32 l 1,16,-1
EndSplineSet
Validated: 1
EndChar

StartChar: Emacron
Encoding: 211 274 67
Width: 690
GlyphClass: 1
Flags: W
LayerCount: 2
Fore
SplineSet
232 822 m 1,0,-1
 232 862 l 1,1,-1
 504 862 l 1,2,-1
 504 822 l 1,3,-1
 232 822 l 1,0,-1
62 32 m 1,4,-1
 134 32 l 2,5,6
 161 32 161 32 161 59 c 2,7,-1
 161 653 l 2,8,9
 161 667 161 667 154.5 673.5 c 128,-1,10
 148 680 148 680 134 680 c 2,11,-1
 62 680 l 1,12,-1
 62 712 l 1,13,-1
 620 712 l 1,14,-1
 624 462 l 1,15,-1
 599 462 l 1,16,17
 599 482 599 482 590.5 530 c 128,-1,18
 582 578 582 578 557 616 c 0,19,20
 515 680 515 680 439 680 c 2,21,-1
 280 680 l 2,22,23
 266 680 266 680 259.5 673.5 c 128,-1,24
 253 667 253 667 253 653 c 2,25,-1
 253 384 l 1,26,-1
 330 384 l 2,27,28
 381 384 381 384 403.5 436 c 128,-1,29
 426 488 426 488 426 547 c 1,30,-1
 452 547 l 1,31,-1
 452 189 l 1,32,-1
 426 189 l 1,33,34
 426 248 426 248 403.5 300 c 128,-1,35
 381 352 381 352 330 352 c 2,36,-1
 253 352 l 1,37,-1
 253 59 l 2,38,39
 253 32 253 32 280 32 c 2,40,-1
 440 32 l 2,41,42
 469 32 469 32 499 45 c 128,-1,43
 529 58 529 58 550 85 c 0,44,45
 570 113 570 113 583 155 c 128,-1,46
 596 197 596 197 601 231.5 c 128,-1,47
 606 266 606 266 607 276 c 1,48,-1
 632 276 l 1,49,-1
 620 0 l 1,50,-1
 62 0 l 1,51,-1
 62 32 l 1,4,-1
EndSplineSet
Validated: 1
EndChar

StartChar: uni1E16
Encoding: 639 7702 68
Width: 690
GlyphClass: 1
Flags: W
LayerCount: 2
Fore
SplineSet
328 840 m 1,0,-1
 439 931 l 2,1,2
 465 952 465 952 484 952 c 0,3,4
 498 952 498 952 507 941.5 c 128,-1,5
 516 931 516 931 516 918 c 0,6,7
 516 902 516 902 503 892.5 c 128,-1,8
 490 883 490 883 469 876 c 2,9,-1
 335 828 l 1,10,-1
 328 840 l 1,0,-1
232 776 m 1,11,-1
 232 812 l 1,12,-1
 504 812 l 1,13,-1
 504 776 l 1,14,-1
 232 776 l 1,11,-1
62 32 m 1,15,-1
 134 32 l 2,16,17
 161 32 161 32 161 59 c 2,18,-1
 161 653 l 2,19,20
 161 667 161 667 154.5 673.5 c 128,-1,21
 148 680 148 680 134 680 c 2,22,-1
 62 680 l 1,23,-1
 62 712 l 1,24,-1
 620 712 l 1,25,-1
 624 462 l 1,26,-1
 599 462 l 1,27,28
 599 482 599 482 590.5 530 c 128,-1,29
 582 578 582 578 557 616 c 0,30,31
 515 680 515 680 439 680 c 2,32,-1
 280 680 l 2,33,34
 266 680 266 680 259.5 673.5 c 128,-1,35
 253 667 253 667 253 653 c 2,36,-1
 253 384 l 1,37,-1
 330 384 l 2,38,39
 381 384 381 384 403.5 436 c 128,-1,40
 426 488 426 488 426 547 c 1,41,-1
 452 547 l 1,42,-1
 452 189 l 1,43,-1
 426 189 l 1,44,45
 426 248 426 248 403.5 300 c 128,-1,46
 381 352 381 352 330 352 c 2,47,-1
 253 352 l 1,48,-1
 253 59 l 2,49,50
 253 32 253 32 280 32 c 2,51,-1
 440 32 l 2,52,53
 469 32 469 32 499 45 c 128,-1,54
 529 58 529 58 550 85 c 0,55,56
 570 113 570 113 583 155 c 128,-1,57
 596 197 596 197 601 231.5 c 128,-1,58
 606 266 606 266 607 276 c 1,59,-1
 632 276 l 1,60,-1
 620 0 l 1,61,-1
 62 0 l 1,62,-1
 62 32 l 1,15,-1
EndSplineSet
Validated: 1
EndChar

StartChar: uni1E14
Encoding: 637 7700 69
Width: 690
GlyphClass: 1
Flags: W
LayerCount: 2
Fore
SplineSet
267 876 m 2,0,1
 246 883 246 883 233 892.5 c 128,-1,2
 220 902 220 902 220 918 c 0,3,4
 220 931 220 931 229 941.5 c 128,-1,5
 238 952 238 952 252 952 c 0,6,7
 271 952 271 952 297 931 c 2,8,-1
 408 840 l 1,9,-1
 401 828 l 1,10,-1
 267 876 l 2,0,1
232 776 m 1,11,-1
 232 812 l 1,12,-1
 504 812 l 1,13,-1
 504 776 l 1,14,-1
 232 776 l 1,11,-1
62 32 m 1,15,-1
 134 32 l 2,16,17
 161 32 161 32 161 59 c 2,18,-1
 161 653 l 2,19,20
 161 667 161 667 154.5 673.5 c 128,-1,21
 148 680 148 680 134 680 c 2,22,-1
 62 680 l 1,23,-1
 62 712 l 1,24,-1
 620 712 l 1,25,-1
 624 462 l 1,26,-1
 599 462 l 1,27,28
 599 482 599 482 590.5 530 c 128,-1,29
 582 578 582 578 557 616 c 0,30,31
 515 680 515 680 439 680 c 2,32,-1
 280 680 l 2,33,34
 266 680 266 680 259.5 673.5 c 128,-1,35
 253 667 253 667 253 653 c 2,36,-1
 253 384 l 1,37,-1
 330 384 l 2,38,39
 381 384 381 384 403.5 436 c 128,-1,40
 426 488 426 488 426 547 c 1,41,-1
 452 547 l 1,42,-1
 452 189 l 1,43,-1
 426 189 l 1,44,45
 426 248 426 248 403.5 300 c 128,-1,46
 381 352 381 352 330 352 c 2,47,-1
 253 352 l 1,48,-1
 253 59 l 2,49,50
 253 32 253 32 280 32 c 2,51,-1
 440 32 l 2,52,53
 469 32 469 32 499 45 c 128,-1,54
 529 58 529 58 550 85 c 0,55,56
 570 113 570 113 583 155 c 128,-1,57
 596 197 596 197 601 231.5 c 128,-1,58
 606 266 606 266 607 276 c 1,59,-1
 632 276 l 1,60,-1
 620 0 l 1,61,-1
 62 0 l 1,62,-1
 62 32 l 1,15,-1
EndSplineSet
Validated: 1
EndChar

StartChar: Eogonek
Encoding: 217 280 70
Width: 690
GlyphClass: 1
Flags: W
LayerCount: 2
Fore
SplineSet
389.5 -213.5 m 128,-1,1
 364 -189 364 -189 364 -148 c 0,2,3
 364 -105 364 -105 395.5 -68 c 128,-1,4
 427 -31 427 -31 476 -5 c 1,5,-1
 474 0 l 1,6,-1
 62 0 l 1,7,-1
 62 32 l 1,8,-1
 134 32 l 2,9,10
 161 32 161 32 161 59 c 2,11,-1
 161 653 l 2,12,13
 161 667 161 667 154.5 673.5 c 128,-1,14
 148 680 148 680 134 680 c 2,15,-1
 62 680 l 1,16,-1
 62 712 l 1,17,-1
 620 712 l 1,18,-1
 624 462 l 1,19,-1
 599 462 l 1,20,21
 599 482 599 482 590.5 530 c 128,-1,22
 582 578 582 578 557 616 c 0,23,24
 515 680 515 680 439 680 c 2,25,-1
 280 680 l 2,26,27
 266 680 266 680 259.5 673.5 c 128,-1,28
 253 667 253 667 253 653 c 2,29,-1
 253 384 l 1,30,-1
 330 384 l 2,31,32
 381 384 381 384 403.5 436 c 128,-1,33
 426 488 426 488 426 547 c 1,34,-1
 452 547 l 1,35,-1
 452 189 l 1,36,-1
 426 189 l 1,37,38
 426 248 426 248 403.5 300 c 128,-1,39
 381 352 381 352 330 352 c 2,40,-1
 253 352 l 1,41,-1
 253 59 l 2,42,43
 253 32 253 32 280 32 c 2,44,-1
 440 32 l 2,45,46
 469 32 469 32 499 45 c 128,-1,47
 529 58 529 58 550 85 c 0,48,49
 570 113 570 113 583 155 c 128,-1,50
 596 197 596 197 601 231.5 c 128,-1,51
 606 266 606 266 607 276 c 1,52,-1
 632 276 l 1,53,-1
 620 0 l 1,54,-1
 528 0 l 1,55,56
 486 -21 486 -21 459 -55.5 c 128,-1,57
 432 -90 432 -90 432 -135 c 0,58,59
 432 -160 432 -160 446 -177 c 128,-1,60
 460 -194 460 -194 484 -194 c 0,61,62
 506 -194 506 -194 519.5 -187.5 c 128,-1,63
 533 -181 533 -181 546 -167 c 1,64,-1
 558 -176 l 1,65,66
 545 -201 545 -201 520 -219.5 c 128,-1,67
 495 -238 495 -238 459 -238 c 0,68,0
 415 -238 415 -238 389.5 -213.5 c 128,-1,1
EndSplineSet
Validated: 1
EndChar

StartChar: F
Encoding: 40 70 72
Width: 676
GlyphClass: 1
Flags: W
LayerCount: 2
Fore
SplineSet
62 32 m 1,0,-1
 134 32 l 2,1,2
 161 32 161 32 161 59 c 2,3,-1
 161 653 l 2,4,5
 161 667 161 667 154.5 673.5 c 128,-1,6
 148 680 148 680 134 680 c 2,7,-1
 62 680 l 1,8,-1
 62 712 l 1,9,-1
 620 712 l 1,10,-1
 624 462 l 1,11,-1
 599 462 l 1,12,13
 599 482 599 482 590.5 530 c 128,-1,14
 582 578 582 578 557 616 c 0,15,16
 515 680 515 680 439 680 c 2,17,-1
 280 680 l 2,18,19
 266 680 266 680 259.5 673.5 c 128,-1,20
 253 667 253 667 253 653 c 2,21,-1
 253 384 l 1,22,-1
 330 384 l 2,23,24
 381 384 381 384 403.5 438.5 c 128,-1,25
 426 493 426 493 426 553 c 1,26,-1
 452 553 l 1,27,-1
 452 183 l 1,28,-1
 426 183 l 1,29,30
 426 243 426 243 403.5 297.5 c 128,-1,31
 381 352 381 352 330 352 c 2,32,-1
 253 352 l 1,33,-1
 253 65 l 2,34,35
 253 50 253 50 259.5 41 c 128,-1,36
 266 32 266 32 280 32 c 2,37,-1
 368 32 l 1,38,-1
 368 0 l 1,39,-1
 62 0 l 1,40,-1
 62 32 l 1,0,-1
EndSplineSet
Validated: 1
EndChar

StartChar: G
Encoding: 41 71 73
Width: 720
GlyphClass: 1
Flags: W
LayerCount: 2
Fore
SplineSet
200.5 32.5 m 128,-1,1
 137 83 137 83 103.5 169.5 c 128,-1,2
 70 256 70 256 70 362 c 0,3,4
 70 463 70 463 104 547 c 128,-1,5
 138 631 138 631 201 680.5 c 128,-1,6
 264 730 264 730 348 730 c 0,7,8
 392 730 392 730 431 710 c 128,-1,9
 470 690 470 690 495 667 c 0,10,11
 519 645 519 645 527 645 c 256,12,13
 535 645 535 645 538.5 650 c 128,-1,14
 542 655 542 655 546 666 c 2,15,-1
 565 722 l 1,16,-1
 590 722 l 1,17,-1
 594 412 l 1,18,-1
 566 412 l 1,19,20
 544 507 544 507 509 571.5 c 128,-1,21
 474 636 474 636 432.5 667 c 128,-1,22
 391 698 391 698 350 698 c 0,23,24
 281 698 281 698 243 656.5 c 128,-1,25
 205 615 205 615 190.5 541 c 128,-1,26
 176 467 176 467 176 356 c 256,27,28
 176 245 176 245 190.5 171 c 128,-1,29
 205 97 205 97 243 55.5 c 128,-1,30
 281 14 281 14 350 14 c 0,31,32
 387 14 387 14 421 40.5 c 128,-1,33
 455 67 455 67 476.5 108 c 128,-1,34
 498 149 498 149 498 189 c 2,35,-1
 498 279 l 2,36,37
 498 293 498 293 491.5 299.5 c 128,-1,38
 485 306 485 306 471 306 c 2,39,-1
 360 306 l 1,40,-1
 360 338 l 1,41,-1
 690 338 l 1,42,-1
 690 306 l 1,43,-1
 617 306 l 2,44,45
 603 306 603 306 596.5 299.5 c 128,-1,46
 590 293 590 293 590 279 c 2,47,-1
 590 -13 l 1,48,-1
 558 -13 l 1,49,-1
 558 78 l 2,50,51
 558 95 558 95 554 103.5 c 128,-1,52
 550 112 550 112 541 112 c 0,53,54
 530 112 530 112 522 104 c 128,-1,55
 514 96 514 96 506 82 c 0,56,57
 483 45 483 45 441 13.5 c 128,-1,58
 399 -18 399 -18 350 -18 c 0,59,0
 264 -18 264 -18 200.5 32.5 c 128,-1,1
EndSplineSet
Validated: 1
EndChar

StartChar: Gbreve
Encoding: 223 286 74
Width: 720
GlyphClass: 1
Flags: W
LayerCount: 2
Fore
SplineSet
264.5 786.5 m 128,-1,1
 230 811 230 811 213.5 847 c 128,-1,2
 197 883 197 883 197 916 c 1,3,-1
 225 916 l 1,4,5
 234 874 234 874 265.5 841 c 128,-1,6
 297 808 297 808 348 808 c 256,7,8
 399 808 399 808 430.5 841 c 128,-1,9
 462 874 462 874 471 916 c 1,10,-1
 499 916 l 1,11,12
 499 883 499 883 482.5 847 c 128,-1,13
 466 811 466 811 431.5 786.5 c 128,-1,14
 397 762 397 762 348 762 c 256,15,0
 299 762 299 762 264.5 786.5 c 128,-1,1
200.5 32.5 m 128,-1,17
 137 83 137 83 103.5 169.5 c 128,-1,18
 70 256 70 256 70 362 c 0,19,20
 70 463 70 463 104 547 c 128,-1,21
 138 631 138 631 201 680.5 c 128,-1,22
 264 730 264 730 348 730 c 0,23,24
 392 730 392 730 431 710 c 128,-1,25
 470 690 470 690 495 667 c 0,26,27
 519 645 519 645 527 645 c 256,28,29
 535 645 535 645 538.5 650 c 128,-1,30
 542 655 542 655 546 666 c 2,31,-1
 565 722 l 1,32,-1
 590 722 l 1,33,-1
 594 412 l 1,34,-1
 566 412 l 1,35,36
 544 507 544 507 509 571.5 c 128,-1,37
 474 636 474 636 432.5 667 c 128,-1,38
 391 698 391 698 350 698 c 0,39,40
 281 698 281 698 243 656.5 c 128,-1,41
 205 615 205 615 190.5 541 c 128,-1,42
 176 467 176 467 176 356 c 256,43,44
 176 245 176 245 190.5 171 c 128,-1,45
 205 97 205 97 243 55.5 c 128,-1,46
 281 14 281 14 350 14 c 0,47,48
 387 14 387 14 421 40.5 c 128,-1,49
 455 67 455 67 476.5 108 c 128,-1,50
 498 149 498 149 498 189 c 2,51,-1
 498 279 l 2,52,53
 498 293 498 293 491.5 299.5 c 128,-1,54
 485 306 485 306 471 306 c 2,55,-1
 360 306 l 1,56,-1
 360 338 l 1,57,-1
 690 338 l 1,58,-1
 690 306 l 1,59,-1
 617 306 l 2,60,61
 603 306 603 306 596.5 299.5 c 128,-1,62
 590 293 590 293 590 279 c 2,63,-1
 590 -13 l 1,64,-1
 558 -13 l 1,65,-1
 558 78 l 2,66,67
 558 95 558 95 554 103.5 c 128,-1,68
 550 112 550 112 541 112 c 0,69,70
 530 112 530 112 522 104 c 128,-1,71
 514 96 514 96 506 82 c 0,72,73
 483 45 483 45 441 13.5 c 128,-1,74
 399 -18 399 -18 350 -18 c 0,75,16
 264 -18 264 -18 200.5 32.5 c 128,-1,17
EndSplineSet
Validated: 1
EndChar

StartChar: Gcircumflex
Encoding: 221 284 75
Width: 720
GlyphClass: 1
Flags: W
LayerCount: 2
Fore
SplineSet
190 778 m 1,0,1
 281 830 281 830 328 920 c 1,2,-1
 368 920 l 1,3,4
 415 830 415 830 506 778 c 1,5,-1
 496 762 l 1,6,7
 470 771 470 771 424.5 800.5 c 128,-1,8
 379 830 379 830 348 858 c 1,9,10
 317 830 317 830 271.5 800.5 c 128,-1,11
 226 771 226 771 200 762 c 1,12,-1
 190 778 l 1,0,1
200.5 32.5 m 128,-1,14
 137 83 137 83 103.5 169.5 c 128,-1,15
 70 256 70 256 70 362 c 0,16,17
 70 463 70 463 104 547 c 128,-1,18
 138 631 138 631 201 680.5 c 128,-1,19
 264 730 264 730 348 730 c 0,20,21
 392 730 392 730 431 710 c 128,-1,22
 470 690 470 690 495 667 c 0,23,24
 519 645 519 645 527 645 c 256,25,26
 535 645 535 645 538.5 650 c 128,-1,27
 542 655 542 655 546 666 c 2,28,-1
 565 722 l 1,29,-1
 590 722 l 1,30,-1
 594 412 l 1,31,-1
 566 412 l 1,32,33
 544 507 544 507 509 571.5 c 128,-1,34
 474 636 474 636 432.5 667 c 128,-1,35
 391 698 391 698 350 698 c 0,36,37
 281 698 281 698 243 656.5 c 128,-1,38
 205 615 205 615 190.5 541 c 128,-1,39
 176 467 176 467 176 356 c 256,40,41
 176 245 176 245 190.5 171 c 128,-1,42
 205 97 205 97 243 55.5 c 128,-1,43
 281 14 281 14 350 14 c 0,44,45
 387 14 387 14 421 40.5 c 128,-1,46
 455 67 455 67 476.5 108 c 128,-1,47
 498 149 498 149 498 189 c 2,48,-1
 498 279 l 2,49,50
 498 293 498 293 491.5 299.5 c 128,-1,51
 485 306 485 306 471 306 c 2,52,-1
 360 306 l 1,53,-1
 360 338 l 1,54,-1
 690 338 l 1,55,-1
 690 306 l 1,56,-1
 617 306 l 2,57,58
 603 306 603 306 596.5 299.5 c 128,-1,59
 590 293 590 293 590 279 c 2,60,-1
 590 -13 l 1,61,-1
 558 -13 l 1,62,-1
 558 78 l 2,63,64
 558 95 558 95 554 103.5 c 128,-1,65
 550 112 550 112 541 112 c 0,66,67
 530 112 530 112 522 104 c 128,-1,68
 514 96 514 96 506 82 c 0,69,70
 483 45 483 45 441 13.5 c 128,-1,71
 399 -18 399 -18 350 -18 c 0,72,13
 264 -18 264 -18 200.5 32.5 c 128,-1,14
EndSplineSet
Validated: 1
EndChar

StartChar: Gcommaaccent
Encoding: 227 290 76
Width: 720
GlyphClass: 1
Flags: W
LayerCount: 2
Fore
SplineSet
200.5 32.5 m 128,-1,1
 137 83 137 83 103.5 169.5 c 128,-1,2
 70 256 70 256 70 362 c 0,3,4
 70 463 70 463 104 547 c 128,-1,5
 138 631 138 631 201 680.5 c 128,-1,6
 264 730 264 730 348 730 c 0,7,8
 392 730 392 730 431 710 c 128,-1,9
 470 690 470 690 495 667 c 0,10,11
 519 645 519 645 527 645 c 256,12,13
 535 645 535 645 538.5 650 c 128,-1,14
 542 655 542 655 546 666 c 2,15,-1
 565 722 l 1,16,-1
 590 722 l 1,17,-1
 594 412 l 1,18,-1
 566 412 l 1,19,20
 544 507 544 507 509 571.5 c 128,-1,21
 474 636 474 636 432.5 667 c 128,-1,22
 391 698 391 698 350 698 c 0,23,24
 281 698 281 698 243 656.5 c 128,-1,25
 205 615 205 615 190.5 541 c 128,-1,26
 176 467 176 467 176 356 c 256,27,28
 176 245 176 245 190.5 171 c 128,-1,29
 205 97 205 97 243 55.5 c 128,-1,30
 281 14 281 14 350 14 c 0,31,32
 387 14 387 14 421 40.5 c 128,-1,33
 455 67 455 67 476.5 108 c 128,-1,34
 498 149 498 149 498 189 c 2,35,-1
 498 279 l 2,36,37
 498 293 498 293 491.5 299.5 c 128,-1,38
 485 306 485 306 471 306 c 2,39,-1
 360 306 l 1,40,-1
 360 338 l 1,41,-1
 690 338 l 1,42,-1
 690 306 l 1,43,-1
 617 306 l 2,44,45
 603 306 603 306 596.5 299.5 c 128,-1,46
 590 293 590 293 590 279 c 2,47,-1
 590 -13 l 1,48,-1
 558 -13 l 1,49,-1
 558 78 l 2,50,51
 558 95 558 95 554 103.5 c 128,-1,52
 550 112 550 112 541 112 c 0,53,54
 530 112 530 112 522 104 c 128,-1,55
 514 96 514 96 506 82 c 0,56,57
 483 45 483 45 441 13.5 c 128,-1,58
 399 -18 399 -18 350 -18 c 0,59,0
 264 -18 264 -18 200.5 32.5 c 128,-1,1
308 -227 m 1,60,61
 334 -215 334 -215 353.5 -193.5 c 128,-1,62
 373 -172 373 -172 373 -152 c 0,63,64
 373 -136 373 -136 365 -130 c 0,65,66
 359 -126 359 -126 341 -126 c 0,67,68
 325 -126 325 -126 315.5 -113 c 128,-1,69
 306 -100 306 -100 306 -85 c 0,70,71
 306 -64 306 -64 319.5 -52 c 128,-1,72
 333 -40 333 -40 353 -40 c 0,73,74
 379 -40 379 -40 394.5 -59 c 128,-1,75
 410 -78 410 -78 410 -106 c 0,76,77
 410 -149 410 -149 382.5 -186 c 128,-1,78
 355 -223 355 -223 318 -238 c 1,79,-1
 308 -227 l 1,60,61
EndSplineSet
Validated: 1
EndChar

StartChar: Gdotaccent
Encoding: 225 288 77
Width: 720
GlyphClass: 1
Flags: W
LayerCount: 2
Fore
SplineSet
311 813 m 128,-1,1
 296 828 296 828 296 850 c 0,2,3
 296 873 296 873 311 887.5 c 128,-1,4
 326 902 326 902 348 902 c 0,5,6
 371 902 371 902 385.5 887.5 c 128,-1,7
 400 873 400 873 400 850 c 0,8,9
 400 828 400 828 385.5 813 c 128,-1,10
 371 798 371 798 348 798 c 0,11,0
 326 798 326 798 311 813 c 128,-1,1
200.5 32.5 m 128,-1,13
 137 83 137 83 103.5 169.5 c 128,-1,14
 70 256 70 256 70 362 c 0,15,16
 70 463 70 463 104 547 c 128,-1,17
 138 631 138 631 201 680.5 c 128,-1,18
 264 730 264 730 348 730 c 0,19,20
 392 730 392 730 431 710 c 128,-1,21
 470 690 470 690 495 667 c 0,22,23
 519 645 519 645 527 645 c 256,24,25
 535 645 535 645 538.5 650 c 128,-1,26
 542 655 542 655 546 666 c 2,27,-1
 565 722 l 1,28,-1
 590 722 l 1,29,-1
 594 412 l 1,30,-1
 566 412 l 1,31,32
 544 507 544 507 509 571.5 c 128,-1,33
 474 636 474 636 432.5 667 c 128,-1,34
 391 698 391 698 350 698 c 0,35,36
 281 698 281 698 243 656.5 c 128,-1,37
 205 615 205 615 190.5 541 c 128,-1,38
 176 467 176 467 176 356 c 256,39,40
 176 245 176 245 190.5 171 c 128,-1,41
 205 97 205 97 243 55.5 c 128,-1,42
 281 14 281 14 350 14 c 0,43,44
 387 14 387 14 421 40.5 c 128,-1,45
 455 67 455 67 476.5 108 c 128,-1,46
 498 149 498 149 498 189 c 2,47,-1
 498 279 l 2,48,49
 498 293 498 293 491.5 299.5 c 128,-1,50
 485 306 485 306 471 306 c 2,51,-1
 360 306 l 1,52,-1
 360 338 l 1,53,-1
 690 338 l 1,54,-1
 690 306 l 1,55,-1
 617 306 l 2,56,57
 603 306 603 306 596.5 299.5 c 128,-1,58
 590 293 590 293 590 279 c 2,59,-1
 590 -13 l 1,60,-1
 558 -13 l 1,61,-1
 558 78 l 2,62,63
 558 95 558 95 554 103.5 c 128,-1,64
 550 112 550 112 541 112 c 0,65,66
 530 112 530 112 522 104 c 128,-1,67
 514 96 514 96 506 82 c 0,68,69
 483 45 483 45 441 13.5 c 128,-1,70
 399 -18 399 -18 350 -18 c 0,71,12
 264 -18 264 -18 200.5 32.5 c 128,-1,13
EndSplineSet
Validated: 1
EndChar

StartChar: uni1E20
Encoding: 643 7712 78
Width: 720
GlyphClass: 1
Flags: W
LayerCount: 2
Fore
SplineSet
212 822 m 1,0,-1
 212 862 l 1,1,-1
 484 862 l 1,2,-1
 484 822 l 1,3,-1
 212 822 l 1,0,-1
200.5 32.5 m 128,-1,5
 137 83 137 83 103.5 169.5 c 128,-1,6
 70 256 70 256 70 362 c 0,7,8
 70 463 70 463 104 547 c 128,-1,9
 138 631 138 631 201 680.5 c 128,-1,10
 264 730 264 730 348 730 c 0,11,12
 392 730 392 730 431 710 c 128,-1,13
 470 690 470 690 495 667 c 0,14,15
 519 645 519 645 527 645 c 256,16,17
 535 645 535 645 538.5 650 c 128,-1,18
 542 655 542 655 546 666 c 2,19,-1
 565 722 l 1,20,-1
 590 722 l 1,21,-1
 594 412 l 1,22,-1
 566 412 l 1,23,24
 544 507 544 507 509 571.5 c 128,-1,25
 474 636 474 636 432.5 667 c 128,-1,26
 391 698 391 698 350 698 c 0,27,28
 281 698 281 698 243 656.5 c 128,-1,29
 205 615 205 615 190.5 541 c 128,-1,30
 176 467 176 467 176 356 c 256,31,32
 176 245 176 245 190.5 171 c 128,-1,33
 205 97 205 97 243 55.5 c 128,-1,34
 281 14 281 14 350 14 c 0,35,36
 387 14 387 14 421 40.5 c 128,-1,37
 455 67 455 67 476.5 108 c 128,-1,38
 498 149 498 149 498 189 c 2,39,-1
 498 279 l 2,40,41
 498 293 498 293 491.5 299.5 c 128,-1,42
 485 306 485 306 471 306 c 2,43,-1
 360 306 l 1,44,-1
 360 338 l 1,45,-1
 690 338 l 1,46,-1
 690 306 l 1,47,-1
 617 306 l 2,48,49
 603 306 603 306 596.5 299.5 c 128,-1,50
 590 293 590 293 590 279 c 2,51,-1
 590 -13 l 1,52,-1
 558 -13 l 1,53,-1
 558 78 l 2,54,55
 558 95 558 95 554 103.5 c 128,-1,56
 550 112 550 112 541 112 c 0,57,58
 530 112 530 112 522 104 c 128,-1,59
 514 96 514 96 506 82 c 0,60,61
 483 45 483 45 441 13.5 c 128,-1,62
 399 -18 399 -18 350 -18 c 0,63,4
 264 -18 264 -18 200.5 32.5 c 128,-1,5
EndSplineSet
Validated: 1
EndChar

StartChar: H
Encoding: 42 72 79
Width: 788
GlyphClass: 1
Flags: W
LayerCount: 2
Fore
SplineSet
62 32 m 1,0,-1
 134 32 l 2,1,2
 161 32 161 32 161 59 c 2,3,-1
 161 653 l 2,4,5
 161 680 161 680 134 680 c 2,6,-1
 62 680 l 1,7,-1
 62 712 l 1,8,-1
 352 712 l 1,9,-1
 352 680 l 1,10,-1
 280 680 l 2,11,12
 253 680 253 680 253 653 c 2,13,-1
 253 390 l 1,14,-1
 555 390 l 1,15,-1
 555 653 l 2,16,17
 555 680 555 680 528 680 c 2,18,-1
 456 680 l 1,19,-1
 456 712 l 1,20,-1
 746 712 l 1,21,-1
 746 680 l 1,22,-1
 674 680 l 2,23,24
 647 680 647 680 647 653 c 2,25,-1
 647 59 l 2,26,27
 647 32 647 32 674 32 c 2,28,-1
 746 32 l 1,29,-1
 746 0 l 1,30,-1
 456 0 l 1,31,-1
 456 32 l 1,32,-1
 528 32 l 2,33,34
 555 32 555 32 555 59 c 2,35,-1
 555 358 l 1,36,-1
 253 358 l 1,37,-1
 253 59 l 2,38,39
 253 32 253 32 280 32 c 2,40,-1
 352 32 l 1,41,-1
 352 0 l 1,42,-1
 62 0 l 1,43,-1
 62 32 l 1,0,-1
EndSplineSet
Validated: 1
EndChar

StartChar: Hbar
Encoding: 231 294 80
Width: 804
GlyphClass: 1
Flags: W
LayerCount: 2
Fore
SplineSet
70 32 m 1,0,-1
 142 32 l 2,1,2
 169 32 169 32 169 59 c 2,3,-1
 169 508 l 1,4,-1
 56 508 l 1,5,-1
 56 544 l 1,6,-1
 169 544 l 1,7,-1
 169 653 l 2,8,9
 169 680 169 680 142 680 c 2,10,-1
 70 680 l 1,11,-1
 70 712 l 1,12,-1
 360 712 l 1,13,-1
 360 680 l 1,14,-1
 288 680 l 2,15,16
 261 680 261 680 261 653 c 2,17,-1
 261 544 l 1,18,-1
 563 544 l 1,19,-1
 563 653 l 2,20,21
 563 680 563 680 536 680 c 2,22,-1
 464 680 l 1,23,-1
 464 712 l 1,24,-1
 754 712 l 1,25,-1
 754 680 l 1,26,-1
 682 680 l 2,27,28
 655 680 655 680 655 653 c 2,29,-1
 655 544 l 1,30,-1
 768 544 l 1,31,-1
 768 508 l 1,32,-1
 655 508 l 1,33,-1
 655 59 l 2,34,35
 655 32 655 32 682 32 c 2,36,-1
 754 32 l 1,37,-1
 754 0 l 1,38,-1
 464 0 l 1,39,-1
 464 32 l 1,40,-1
 536 32 l 2,41,42
 563 32 563 32 563 59 c 2,43,-1
 563 358 l 1,44,-1
 261 358 l 1,45,-1
 261 59 l 2,46,47
 261 32 261 32 288 32 c 2,48,-1
 360 32 l 1,49,-1
 360 0 l 1,50,-1
 70 0 l 1,51,-1
 70 32 l 1,0,-1
261 390 m 1,52,-1
 563 390 l 1,53,-1
 563 508 l 1,54,-1
 261 508 l 1,55,-1
 261 390 l 1,52,-1
EndSplineSet
Validated: 1
EndChar

StartChar: uni1E2A
Encoding: 647 7722 81
Width: 788
GlyphClass: 1
Flags: W
LayerCount: 2
Fore
SplineSet
62 32 m 1,0,-1
 134 32 l 2,1,2
 161 32 161 32 161 59 c 2,3,-1
 161 653 l 2,4,5
 161 680 161 680 134 680 c 2,6,-1
 62 680 l 1,7,-1
 62 712 l 1,8,-1
 352 712 l 1,9,-1
 352 680 l 1,10,-1
 280 680 l 2,11,12
 253 680 253 680 253 653 c 2,13,-1
 253 390 l 1,14,-1
 555 390 l 1,15,-1
 555 653 l 2,16,17
 555 680 555 680 528 680 c 2,18,-1
 456 680 l 1,19,-1
 456 712 l 1,20,-1
 746 712 l 1,21,-1
 746 680 l 1,22,-1
 674 680 l 2,23,24
 647 680 647 680 647 653 c 2,25,-1
 647 59 l 2,26,27
 647 32 647 32 674 32 c 2,28,-1
 746 32 l 1,29,-1
 746 0 l 1,30,-1
 456 0 l 1,31,-1
 456 32 l 1,32,-1
 528 32 l 2,33,34
 555 32 555 32 555 59 c 2,35,-1
 555 358 l 1,36,-1
 253 358 l 1,37,-1
 253 59 l 2,38,39
 253 32 253 32 280 32 c 2,40,-1
 352 32 l 1,41,-1
 352 0 l 1,42,-1
 62 0 l 1,43,-1
 62 32 l 1,0,-1
328.5 -189.5 m 128,-1,45
 297 -166 297 -166 281.5 -133 c 128,-1,46
 266 -100 266 -100 266 -73 c 1,47,-1
 288 -73 l 1,48,49
 294 -113 294 -113 321.5 -143 c 128,-1,50
 349 -173 349 -173 404 -173 c 256,51,52
 459 -173 459 -173 486.5 -143 c 128,-1,53
 514 -113 514 -113 520 -73 c 1,54,-1
 542 -73 l 1,55,56
 542 -100 542 -100 526.5 -133 c 128,-1,57
 511 -166 511 -166 479.5 -189.5 c 128,-1,58
 448 -213 448 -213 404 -213 c 256,59,44
 360 -213 360 -213 328.5 -189.5 c 128,-1,45
EndSplineSet
Validated: 1
EndChar

StartChar: Hcircumflex
Encoding: 229 292 82
Width: 788
GlyphClass: 1
Flags: W
LayerCount: 2
Fore
SplineSet
246 778 m 1,0,1
 337 830 337 830 384 920 c 1,2,-1
 424 920 l 1,3,4
 471 830 471 830 562 778 c 1,5,-1
 552 762 l 1,6,7
 526 771 526 771 480.5 800.5 c 128,-1,8
 435 830 435 830 404 858 c 1,9,10
 373 830 373 830 327.5 800.5 c 128,-1,11
 282 771 282 771 256 762 c 1,12,-1
 246 778 l 1,0,1
62 32 m 1,13,-1
 134 32 l 2,14,15
 161 32 161 32 161 59 c 2,16,-1
 161 653 l 2,17,18
 161 680 161 680 134 680 c 2,19,-1
 62 680 l 1,20,-1
 62 712 l 1,21,-1
 352 712 l 1,22,-1
 352 680 l 1,23,-1
 280 680 l 2,24,25
 253 680 253 680 253 653 c 2,26,-1
 253 390 l 1,27,-1
 555 390 l 1,28,-1
 555 653 l 2,29,30
 555 680 555 680 528 680 c 2,31,-1
 456 680 l 1,32,-1
 456 712 l 1,33,-1
 746 712 l 1,34,-1
 746 680 l 1,35,-1
 674 680 l 2,36,37
 647 680 647 680 647 653 c 2,38,-1
 647 59 l 2,39,40
 647 32 647 32 674 32 c 2,41,-1
 746 32 l 1,42,-1
 746 0 l 1,43,-1
 456 0 l 1,44,-1
 456 32 l 1,45,-1
 528 32 l 2,46,47
 555 32 555 32 555 59 c 2,48,-1
 555 358 l 1,49,-1
 253 358 l 1,50,-1
 253 59 l 2,51,52
 253 32 253 32 280 32 c 2,53,-1
 352 32 l 1,54,-1
 352 0 l 1,55,-1
 62 0 l 1,56,-1
 62 32 l 1,13,-1
EndSplineSet
Validated: 1
EndChar

StartChar: uni1E24
Encoding: 645 7716 83
Width: 788
GlyphClass: 1
Flags: W
LayerCount: 2
Fore
SplineSet
62 32 m 1,0,-1
 134 32 l 2,1,2
 161 32 161 32 161 59 c 2,3,-1
 161 653 l 2,4,5
 161 680 161 680 134 680 c 2,6,-1
 62 680 l 1,7,-1
 62 712 l 1,8,-1
 352 712 l 1,9,-1
 352 680 l 1,10,-1
 280 680 l 2,11,12
 253 680 253 680 253 653 c 2,13,-1
 253 390 l 1,14,-1
 555 390 l 1,15,-1
 555 653 l 2,16,17
 555 680 555 680 528 680 c 2,18,-1
 456 680 l 1,19,-1
 456 712 l 1,20,-1
 746 712 l 1,21,-1
 746 680 l 1,22,-1
 674 680 l 2,23,24
 647 680 647 680 647 653 c 2,25,-1
 647 59 l 2,26,27
 647 32 647 32 674 32 c 2,28,-1
 746 32 l 1,29,-1
 746 0 l 1,30,-1
 456 0 l 1,31,-1
 456 32 l 1,32,-1
 528 32 l 2,33,34
 555 32 555 32 555 59 c 2,35,-1
 555 358 l 1,36,-1
 253 358 l 1,37,-1
 253 59 l 2,38,39
 253 32 253 32 280 32 c 2,40,-1
 352 32 l 1,41,-1
 352 0 l 1,42,-1
 62 0 l 1,43,-1
 62 32 l 1,0,-1
367 -179.5 m 128,-1,45
 352 -165 352 -165 352 -142 c 0,46,47
 352 -120 352 -120 367 -105 c 128,-1,48
 382 -90 382 -90 404 -90 c 0,49,50
 427 -90 427 -90 441.5 -105 c 128,-1,51
 456 -120 456 -120 456 -142 c 0,52,53
 456 -165 456 -165 441.5 -179.5 c 128,-1,54
 427 -194 427 -194 404 -194 c 0,55,44
 382 -194 382 -194 367 -179.5 c 128,-1,45
EndSplineSet
Validated: 1
EndChar

StartChar: I
Encoding: 43 73 84
Width: 394
GlyphClass: 2
Flags: W
AnchorPoint: "Anchor-9" 0 0 basechar 0
AnchorPoint: "Anchor-8" 0 0 basechar 0
AnchorPoint: "Anchor-7" 197 712 basechar 0
AnchorPoint: "Anchor-6" 355 10 basechar 0
AnchorPoint: "Anchor-5" 197 0 basechar 0
LayerCount: 2
Fore
SplineSet
62 32 m 1,0,-1
 134 32 l 2,1,2
 161 32 161 32 161 59 c 2,3,-1
 161 653 l 2,4,5
 161 667 161 667 154.5 673.5 c 128,-1,6
 148 680 148 680 134 680 c 2,7,-1
 62 680 l 1,8,-1
 62 712 l 1,9,-1
 352 712 l 1,10,-1
 352 680 l 1,11,-1
 280 680 l 2,12,13
 266 680 266 680 259.5 673.5 c 128,-1,14
 253 667 253 667 253 653 c 2,15,-1
 253 59 l 2,16,17
 253 32 253 32 280 32 c 2,18,-1
 352 32 l 1,19,-1
 352 0 l 1,20,-1
 62 0 l 1,21,-1
 62 32 l 1,0,-1
EndSplineSet
Validated: 1
EndChar

StartChar: Iacute
Encoding: 142 205 85
Width: 394
GlyphClass: 1
Flags: W
LayerCount: 2
Fore
SplineSet
183 773 m 1,0,-1
 275 906 l 2,1,2
 288 924 288 924 299 931 c 128,-1,3
 310 938 310 938 324 938 c 0,4,5
 337 938 337 938 344.5 929.5 c 128,-1,6
 352 921 352 921 352 907 c 0,7,8
 352 884 352 884 324 863 c 2,9,-1
 196 762 l 1,10,-1
 183 773 l 1,0,-1
62 32 m 1,11,-1
 134 32 l 2,12,13
 161 32 161 32 161 59 c 2,14,-1
 161 653 l 2,15,16
 161 667 161 667 154.5 673.5 c 128,-1,17
 148 680 148 680 134 680 c 2,18,-1
 62 680 l 1,19,-1
 62 712 l 1,20,-1
 352 712 l 1,21,-1
 352 680 l 1,22,-1
 280 680 l 2,23,24
 266 680 266 680 259.5 673.5 c 128,-1,25
 253 667 253 667 253 653 c 2,26,-1
 253 59 l 2,27,28
 253 32 253 32 280 32 c 2,29,-1
 352 32 l 1,30,-1
 352 0 l 1,31,-1
 62 0 l 1,32,-1
 62 32 l 1,11,-1
EndSplineSet
Validated: 1
EndChar

StartChar: Ibreve
Encoding: 237 300 86
Width: 394
GlyphClass: 1
Flags: W
LayerCount: 2
Fore
SplineSet
124.5 786.5 m 128,-1,1
 90 811 90 811 73.5 847 c 128,-1,2
 57 883 57 883 57 916 c 1,3,-1
 85 916 l 1,4,5
 94 874 94 874 125.5 841 c 128,-1,6
 157 808 157 808 208 808 c 256,7,8
 259 808 259 808 290.5 841 c 128,-1,9
 322 874 322 874 331 916 c 1,10,-1
 359 916 l 1,11,12
 359 883 359 883 342.5 847 c 128,-1,13
 326 811 326 811 291.5 786.5 c 128,-1,14
 257 762 257 762 208 762 c 256,15,0
 159 762 159 762 124.5 786.5 c 128,-1,1
62 32 m 1,16,-1
 134 32 l 2,17,18
 161 32 161 32 161 59 c 2,19,-1
 161 653 l 2,20,21
 161 667 161 667 154.5 673.5 c 128,-1,22
 148 680 148 680 134 680 c 2,23,-1
 62 680 l 1,24,-1
 62 712 l 1,25,-1
 352 712 l 1,26,-1
 352 680 l 1,27,-1
 280 680 l 2,28,29
 266 680 266 680 259.5 673.5 c 128,-1,30
 253 667 253 667 253 653 c 2,31,-1
 253 59 l 2,32,33
 253 32 253 32 280 32 c 2,34,-1
 352 32 l 1,35,-1
 352 0 l 1,36,-1
 62 0 l 1,37,-1
 62 32 l 1,16,-1
EndSplineSet
Validated: 1
EndChar

StartChar: Icircumflex
Encoding: 143 206 87
Width: 394
GlyphClass: 1
Flags: W
LayerCount: 2
Fore
SplineSet
50 778 m 1,0,1
 141 830 141 830 188 920 c 1,2,-1
 228 920 l 1,3,4
 275 830 275 830 366 778 c 1,5,-1
 356 762 l 1,6,7
 330 771 330 771 284.5 800.5 c 128,-1,8
 239 830 239 830 208 858 c 1,9,10
 177 830 177 830 131.5 800.5 c 128,-1,11
 86 771 86 771 60 762 c 1,12,-1
 50 778 l 1,0,1
62 32 m 1,13,-1
 134 32 l 2,14,15
 161 32 161 32 161 59 c 2,16,-1
 161 653 l 2,17,18
 161 667 161 667 154.5 673.5 c 128,-1,19
 148 680 148 680 134 680 c 2,20,-1
 62 680 l 1,21,-1
 62 712 l 1,22,-1
 352 712 l 1,23,-1
 352 680 l 1,24,-1
 280 680 l 2,25,26
 266 680 266 680 259.5 673.5 c 128,-1,27
 253 667 253 667 253 653 c 2,28,-1
 253 59 l 2,29,30
 253 32 253 32 280 32 c 2,31,-1
 352 32 l 1,32,-1
 352 0 l 1,33,-1
 62 0 l 1,34,-1
 62 32 l 1,13,-1
EndSplineSet
Validated: 1
EndChar

StartChar: uni0208
Encoding: 351 520 88
Width: 394
GlyphClass: 1
Flags: W
LayerCount: 2
Fore
SplineSet
24 863 m 2,0,1
 -4 884 -4 884 -4 907 c 0,2,3
 -4 921 -4 921 3.5 929.5 c 128,-1,4
 11 938 11 938 24 938 c 0,5,6
 38 938 38 938 49 931 c 128,-1,7
 60 924 60 924 73 906 c 2,8,-1
 165 773 l 1,9,-1
 152 762 l 1,10,-1
 24 863 l 2,0,1
160 863 m 2,11,12
 132 884 132 884 132 907 c 0,13,14
 132 921 132 921 139.5 929.5 c 128,-1,15
 147 938 147 938 160 938 c 0,16,17
 174 938 174 938 185 931 c 128,-1,18
 196 924 196 924 209 906 c 2,19,-1
 301 773 l 1,20,-1
 288 762 l 1,21,-1
 160 863 l 2,11,12
62 32 m 1,22,-1
 134 32 l 2,23,24
 161 32 161 32 161 59 c 2,25,-1
 161 653 l 2,26,27
 161 667 161 667 154.5 673.5 c 128,-1,28
 148 680 148 680 134 680 c 2,29,-1
 62 680 l 1,30,-1
 62 712 l 1,31,-1
 352 712 l 1,32,-1
 352 680 l 1,33,-1
 280 680 l 2,34,35
 266 680 266 680 259.5 673.5 c 128,-1,36
 253 667 253 667 253 653 c 2,37,-1
 253 59 l 2,38,39
 253 32 253 32 280 32 c 2,40,-1
 352 32 l 1,41,-1
 352 0 l 1,42,-1
 62 0 l 1,43,-1
 62 32 l 1,22,-1
EndSplineSet
Validated: 1
EndChar

StartChar: Idieresis
Encoding: 144 207 89
Width: 394
GlyphClass: 1
Flags: W
LayerCount: 2
Fore
SplineSet
69 813 m 128,-1,1
 54 828 54 828 54 850 c 0,2,3
 54 873 54 873 69 887.5 c 128,-1,4
 84 902 84 902 106 902 c 0,5,6
 129 902 129 902 143.5 887.5 c 128,-1,7
 158 873 158 873 158 850 c 0,8,9
 158 828 158 828 143.5 813 c 128,-1,10
 129 798 129 798 106 798 c 0,11,0
 84 798 84 798 69 813 c 128,-1,1
273 813 m 128,-1,13
 258 828 258 828 258 850 c 0,14,15
 258 873 258 873 273 887.5 c 128,-1,16
 288 902 288 902 310 902 c 0,17,18
 333 902 333 902 347.5 887.5 c 128,-1,19
 362 873 362 873 362 850 c 0,20,21
 362 828 362 828 347.5 813 c 128,-1,22
 333 798 333 798 310 798 c 0,23,12
 288 798 288 798 273 813 c 128,-1,13
62 32 m 1,24,-1
 134 32 l 2,25,26
 161 32 161 32 161 59 c 2,27,-1
 161 653 l 2,28,29
 161 667 161 667 154.5 673.5 c 128,-1,30
 148 680 148 680 134 680 c 2,31,-1
 62 680 l 1,32,-1
 62 712 l 1,33,-1
 352 712 l 1,34,-1
 352 680 l 1,35,-1
 280 680 l 2,36,37
 266 680 266 680 259.5 673.5 c 128,-1,38
 253 667 253 667 253 653 c 2,39,-1
 253 59 l 2,40,41
 253 32 253 32 280 32 c 2,42,-1
 352 32 l 1,43,-1
 352 0 l 1,44,-1
 62 0 l 1,45,-1
 62 32 l 1,24,-1
EndSplineSet
Validated: 1
EndChar

StartChar: uni1E2E
Encoding: 649 7726 90
Width: 394
GlyphClass: 1
Flags: W
LayerCount: 2
Fore
SplineSet
169 840 m 1,0,-1
 280 931 l 2,1,2
 306 952 306 952 325 952 c 0,3,4
 339 952 339 952 348 941.5 c 128,-1,5
 357 931 357 931 357 918 c 0,6,7
 357 902 357 902 344 892.5 c 128,-1,8
 331 883 331 883 310 876 c 2,9,-1
 176 828 l 1,10,-1
 169 840 l 1,0,-1
70.5 784.5 m 128,-1,12
 58 797 58 797 58 814 c 256,13,14
 58 831 58 831 70.5 843.5 c 128,-1,15
 83 856 83 856 100 856 c 256,16,17
 117 856 117 856 129.5 843.5 c 128,-1,18
 142 831 142 831 142 814 c 256,19,20
 142 797 142 797 129.5 784.5 c 128,-1,21
 117 772 117 772 100 772 c 256,22,11
 83 772 83 772 70.5 784.5 c 128,-1,12
286.5 784.5 m 128,-1,24
 274 797 274 797 274 814 c 256,25,26
 274 831 274 831 286.5 843.5 c 128,-1,27
 299 856 299 856 316 856 c 256,28,29
 333 856 333 856 345.5 843.5 c 128,-1,30
 358 831 358 831 358 814 c 256,31,32
 358 797 358 797 345.5 784.5 c 128,-1,33
 333 772 333 772 316 772 c 256,34,23
 299 772 299 772 286.5 784.5 c 128,-1,24
62 32 m 1,35,-1
 134 32 l 2,36,37
 161 32 161 32 161 59 c 2,38,-1
 161 653 l 2,39,40
 161 667 161 667 154.5 673.5 c 128,-1,41
 148 680 148 680 134 680 c 2,42,-1
 62 680 l 1,43,-1
 62 712 l 1,44,-1
 352 712 l 1,45,-1
 352 680 l 1,46,-1
 280 680 l 2,47,48
 266 680 266 680 259.5 673.5 c 128,-1,49
 253 667 253 667 253 653 c 2,50,-1
 253 59 l 2,51,52
 253 32 253 32 280 32 c 2,53,-1
 352 32 l 1,54,-1
 352 0 l 1,55,-1
 62 0 l 1,56,-1
 62 32 l 1,35,-1
EndSplineSet
Validated: 1
EndChar

StartChar: Idotaccent
Encoding: 241 304 91
Width: 394
GlyphClass: 1
Flags: W
LayerCount: 2
Fore
SplineSet
171 813 m 128,-1,1
 156 828 156 828 156 850 c 0,2,3
 156 873 156 873 171 887.5 c 128,-1,4
 186 902 186 902 208 902 c 0,5,6
 231 902 231 902 245.5 887.5 c 128,-1,7
 260 873 260 873 260 850 c 0,8,9
 260 828 260 828 245.5 813 c 128,-1,10
 231 798 231 798 208 798 c 0,11,0
 186 798 186 798 171 813 c 128,-1,1
62 32 m 1,12,-1
 134 32 l 2,13,14
 161 32 161 32 161 59 c 2,15,-1
 161 653 l 2,16,17
 161 667 161 667 154.5 673.5 c 128,-1,18
 148 680 148 680 134 680 c 2,19,-1
 62 680 l 1,20,-1
 62 712 l 1,21,-1
 352 712 l 1,22,-1
 352 680 l 1,23,-1
 280 680 l 2,24,25
 266 680 266 680 259.5 673.5 c 128,-1,26
 253 667 253 667 253 653 c 2,27,-1
 253 59 l 2,28,29
 253 32 253 32 280 32 c 2,30,-1
 352 32 l 1,31,-1
 352 0 l 1,32,-1
 62 0 l 1,33,-1
 62 32 l 1,12,-1
EndSplineSet
Validated: 1
EndChar

StartChar: Igrave
Encoding: 141 204 93
Width: 394
GlyphClass: 1
Flags: W
LayerCount: 2
Fore
SplineSet
92 863 m 2,0,1
 64 884 64 884 64 907 c 0,2,3
 64 921 64 921 71.5 929.5 c 128,-1,4
 79 938 79 938 92 938 c 0,5,6
 106 938 106 938 117 931 c 128,-1,7
 128 924 128 924 141 906 c 2,8,-1
 233 773 l 1,9,-1
 220 762 l 1,10,-1
 92 863 l 2,0,1
62 32 m 1,11,-1
 134 32 l 2,12,13
 161 32 161 32 161 59 c 2,14,-1
 161 653 l 2,15,16
 161 667 161 667 154.5 673.5 c 128,-1,17
 148 680 148 680 134 680 c 2,18,-1
 62 680 l 1,19,-1
 62 712 l 1,20,-1
 352 712 l 1,21,-1
 352 680 l 1,22,-1
 280 680 l 2,23,24
 266 680 266 680 259.5 673.5 c 128,-1,25
 253 667 253 667 253 653 c 2,26,-1
 253 59 l 2,27,28
 253 32 253 32 280 32 c 2,29,-1
 352 32 l 1,30,-1
 352 0 l 1,31,-1
 62 0 l 1,32,-1
 62 32 l 1,11,-1
EndSplineSet
Validated: 1
EndChar

StartChar: uni020A
Encoding: 353 522 95
Width: 394
GlyphClass: 1
Flags: W
LayerCount: 2
Fore
SplineSet
61 770 m 1,0,1
 68 801 68 801 90 836.5 c 128,-1,2
 112 872 112 872 143 896 c 128,-1,3
 174 920 174 920 208 920 c 256,4,5
 242 920 242 920 273 896 c 128,-1,6
 304 872 304 872 326 836.5 c 128,-1,7
 348 801 348 801 355 770 c 1,8,-1
 335 762 l 1,9,10
 314 807 314 807 281 835.5 c 128,-1,11
 248 864 248 864 208 864 c 256,12,13
 168 864 168 864 135 835.5 c 128,-1,14
 102 807 102 807 81 762 c 1,15,-1
 61 770 l 1,0,1
62 32 m 1,16,-1
 134 32 l 2,17,18
 161 32 161 32 161 59 c 2,19,-1
 161 653 l 2,20,21
 161 667 161 667 154.5 673.5 c 128,-1,22
 148 680 148 680 134 680 c 2,23,-1
 62 680 l 1,24,-1
 62 712 l 1,25,-1
 352 712 l 1,26,-1
 352 680 l 1,27,-1
 280 680 l 2,28,29
 266 680 266 680 259.5 673.5 c 128,-1,30
 253 667 253 667 253 653 c 2,31,-1
 253 59 l 2,32,33
 253 32 253 32 280 32 c 2,34,-1
 352 32 l 1,35,-1
 352 0 l 1,36,-1
 62 0 l 1,37,-1
 62 32 l 1,16,-1
EndSplineSet
Validated: 1
EndChar

StartChar: Imacron
Encoding: 235 298 96
Width: 394
GlyphClass: 1
Flags: W
LayerCount: 2
Fore
SplineSet
72 822 m 1,0,-1
 72 862 l 1,1,-1
 344 862 l 1,2,-1
 344 822 l 1,3,-1
 72 822 l 1,0,-1
62 32 m 1,4,-1
 134 32 l 2,5,6
 161 32 161 32 161 59 c 2,7,-1
 161 653 l 2,8,9
 161 667 161 667 154.5 673.5 c 128,-1,10
 148 680 148 680 134 680 c 2,11,-1
 62 680 l 1,12,-1
 62 712 l 1,13,-1
 352 712 l 1,14,-1
 352 680 l 1,15,-1
 280 680 l 2,16,17
 266 680 266 680 259.5 673.5 c 128,-1,18
 253 667 253 667 253 653 c 2,19,-1
 253 59 l 2,20,21
 253 32 253 32 280 32 c 2,22,-1
 352 32 l 1,23,-1
 352 0 l 1,24,-1
 62 0 l 1,25,-1
 62 32 l 1,4,-1
EndSplineSet
Validated: 1
EndChar

StartChar: Iogonek
Encoding: 239 302 97
Width: 394
GlyphClass: 1
Flags: W
LayerCount: 2
Fore
SplineSet
195.5 -213.5 m 128,-1,1
 170 -189 170 -189 170 -148 c 0,2,3
 170 -105 170 -105 201.5 -68 c 128,-1,4
 233 -31 233 -31 282 -5 c 1,5,-1
 280 0 l 1,6,-1
 62 0 l 1,7,-1
 62 32 l 1,8,-1
 134 32 l 2,9,10
 161 32 161 32 161 59 c 2,11,-1
 161 653 l 2,12,13
 161 667 161 667 154.5 673.5 c 128,-1,14
 148 680 148 680 134 680 c 2,15,-1
 62 680 l 1,16,-1
 62 712 l 1,17,-1
 352 712 l 1,18,-1
 352 680 l 1,19,-1
 280 680 l 2,20,21
 266 680 266 680 259.5 673.5 c 128,-1,22
 253 667 253 667 253 653 c 2,23,-1
 253 59 l 2,24,25
 253 32 253 32 280 32 c 2,26,-1
 352 32 l 1,27,-1
 352 0 l 1,28,-1
 334 0 l 1,29,30
 292 -21 292 -21 265 -55.5 c 128,-1,31
 238 -90 238 -90 238 -135 c 0,32,33
 238 -160 238 -160 252 -177 c 128,-1,34
 266 -194 266 -194 290 -194 c 0,35,36
 312 -194 312 -194 325.5 -187.5 c 128,-1,37
 339 -181 339 -181 352 -167 c 1,38,-1
 364 -176 l 1,39,40
 351 -201 351 -201 326 -219.5 c 128,-1,41
 301 -238 301 -238 265 -238 c 0,42,0
 221 -238 221 -238 195.5 -213.5 c 128,-1,1
EndSplineSet
Validated: 1
EndChar

StartChar: Itilde
Encoding: 233 296 98
Width: 394
GlyphClass: 1
Flags: W
LayerCount: 2
Fore
SplineSet
52 810 m 1,0,1
 55 848 55 848 77.5 875 c 128,-1,2
 100 902 100 902 138 902 c 0,3,4
 167 902 167 902 228 881 c 0,5,6
 277 864 277 864 300 864 c 0,7,8
 318 864 318 864 329 875 c 128,-1,9
 340 886 340 886 344 906 c 1,10,-1
 364 904 l 1,11,12
 361 866 361 866 338.5 839 c 128,-1,13
 316 812 316 812 278 812 c 0,14,15
 249 812 249 812 188 833 c 0,16,17
 139 850 139 850 116 850 c 0,18,19
 98 850 98 850 87 839 c 128,-1,20
 76 828 76 828 72 808 c 1,21,-1
 52 810 l 1,0,1
62 32 m 1,22,-1
 134 32 l 2,23,24
 161 32 161 32 161 59 c 2,25,-1
 161 653 l 2,26,27
 161 667 161 667 154.5 673.5 c 128,-1,28
 148 680 148 680 134 680 c 2,29,-1
 62 680 l 1,30,-1
 62 712 l 1,31,-1
 352 712 l 1,32,-1
 352 680 l 1,33,-1
 280 680 l 2,34,35
 266 680 266 680 259.5 673.5 c 128,-1,36
 253 667 253 667 253 653 c 2,37,-1
 253 59 l 2,38,39
 253 32 253 32 280 32 c 2,40,-1
 352 32 l 1,41,-1
 352 0 l 1,42,-1
 62 0 l 1,43,-1
 62 32 l 1,22,-1
EndSplineSet
Validated: 1
EndChar

StartChar: J
Encoding: 44 74 99
Width: 540
GlyphClass: 1
Flags: W
LayerCount: 2
Fore
SplineSet
92 20 m 128,-1,1
 44 58 44 58 44 125 c 0,2,3
 44 155 44 155 57 176 c 128,-1,4
 70 197 70 197 89.5 207.5 c 128,-1,5
 109 218 109 218 127 218 c 0,6,7
 156 218 156 218 170 203.5 c 128,-1,8
 184 189 184 189 184 168 c 256,9,10
 184 147 184 147 172.5 135.5 c 128,-1,11
 161 124 161 124 136 116 c 0,12,13
 119 111 119 111 111.5 104 c 128,-1,14
 104 97 104 97 104 82 c 0,15,16
 104 51 104 51 136 32.5 c 128,-1,17
 168 14 168 14 214 14 c 0,18,19
 263 14 263 14 290 52 c 128,-1,20
 317 90 317 90 317 143 c 2,21,-1
 317 653 l 2,22,23
 317 667 317 667 310.5 673.5 c 128,-1,24
 304 680 304 680 290 680 c 2,25,-1
 218 680 l 1,26,-1
 218 712 l 1,27,-1
 508 712 l 1,28,-1
 508 680 l 1,29,-1
 436 680 l 2,30,31
 422 680 422 680 415.5 673.5 c 128,-1,32
 409 667 409 667 409 653 c 2,33,-1
 409 194 l 2,34,35
 409 128 409 128 382 80 c 128,-1,36
 355 32 355 32 310.5 7 c 128,-1,37
 266 -18 266 -18 214 -18 c 0,38,0
 140 -18 140 -18 92 20 c 128,-1,1
EndSplineSet
Validated: 1
EndChar

StartChar: Jcircumflex
Encoding: 243 308 100
Width: 540
GlyphClass: 1
Flags: W
LayerCount: 2
Fore
SplineSet
204 778 m 1,0,1
 295 830 295 830 342 920 c 1,2,-1
 382 920 l 1,3,4
 429 830 429 830 520 778 c 1,5,-1
 510 762 l 1,6,7
 484 771 484 771 438.5 800.5 c 128,-1,8
 393 830 393 830 362 858 c 1,9,10
 331 830 331 830 285.5 800.5 c 128,-1,11
 240 771 240 771 214 762 c 1,12,-1
 204 778 l 1,0,1
92 20 m 128,-1,14
 44 58 44 58 44 125 c 0,15,16
 44 155 44 155 57 176 c 128,-1,17
 70 197 70 197 89.5 207.5 c 128,-1,18
 109 218 109 218 127 218 c 0,19,20
 156 218 156 218 170 203.5 c 128,-1,21
 184 189 184 189 184 168 c 256,22,23
 184 147 184 147 172.5 135.5 c 128,-1,24
 161 124 161 124 136 116 c 0,25,26
 119 111 119 111 111.5 104 c 128,-1,27
 104 97 104 97 104 82 c 0,28,29
 104 51 104 51 136 32.5 c 128,-1,30
 168 14 168 14 214 14 c 0,31,32
 263 14 263 14 290 52 c 128,-1,33
 317 90 317 90 317 143 c 2,34,-1
 317 653 l 2,35,36
 317 667 317 667 310.5 673.5 c 128,-1,37
 304 680 304 680 290 680 c 2,38,-1
 218 680 l 1,39,-1
 218 712 l 1,40,-1
 508 712 l 1,41,-1
 508 680 l 1,42,-1
 436 680 l 2,43,44
 422 680 422 680 415.5 673.5 c 128,-1,45
 409 667 409 667 409 653 c 2,46,-1
 409 194 l 2,47,48
 409 128 409 128 382 80 c 128,-1,49
 355 32 355 32 310.5 7 c 128,-1,50
 266 -18 266 -18 214 -18 c 0,51,13
 140 -18 140 -18 92 20 c 128,-1,14
EndSplineSet
Validated: 1
EndChar

StartChar: K
Encoding: 45 75 101
Width: 756
GlyphClass: 1
Flags: W
LayerCount: 2
Fore
SplineSet
62 32 m 1,0,-1
 134 32 l 2,1,2
 161 32 161 32 161 59 c 2,3,-1
 161 653 l 2,4,5
 161 667 161 667 154.5 673.5 c 128,-1,6
 148 680 148 680 134 680 c 2,7,-1
 62 680 l 1,8,-1
 62 712 l 1,9,-1
 347 712 l 1,10,-1
 347 680 l 1,11,-1
 280 680 l 2,12,13
 266 680 266 680 259.5 673.5 c 128,-1,14
 253 667 253 667 253 653 c 2,15,-1
 253 343 l 1,16,-1
 483 578 l 2,17,18
 496 592 496 592 502 606 c 128,-1,19
 508 620 508 620 508 638 c 256,20,21
 508 656 508 656 495 668 c 128,-1,22
 482 680 482 680 463 680 c 2,23,-1
 436 680 l 1,24,-1
 436 712 l 1,25,-1
 700 712 l 1,26,-1
 700 680 l 1,27,-1
 660 680 l 2,28,29
 627 680 627 680 570 621 c 2,30,-1
 402 451 l 1,31,-1
 606 76 l 2,32,33
 619 51 619 51 635 41.5 c 128,-1,34
 651 32 651 32 681 32 c 2,35,-1
 714 32 l 1,36,-1
 714 0 l 1,37,-1
 412 0 l 1,38,-1
 412 32 l 1,39,-1
 479 32 l 2,40,41
 490 32 490 32 498 38.5 c 128,-1,42
 506 45 506 45 506 53 c 0,43,44
 506 59 506 59 504 66.5 c 128,-1,45
 502 74 502 74 499 78 c 2,46,-1
 336 384 l 1,47,-1
 253 300 l 1,48,-1
 253 59 l 2,49,50
 253 32 253 32 280 32 c 2,51,-1
 347 32 l 1,52,-1
 347 0 l 1,53,-1
 62 0 l 1,54,-1
 62 32 l 1,0,-1
EndSplineSet
Validated: 1
EndChar

StartChar: Kcommaaccent
Encoding: 245 310 102
Width: 756
GlyphClass: 1
Flags: W
LayerCount: 2
Fore
SplineSet
62 32 m 1,0,-1
 134 32 l 2,1,2
 161 32 161 32 161 59 c 2,3,-1
 161 653 l 2,4,5
 161 667 161 667 154.5 673.5 c 128,-1,6
 148 680 148 680 134 680 c 2,7,-1
 62 680 l 1,8,-1
 62 712 l 1,9,-1
 347 712 l 1,10,-1
 347 680 l 1,11,-1
 280 680 l 2,12,13
 266 680 266 680 259.5 673.5 c 128,-1,14
 253 667 253 667 253 653 c 2,15,-1
 253 343 l 1,16,-1
 483 578 l 2,17,18
 496 592 496 592 502 606 c 128,-1,19
 508 620 508 620 508 638 c 256,20,21
 508 656 508 656 495 668 c 128,-1,22
 482 680 482 680 463 680 c 2,23,-1
 436 680 l 1,24,-1
 436 712 l 1,25,-1
 700 712 l 1,26,-1
 700 680 l 1,27,-1
 660 680 l 2,28,29
 627 680 627 680 570 621 c 2,30,-1
 402 451 l 1,31,-1
 606 76 l 2,32,33
 619 51 619 51 635 41.5 c 128,-1,34
 651 32 651 32 681 32 c 2,35,-1
 714 32 l 1,36,-1
 714 0 l 1,37,-1
 412 0 l 1,38,-1
 412 32 l 1,39,-1
 479 32 l 2,40,41
 490 32 490 32 498 38.5 c 128,-1,42
 506 45 506 45 506 53 c 0,43,44
 506 59 506 59 504 66.5 c 128,-1,45
 502 74 502 74 499 78 c 2,46,-1
 336 384 l 1,47,-1
 253 300 l 1,48,-1
 253 59 l 2,49,50
 253 32 253 32 280 32 c 2,51,-1
 347 32 l 1,52,-1
 347 0 l 1,53,-1
 62 0 l 1,54,-1
 62 32 l 1,0,-1
334 -227 m 1,55,56
 360 -215 360 -215 379.5 -193.5 c 128,-1,57
 399 -172 399 -172 399 -152 c 0,58,59
 399 -136 399 -136 391 -130 c 0,60,61
 385 -126 385 -126 367 -126 c 0,62,63
 351 -126 351 -126 341.5 -113 c 128,-1,64
 332 -100 332 -100 332 -85 c 0,65,66
 332 -64 332 -64 345.5 -52 c 128,-1,67
 359 -40 359 -40 379 -40 c 0,68,69
 405 -40 405 -40 420.5 -59 c 128,-1,70
 436 -78 436 -78 436 -106 c 0,71,72
 436 -149 436 -149 408.5 -186 c 128,-1,73
 381 -223 381 -223 344 -238 c 1,74,-1
 334 -227 l 1,55,56
EndSplineSet
Validated: 1
EndChar

StartChar: L
Encoding: 46 76 103
Width: 670
GlyphClass: 1
Flags: W
LayerCount: 2
Fore
SplineSet
62 32 m 1,0,-1
 134 32 l 2,1,2
 161 32 161 32 161 59 c 2,3,-1
 161 653 l 2,4,5
 161 667 161 667 154.5 673.5 c 128,-1,6
 148 680 148 680 134 680 c 2,7,-1
 62 680 l 1,8,-1
 62 712 l 1,9,-1
 368 712 l 1,10,-1
 368 680 l 1,11,-1
 280 680 l 2,12,13
 266 680 266 680 259.5 673.5 c 128,-1,14
 253 667 253 667 253 653 c 2,15,-1
 253 59 l 2,16,17
 253 32 253 32 280 32 c 2,18,-1
 381 32 l 2,19,20
 434 32 434 32 476 56 c 128,-1,21
 518 80 518 80 539 126 c 0,22,23
 555 160 555 160 565.5 198.5 c 128,-1,24
 576 237 576 237 581 264 c 128,-1,25
 586 291 586 291 587 298 c 1,26,-1
 612 298 l 1,27,-1
 603 0 l 1,28,-1
 62 0 l 1,29,-1
 62 32 l 1,0,-1
EndSplineSet
Validated: 1
EndChar

StartChar: uni01C7
Encoding: 326 455 104
Width: 1210
GlyphClass: 1
Flags: W
LayerCount: 2
Fore
SplineSet
62 32 m 1,0,-1
 134 32 l 2,1,2
 161 32 161 32 161 59 c 2,3,-1
 161 653 l 2,4,5
 161 667 161 667 154.5 673.5 c 128,-1,6
 148 680 148 680 134 680 c 2,7,-1
 62 680 l 1,8,-1
 62 712 l 1,9,-1
 368 712 l 1,10,-1
 368 680 l 1,11,-1
 280 680 l 2,12,13
 266 680 266 680 259.5 673.5 c 128,-1,14
 253 667 253 667 253 653 c 2,15,-1
 253 59 l 2,16,17
 253 32 253 32 280 32 c 2,18,-1
 381 32 l 2,19,20
 434 32 434 32 476 56 c 128,-1,21
 518 80 518 80 539 126 c 0,22,23
 555 160 555 160 565.5 198.5 c 128,-1,24
 576 237 576 237 581 264 c 128,-1,25
 586 291 586 291 587 298 c 1,26,-1
 612 298 l 1,27,-1
 603 0 l 1,28,-1
 62 0 l 1,29,-1
 62 32 l 1,0,-1
762 20 m 128,-1,31
 714 58 714 58 714 125 c 0,32,33
 714 155 714 155 727 176 c 128,-1,34
 740 197 740 197 759.5 207.5 c 128,-1,35
 779 218 779 218 797 218 c 0,36,37
 826 218 826 218 840 203.5 c 128,-1,38
 854 189 854 189 854 168 c 256,39,40
 854 147 854 147 842.5 135.5 c 128,-1,41
 831 124 831 124 806 116 c 0,42,43
 789 111 789 111 781.5 104 c 128,-1,44
 774 97 774 97 774 82 c 0,45,46
 774 51 774 51 806 32.5 c 128,-1,47
 838 14 838 14 884 14 c 0,48,49
 933 14 933 14 960 52 c 128,-1,50
 987 90 987 90 987 143 c 2,51,-1
 987 653 l 2,52,53
 987 667 987 667 980.5 673.5 c 128,-1,54
 974 680 974 680 960 680 c 2,55,-1
 888 680 l 1,56,-1
 888 712 l 1,57,-1
 1178 712 l 1,58,-1
 1178 680 l 1,59,-1
 1106 680 l 2,60,61
 1092 680 1092 680 1085.5 673.5 c 128,-1,62
 1079 667 1079 667 1079 653 c 2,63,-1
 1079 194 l 2,64,65
 1079 128 1079 128 1052 80 c 128,-1,66
 1025 32 1025 32 980.5 7 c 128,-1,67
 936 -18 936 -18 884 -18 c 0,68,30
 810 -18 810 -18 762 20 c 128,-1,31
EndSplineSet
Validated: 1
EndChar

StartChar: Lacute
Encoding: 248 313 105
Width: 670
GlyphClass: 1
Flags: W
LayerCount: 2
Fore
SplineSet
195 773 m 1,0,-1
 287 906 l 2,1,2
 300 924 300 924 311 931 c 128,-1,3
 322 938 322 938 336 938 c 0,4,5
 349 938 349 938 356.5 929.5 c 128,-1,6
 364 921 364 921 364 907 c 0,7,8
 364 884 364 884 336 863 c 2,9,-1
 208 762 l 1,10,-1
 195 773 l 1,0,-1
62 32 m 1,11,-1
 134 32 l 2,12,13
 161 32 161 32 161 59 c 2,14,-1
 161 653 l 2,15,16
 161 667 161 667 154.5 673.5 c 128,-1,17
 148 680 148 680 134 680 c 2,18,-1
 62 680 l 1,19,-1
 62 712 l 1,20,-1
 368 712 l 1,21,-1
 368 680 l 1,22,-1
 280 680 l 2,23,24
 266 680 266 680 259.5 673.5 c 128,-1,25
 253 667 253 667 253 653 c 2,26,-1
 253 59 l 2,27,28
 253 32 253 32 280 32 c 2,29,-1
 381 32 l 2,30,31
 434 32 434 32 476 56 c 128,-1,32
 518 80 518 80 539 126 c 0,33,34
 555 160 555 160 565.5 198.5 c 128,-1,35
 576 237 576 237 581 264 c 128,-1,36
 586 291 586 291 587 298 c 1,37,-1
 612 298 l 1,38,-1
 603 0 l 1,39,-1
 62 0 l 1,40,-1
 62 32 l 1,11,-1
EndSplineSet
Validated: 1
EndChar

StartChar: Lcaron
Encoding: 252 317 106
Width: 690
GlyphClass: 1
Flags: W
LayerCount: 2
Fore
SplineSet
546 500 m 1,0,1
 577 515 577 515 599.5 541 c 128,-1,2
 622 567 622 567 622 590 c 0,3,4
 622 606 622 606 612 614 c 0,5,6
 604 620 604 620 584 620 c 0,7,8
 566 620 566 620 555 635 c 128,-1,9
 544 650 544 650 544 668 c 0,10,11
 544 693 544 693 559.5 706.5 c 128,-1,12
 575 720 575 720 598 720 c 0,13,14
 628 720 628 720 646 698.5 c 128,-1,15
 664 677 664 677 664 644 c 0,16,17
 664 594 664 594 632.5 551.5 c 128,-1,18
 601 509 601 509 558 488 c 1,19,-1
 546 500 l 1,0,1
62 32 m 1,20,-1
 134 32 l 2,21,22
 161 32 161 32 161 59 c 2,23,-1
 161 653 l 2,24,25
 161 667 161 667 154.5 673.5 c 128,-1,26
 148 680 148 680 134 680 c 2,27,-1
 62 680 l 1,28,-1
 62 712 l 1,29,-1
 368 712 l 1,30,-1
 368 680 l 1,31,-1
 280 680 l 2,32,33
 266 680 266 680 259.5 673.5 c 128,-1,34
 253 667 253 667 253 653 c 2,35,-1
 253 59 l 2,36,37
 253 32 253 32 280 32 c 2,38,-1
 381 32 l 2,39,40
 434 32 434 32 476 56 c 128,-1,41
 518 80 518 80 539 126 c 0,42,43
 555 160 555 160 565.5 198.5 c 128,-1,44
 576 237 576 237 581 264 c 128,-1,45
 586 291 586 291 587 298 c 1,46,-1
 612 298 l 1,47,-1
 603 0 l 1,48,-1
 62 0 l 1,49,-1
 62 32 l 1,20,-1
EndSplineSet
Validated: 1
EndChar

StartChar: Lcommaaccent
Encoding: 250 315 107
Width: 670
GlyphClass: 1
Flags: W
LayerCount: 2
Fore
SplineSet
62 32 m 1,0,-1
 134 32 l 2,1,2
 161 32 161 32 161 59 c 2,3,-1
 161 653 l 2,4,5
 161 667 161 667 154.5 673.5 c 128,-1,6
 148 680 148 680 134 680 c 2,7,-1
 62 680 l 1,8,-1
 62 712 l 1,9,-1
 368 712 l 1,10,-1
 368 680 l 1,11,-1
 280 680 l 2,12,13
 266 680 266 680 259.5 673.5 c 128,-1,14
 253 667 253 667 253 653 c 2,15,-1
 253 59 l 2,16,17
 253 32 253 32 280 32 c 2,18,-1
 381 32 l 2,19,20
 434 32 434 32 476 56 c 128,-1,21
 518 80 518 80 539 126 c 0,22,23
 555 160 555 160 565.5 198.5 c 128,-1,24
 576 237 576 237 581 264 c 128,-1,25
 586 291 586 291 587 298 c 1,26,-1
 612 298 l 1,27,-1
 603 0 l 1,28,-1
 62 0 l 1,29,-1
 62 32 l 1,0,-1
292 -227 m 1,30,31
 318 -215 318 -215 337.5 -193.5 c 128,-1,32
 357 -172 357 -172 357 -152 c 0,33,34
 357 -136 357 -136 349 -130 c 0,35,36
 343 -126 343 -126 325 -126 c 0,37,38
 309 -126 309 -126 299.5 -113 c 128,-1,39
 290 -100 290 -100 290 -85 c 0,40,41
 290 -64 290 -64 303.5 -52 c 128,-1,42
 317 -40 317 -40 337 -40 c 0,43,44
 363 -40 363 -40 378.5 -59 c 128,-1,45
 394 -78 394 -78 394 -106 c 0,46,47
 394 -149 394 -149 366.5 -186 c 128,-1,48
 339 -223 339 -223 302 -238 c 1,49,-1
 292 -227 l 1,30,31
EndSplineSet
Validated: 1
EndChar

StartChar: Ldot
Encoding: 254 319 108
Width: 670
GlyphClass: 1
Flags: W
LayerCount: 2
Fore
SplineSet
62 32 m 1,0,-1
 134 32 l 2,1,2
 161 32 161 32 161 59 c 2,3,-1
 161 653 l 2,4,5
 161 667 161 667 154.5 673.5 c 128,-1,6
 148 680 148 680 134 680 c 2,7,-1
 62 680 l 1,8,-1
 62 712 l 1,9,-1
 368 712 l 1,10,-1
 368 680 l 1,11,-1
 280 680 l 2,12,13
 266 680 266 680 259.5 673.5 c 128,-1,14
 253 667 253 667 253 653 c 2,15,-1
 253 59 l 2,16,17
 253 32 253 32 280 32 c 2,18,-1
 381 32 l 2,19,20
 434 32 434 32 476 56 c 128,-1,21
 518 80 518 80 539 126 c 0,22,23
 555 160 555 160 565.5 198.5 c 128,-1,24
 576 237 576 237 581 264 c 128,-1,25
 586 291 586 291 587 298 c 1,26,-1
 612 298 l 1,27,-1
 603 0 l 1,28,-1
 62 0 l 1,29,-1
 62 32 l 1,0,-1
495 357 m 128,-1,31
 480 372 480 372 480 394 c 0,32,33
 480 417 480 417 495 431.5 c 128,-1,34
 510 446 510 446 532 446 c 0,35,36
 555 446 555 446 569.5 431.5 c 128,-1,37
 584 417 584 417 584 394 c 0,38,39
 584 372 584 372 569.5 357 c 128,-1,40
 555 342 555 342 532 342 c 0,41,30
 510 342 510 342 495 357 c 128,-1,31
EndSplineSet
Validated: 1
Ligature2: "+VAhbVzB4MG5/bmPb lookup 22 +MLUw1jDGMPww1jDr" L periodcentered
EndChar

StartChar: uni1E36
Encoding: 651 7734 109
Width: 670
GlyphClass: 1
Flags: W
LayerCount: 2
Fore
SplineSet
62 32 m 1,0,-1
 134 32 l 2,1,2
 161 32 161 32 161 59 c 2,3,-1
 161 653 l 2,4,5
 161 667 161 667 154.5 673.5 c 128,-1,6
 148 680 148 680 134 680 c 2,7,-1
 62 680 l 1,8,-1
 62 712 l 1,9,-1
 368 712 l 1,10,-1
 368 680 l 1,11,-1
 280 680 l 2,12,13
 266 680 266 680 259.5 673.5 c 128,-1,14
 253 667 253 667 253 653 c 2,15,-1
 253 59 l 2,16,17
 253 32 253 32 280 32 c 2,18,-1
 381 32 l 2,19,20
 434 32 434 32 476 56 c 128,-1,21
 518 80 518 80 539 126 c 0,22,23
 555 160 555 160 565.5 198.5 c 128,-1,24
 576 237 576 237 581 264 c 128,-1,25
 586 291 586 291 587 298 c 1,26,-1
 612 298 l 1,27,-1
 603 0 l 1,28,-1
 62 0 l 1,29,-1
 62 32 l 1,0,-1
331 -179.5 m 128,-1,31
 316 -165 316 -165 316 -142 c 0,32,33
 316 -120 316 -120 331 -105 c 128,-1,34
 346 -90 346 -90 368 -90 c 0,35,36
 391 -90 391 -90 405.5 -105 c 128,-1,37
 420 -120 420 -120 420 -142 c 0,38,39
 420 -165 420 -165 405.5 -179.5 c 128,-1,40
 391 -194 391 -194 368 -194 c 0,41,30
 346 -194 346 -194 331 -179.5 c 128,-1,31
EndSplineSet
Validated: 1
EndChar

StartChar: uni01C8
Encoding: 327 456 110
Width: 990
GlyphClass: 1
Flags: W
LayerCount: 2
Fore
SplineSet
62 32 m 1,0,-1
 134 32 l 2,1,2
 161 32 161 32 161 59 c 2,3,-1
 161 653 l 2,4,5
 161 667 161 667 154.5 673.5 c 128,-1,6
 148 680 148 680 134 680 c 2,7,-1
 62 680 l 1,8,-1
 62 712 l 1,9,-1
 368 712 l 1,10,-1
 368 680 l 1,11,-1
 280 680 l 2,12,13
 266 680 266 680 259.5 673.5 c 128,-1,14
 253 667 253 667 253 653 c 2,15,-1
 253 59 l 2,16,17
 253 32 253 32 280 32 c 2,18,-1
 381 32 l 2,19,20
 434 32 434 32 476 56 c 128,-1,21
 518 80 518 80 539 126 c 0,22,23
 555 160 555 160 565.5 198.5 c 128,-1,24
 576 237 576 237 581 264 c 128,-1,25
 586 291 586 291 587 298 c 1,26,-1
 612 298 l 1,27,-1
 603 0 l 1,28,-1
 62 0 l 1,29,-1
 62 32 l 1,0,-1
809 595 m 128,-1,31
 794 610 794 610 794 632 c 0,32,33
 794 655 794 655 809 669.5 c 128,-1,34
 824 684 824 684 846 684 c 0,35,36
 869 684 869 684 883.5 669.5 c 128,-1,37
 898 655 898 655 898 632 c 0,38,39
 898 610 898 610 883.5 595 c 128,-1,40
 869 580 869 580 846 580 c 0,41,30
 824 580 824 580 809 595 c 128,-1,31
662.5 -212.5 m 128,-1,43
 632 -187 632 -187 632 -144 c 0,44,45
 632 -117 632 -117 647.5 -98.5 c 128,-1,46
 663 -80 663 -80 685 -80 c 0,47,48
 702 -80 702 -80 712 -89.5 c 128,-1,49
 722 -99 722 -99 722 -114 c 0,50,51
 722 -126 722 -126 716.5 -134.5 c 128,-1,52
 711 -143 711 -143 701 -152 c 0,53,54
 686 -166 686 -166 686 -182 c 0,55,56
 686 -199 686 -199 701.5 -206.5 c 128,-1,57
 717 -214 717 -214 737 -214 c 0,58,59
 770 -214 770 -214 793 -182 c 128,-1,60
 816 -150 816 -150 816 -71 c 2,61,-1
 816 410 l 2,62,63
 816 422 816 422 811 427 c 128,-1,64
 806 432 806 432 794 432 c 2,65,-1
 722 432 l 1,66,-1
 722 456 l 1,67,-1
 888 456 l 1,68,-1
 888 -43 l 2,69,70
 888 -110 888 -110 865.5 -154 c 128,-1,71
 843 -198 843 -198 808 -218 c 128,-1,72
 773 -238 773 -238 735 -238 c 0,73,42
 693 -238 693 -238 662.5 -212.5 c 128,-1,43
EndSplineSet
Validated: 1
EndChar

StartChar: uni1E3A
Encoding: 653 7738 111
Width: 670
GlyphClass: 1
Flags: W
LayerCount: 2
Fore
SplineSet
62 32 m 1,0,-1
 134 32 l 2,1,2
 161 32 161 32 161 59 c 2,3,-1
 161 653 l 2,4,5
 161 667 161 667 154.5 673.5 c 128,-1,6
 148 680 148 680 134 680 c 2,7,-1
 62 680 l 1,8,-1
 62 712 l 1,9,-1
 368 712 l 1,10,-1
 368 680 l 1,11,-1
 280 680 l 2,12,13
 266 680 266 680 259.5 673.5 c 128,-1,14
 253 667 253 667 253 653 c 2,15,-1
 253 59 l 2,16,17
 253 32 253 32 280 32 c 2,18,-1
 381 32 l 2,19,20
 434 32 434 32 476 56 c 128,-1,21
 518 80 518 80 539 126 c 0,22,23
 555 160 555 160 565.5 198.5 c 128,-1,24
 576 237 576 237 581 264 c 128,-1,25
 586 291 586 291 587 298 c 1,26,-1
 612 298 l 1,27,-1
 603 0 l 1,28,-1
 62 0 l 1,29,-1
 62 32 l 1,0,-1
238 -166 m 1,30,-1
 238 -126 l 1,31,-1
 498 -126 l 1,32,-1
 498 -166 l 1,33,-1
 238 -166 l 1,30,-1
EndSplineSet
Validated: 1
EndChar

StartChar: Lslash
Encoding: 256 321 112
Width: 691
GlyphClass: 1
Flags: W
LayerCount: 2
Fore
SplineSet
62 32 m 1,0,-1
 134 32 l 2,1,2
 161 32 161 32 161 59 c 2,3,-1
 161 312 l 1,4,-1
 86 268 l 1,5,-1
 68 300 l 1,6,-1
 161 354 l 1,7,-1
 161 653 l 2,8,9
 161 667 161 667 154.5 673.5 c 128,-1,10
 148 680 148 680 134 680 c 2,11,-1
 62 680 l 1,12,-1
 62 712 l 1,13,-1
 368 712 l 1,14,-1
 368 680 l 1,15,-1
 280 680 l 2,16,17
 266 680 266 680 259.5 673.5 c 128,-1,18
 253 667 253 667 253 653 c 2,19,-1
 253 408 l 1,20,-1
 390 488 l 1,21,-1
 408 456 l 1,22,-1
 253 366 l 1,23,-1
 253 59 l 2,24,25
 253 32 253 32 280 32 c 2,26,-1
 381 32 l 2,27,28
 434 32 434 32 476 56 c 128,-1,29
 518 80 518 80 539 126 c 0,30,31
 555 160 555 160 565.5 198.5 c 128,-1,32
 576 237 576 237 581 264 c 128,-1,33
 586 291 586 291 587 298 c 1,34,-1
 612 298 l 1,35,-1
 603 0 l 1,36,-1
 62 0 l 1,37,-1
 62 32 l 1,0,-1
EndSplineSet
Validated: 1
EndChar

StartChar: M
Encoding: 47 77 113
Width: 838
GlyphClass: 1
Flags: W
LayerCount: 2
Fore
SplineSet
207 622 m 1,0,-1
 201 622 l 1,1,-1
 201 112 l 2,2,3
 201 75 201 75 218.5 53.5 c 128,-1,4
 236 32 236 32 264 32 c 2,5,-1
 300 32 l 1,6,-1
 300 0 l 1,7,-1
 62 0 l 1,8,-1
 62 32 l 1,9,-1
 98 32 l 2,10,11
 126 32 126 32 143.5 53.5 c 128,-1,12
 161 75 161 75 161 112 c 2,13,-1
 161 653 l 2,14,15
 161 667 161 667 154.5 673.5 c 128,-1,16
 148 680 148 680 134 680 c 2,17,-1
 62 680 l 1,18,-1
 62 712 l 1,19,-1
 274 712 l 1,20,-1
 437 161 l 1,21,-1
 589 712 l 1,22,-1
 796 712 l 1,23,-1
 796 680 l 1,24,-1
 724 680 l 2,25,26
 710 680 710 680 703.5 673.5 c 128,-1,27
 697 667 697 667 697 653 c 2,28,-1
 697 59 l 2,29,30
 697 32 697 32 724 32 c 2,31,-1
 796 32 l 1,32,-1
 796 0 l 1,33,-1
 506 0 l 1,34,-1
 506 32 l 1,35,-1
 578 32 l 2,36,37
 605 32 605 32 605 59 c 2,38,-1
 605 649 l 1,39,-1
 422 -12 l 1,40,-1
 398 -12 l 1,41,-1
 207 622 l 1,0,-1
EndSplineSet
Validated: 1
EndChar

StartChar: uni1E42
Encoding: 655 7746 114
Width: 838
GlyphClass: 1
Flags: W
LayerCount: 2
Fore
SplineSet
207 622 m 1,0,-1
 201 622 l 1,1,-1
 201 112 l 2,2,3
 201 75 201 75 218.5 53.5 c 128,-1,4
 236 32 236 32 264 32 c 2,5,-1
 300 32 l 1,6,-1
 300 0 l 1,7,-1
 62 0 l 1,8,-1
 62 32 l 1,9,-1
 98 32 l 2,10,11
 126 32 126 32 143.5 53.5 c 128,-1,12
 161 75 161 75 161 112 c 2,13,-1
 161 653 l 2,14,15
 161 667 161 667 154.5 673.5 c 128,-1,16
 148 680 148 680 134 680 c 2,17,-1
 62 680 l 1,18,-1
 62 712 l 1,19,-1
 274 712 l 1,20,-1
 437 161 l 1,21,-1
 589 712 l 1,22,-1
 796 712 l 1,23,-1
 796 680 l 1,24,-1
 724 680 l 2,25,26
 710 680 710 680 703.5 673.5 c 128,-1,27
 697 667 697 667 697 653 c 2,28,-1
 697 59 l 2,29,30
 697 32 697 32 724 32 c 2,31,-1
 796 32 l 1,32,-1
 796 0 l 1,33,-1
 506 0 l 1,34,-1
 506 32 l 1,35,-1
 578 32 l 2,36,37
 605 32 605 32 605 59 c 2,38,-1
 605 649 l 1,39,-1
 422 -12 l 1,40,-1
 398 -12 l 1,41,-1
 207 622 l 1,0,-1
375 -179.5 m 128,-1,43
 360 -165 360 -165 360 -142 c 0,44,45
 360 -120 360 -120 375 -105 c 128,-1,46
 390 -90 390 -90 412 -90 c 0,47,48
 435 -90 435 -90 449.5 -105 c 128,-1,49
 464 -120 464 -120 464 -142 c 0,50,51
 464 -165 464 -165 449.5 -179.5 c 128,-1,52
 435 -194 435 -194 412 -194 c 0,53,42
 390 -194 390 -194 375 -179.5 c 128,-1,43
EndSplineSet
Validated: 1
EndChar

StartChar: N
Encoding: 48 78 115
Width: 770
GlyphClass: 1
Flags: W
LayerCount: 2
Fore
SplineSet
205 603 m 1,0,-1
 201 603 l 1,1,-1
 201 112 l 2,2,3
 201 75 201 75 218.5 53.5 c 128,-1,4
 236 32 236 32 264 32 c 2,5,-1
 300 32 l 1,6,-1
 300 0 l 1,7,-1
 62 0 l 1,8,-1
 62 32 l 1,9,-1
 98 32 l 2,10,11
 127 32 127 32 144 53.5 c 128,-1,12
 161 75 161 75 161 112 c 2,13,-1
 161 653 l 2,14,15
 160 667 160 667 154 673.5 c 128,-1,16
 148 680 148 680 134 680 c 2,17,-1
 62 680 l 1,18,-1
 62 712 l 1,19,-1
 251 712 l 1,20,-1
 598 154 l 1,21,-1
 598 600 l 2,22,23
 598 637 598 637 581 658.5 c 128,-1,24
 564 680 564 680 536 680 c 2,25,-1
 500 680 l 1,26,-1
 500 712 l 1,27,-1
 738 712 l 1,28,-1
 738 680 l 1,29,-1
 702 680 l 2,30,31
 674 680 674 680 656 658.5 c 128,-1,32
 638 637 638 637 638 600 c 2,33,-1
 638 -18 l 1,34,-1
 598 -18 l 1,35,-1
 205 603 l 1,0,-1
EndSplineSet
Validated: 1
EndChar

StartChar: uni01CA
Encoding: 329 458 116
Width: 1310
GlyphClass: 1
Flags: W
LayerCount: 2
Fore
SplineSet
205 603 m 1,0,-1
 201 603 l 1,1,-1
 201 112 l 2,2,3
 201 75 201 75 218.5 53.5 c 128,-1,4
 236 32 236 32 264 32 c 2,5,-1
 300 32 l 1,6,-1
 300 0 l 1,7,-1
 62 0 l 1,8,-1
 62 32 l 1,9,-1
 98 32 l 2,10,11
 127 32 127 32 144 53.5 c 128,-1,12
 161 75 161 75 161 112 c 2,13,-1
 161 653 l 2,14,15
 160 667 160 667 154 673.5 c 128,-1,16
 148 680 148 680 134 680 c 2,17,-1
 62 680 l 1,18,-1
 62 712 l 1,19,-1
 251 712 l 1,20,-1
 598 154 l 1,21,-1
 598 600 l 2,22,23
 598 637 598 637 581 658.5 c 128,-1,24
 564 680 564 680 536 680 c 2,25,-1
 500 680 l 1,26,-1
 500 712 l 1,27,-1
 738 712 l 1,28,-1
 738 680 l 1,29,-1
 702 680 l 2,30,31
 674 680 674 680 656 658.5 c 128,-1,32
 638 637 638 637 638 600 c 2,33,-1
 638 -18 l 1,34,-1
 598 -18 l 1,35,-1
 205 603 l 1,0,-1
862 20 m 128,-1,37
 814 58 814 58 814 125 c 0,38,39
 814 155 814 155 827 176 c 128,-1,40
 840 197 840 197 859.5 207.5 c 128,-1,41
 879 218 879 218 897 218 c 0,42,43
 926 218 926 218 940 203.5 c 128,-1,44
 954 189 954 189 954 168 c 256,45,46
 954 147 954 147 942.5 135.5 c 128,-1,47
 931 124 931 124 906 116 c 0,48,49
 889 111 889 111 881.5 104 c 128,-1,50
 874 97 874 97 874 82 c 0,51,52
 874 51 874 51 906 32.5 c 128,-1,53
 938 14 938 14 984 14 c 0,54,55
 1033 14 1033 14 1060 52 c 128,-1,56
 1087 90 1087 90 1087 143 c 2,57,-1
 1087 653 l 2,58,59
 1087 667 1087 667 1080.5 673.5 c 128,-1,60
 1074 680 1074 680 1060 680 c 2,61,-1
 988 680 l 1,62,-1
 988 712 l 1,63,-1
 1278 712 l 1,64,-1
 1278 680 l 1,65,-1
 1206 680 l 2,66,67
 1192 680 1192 680 1185.5 673.5 c 128,-1,68
 1179 667 1179 667 1179 653 c 2,69,-1
 1179 194 l 2,70,71
 1179 128 1179 128 1152 80 c 128,-1,72
 1125 32 1125 32 1080.5 7 c 128,-1,73
 1036 -18 1036 -18 984 -18 c 0,74,36
 910 -18 910 -18 862 20 c 128,-1,37
EndSplineSet
Validated: 1
EndChar

StartChar: Nacute
Encoding: 258 323 117
Width: 770
GlyphClass: 1
Flags: W
LayerCount: 2
Fore
SplineSet
391 773 m 1,0,-1
 483 906 l 2,1,2
 496 924 496 924 507 931 c 128,-1,3
 518 938 518 938 532 938 c 0,4,5
 545 938 545 938 552.5 929.5 c 128,-1,6
 560 921 560 921 560 907 c 0,7,8
 560 884 560 884 532 863 c 2,9,-1
 404 762 l 1,10,-1
 391 773 l 1,0,-1
205 603 m 1,11,-1
 201 603 l 1,12,-1
 201 112 l 2,13,14
 201 75 201 75 218.5 53.5 c 128,-1,15
 236 32 236 32 264 32 c 2,16,-1
 300 32 l 1,17,-1
 300 0 l 1,18,-1
 62 0 l 1,19,-1
 62 32 l 1,20,-1
 98 32 l 2,21,22
 127 32 127 32 144 53.5 c 128,-1,23
 161 75 161 75 161 112 c 2,24,-1
 161 653 l 2,25,26
 160 667 160 667 154 673.5 c 128,-1,27
 148 680 148 680 134 680 c 2,28,-1
 62 680 l 1,29,-1
 62 712 l 1,30,-1
 251 712 l 1,31,-1
 598 154 l 1,32,-1
 598 600 l 2,33,34
 598 637 598 637 581 658.5 c 128,-1,35
 564 680 564 680 536 680 c 2,36,-1
 500 680 l 1,37,-1
 500 712 l 1,38,-1
 738 712 l 1,39,-1
 738 680 l 1,40,-1
 702 680 l 2,41,42
 674 680 674 680 656 658.5 c 128,-1,43
 638 637 638 637 638 600 c 2,44,-1
 638 -18 l 1,45,-1
 598 -18 l 1,46,-1
 205 603 l 1,11,-1
EndSplineSet
Validated: 1
EndChar

StartChar: Ncaron
Encoding: 262 327 118
Width: 770
GlyphClass: 1
Flags: W
LayerCount: 2
Fore
SplineSet
396 762 m 1,0,-1
 256 906 l 1,1,-1
 268 920 l 1,2,-1
 416 824 l 1,3,-1
 564 920 l 1,4,-1
 576 906 l 1,5,-1
 436 762 l 1,6,-1
 396 762 l 1,0,-1
205 603 m 1,7,-1
 201 603 l 1,8,-1
 201 112 l 2,9,10
 201 75 201 75 218.5 53.5 c 128,-1,11
 236 32 236 32 264 32 c 2,12,-1
 300 32 l 1,13,-1
 300 0 l 1,14,-1
 62 0 l 1,15,-1
 62 32 l 1,16,-1
 98 32 l 2,17,18
 127 32 127 32 144 53.5 c 128,-1,19
 161 75 161 75 161 112 c 2,20,-1
 161 653 l 2,21,22
 160 667 160 667 154 673.5 c 128,-1,23
 148 680 148 680 134 680 c 2,24,-1
 62 680 l 1,25,-1
 62 712 l 1,26,-1
 251 712 l 1,27,-1
 598 154 l 1,28,-1
 598 600 l 2,29,30
 598 637 598 637 581 658.5 c 128,-1,31
 564 680 564 680 536 680 c 2,32,-1
 500 680 l 1,33,-1
 500 712 l 1,34,-1
 738 712 l 1,35,-1
 738 680 l 1,36,-1
 702 680 l 2,37,38
 674 680 674 680 656 658.5 c 128,-1,39
 638 637 638 637 638 600 c 2,40,-1
 638 -18 l 1,41,-1
 598 -18 l 1,42,-1
 205 603 l 1,7,-1
EndSplineSet
Validated: 1
EndChar

StartChar: Ncommaaccent
Encoding: 260 325 119
Width: 770
GlyphClass: 1
Flags: W
LayerCount: 2
Fore
SplineSet
205 603 m 1,0,-1
 201 603 l 1,1,-1
 201 112 l 2,2,3
 201 75 201 75 218.5 53.5 c 128,-1,4
 236 32 236 32 264 32 c 2,5,-1
 300 32 l 1,6,-1
 300 0 l 1,7,-1
 62 0 l 1,8,-1
 62 32 l 1,9,-1
 98 32 l 2,10,11
 127 32 127 32 144 53.5 c 128,-1,12
 161 75 161 75 161 112 c 2,13,-1
 161 653 l 2,14,15
 160 667 160 667 154 673.5 c 128,-1,16
 148 680 148 680 134 680 c 2,17,-1
 62 680 l 1,18,-1
 62 712 l 1,19,-1
 251 712 l 1,20,-1
 598 154 l 1,21,-1
 598 600 l 2,22,23
 598 637 598 637 581 658.5 c 128,-1,24
 564 680 564 680 536 680 c 2,25,-1
 500 680 l 1,26,-1
 500 712 l 1,27,-1
 738 712 l 1,28,-1
 738 680 l 1,29,-1
 702 680 l 2,30,31
 674 680 674 680 656 658.5 c 128,-1,32
 638 637 638 637 638 600 c 2,33,-1
 638 -18 l 1,34,-1
 598 -18 l 1,35,-1
 205 603 l 1,0,-1
366 -227 m 1,36,37
 392 -215 392 -215 411.5 -193.5 c 128,-1,38
 431 -172 431 -172 431 -152 c 0,39,40
 431 -136 431 -136 423 -130 c 0,41,42
 417 -126 417 -126 399 -126 c 0,43,44
 383 -126 383 -126 373.5 -113 c 128,-1,45
 364 -100 364 -100 364 -85 c 0,46,47
 364 -64 364 -64 377.5 -52 c 128,-1,48
 391 -40 391 -40 411 -40 c 0,49,50
 437 -40 437 -40 452.5 -59 c 128,-1,51
 468 -78 468 -78 468 -106 c 0,52,53
 468 -149 468 -149 440.5 -186 c 128,-1,54
 413 -223 413 -223 376 -238 c 1,55,-1
 366 -227 l 1,36,37
EndSplineSet
Validated: 1
EndChar

StartChar: uni1E44
Encoding: 657 7748 120
Width: 770
GlyphClass: 1
Flags: W
LayerCount: 2
Fore
SplineSet
379 813 m 128,-1,1
 364 828 364 828 364 850 c 0,2,3
 364 873 364 873 379 887.5 c 128,-1,4
 394 902 394 902 416 902 c 0,5,6
 439 902 439 902 453.5 887.5 c 128,-1,7
 468 873 468 873 468 850 c 0,8,9
 468 828 468 828 453.5 813 c 128,-1,10
 439 798 439 798 416 798 c 0,11,0
 394 798 394 798 379 813 c 128,-1,1
205 603 m 1,12,-1
 201 603 l 1,13,-1
 201 112 l 2,14,15
 201 75 201 75 218.5 53.5 c 128,-1,16
 236 32 236 32 264 32 c 2,17,-1
 300 32 l 1,18,-1
 300 0 l 1,19,-1
 62 0 l 1,20,-1
 62 32 l 1,21,-1
 98 32 l 2,22,23
 127 32 127 32 144 53.5 c 128,-1,24
 161 75 161 75 161 112 c 2,25,-1
 161 653 l 2,26,27
 160 667 160 667 154 673.5 c 128,-1,28
 148 680 148 680 134 680 c 2,29,-1
 62 680 l 1,30,-1
 62 712 l 1,31,-1
 251 712 l 1,32,-1
 598 154 l 1,33,-1
 598 600 l 2,34,35
 598 637 598 637 581 658.5 c 128,-1,36
 564 680 564 680 536 680 c 2,37,-1
 500 680 l 1,38,-1
 500 712 l 1,39,-1
 738 712 l 1,40,-1
 738 680 l 1,41,-1
 702 680 l 2,42,43
 674 680 674 680 656 658.5 c 128,-1,44
 638 637 638 637 638 600 c 2,45,-1
 638 -18 l 1,46,-1
 598 -18 l 1,47,-1
 205 603 l 1,12,-1
EndSplineSet
Validated: 1
EndChar

StartChar: uni1E46
Encoding: 659 7750 121
Width: 770
GlyphClass: 1
Flags: W
LayerCount: 2
Fore
SplineSet
205 603 m 1,0,-1
 201 603 l 1,1,-1
 201 112 l 2,2,3
 201 75 201 75 218.5 53.5 c 128,-1,4
 236 32 236 32 264 32 c 2,5,-1
 300 32 l 1,6,-1
 300 0 l 1,7,-1
 62 0 l 1,8,-1
 62 32 l 1,9,-1
 98 32 l 2,10,11
 127 32 127 32 144 53.5 c 128,-1,12
 161 75 161 75 161 112 c 2,13,-1
 161 653 l 2,14,15
 160 667 160 667 154 673.5 c 128,-1,16
 148 680 148 680 134 680 c 2,17,-1
 62 680 l 1,18,-1
 62 712 l 1,19,-1
 251 712 l 1,20,-1
 598 154 l 1,21,-1
 598 600 l 2,22,23
 598 637 598 637 581 658.5 c 128,-1,24
 564 680 564 680 536 680 c 2,25,-1
 500 680 l 1,26,-1
 500 712 l 1,27,-1
 738 712 l 1,28,-1
 738 680 l 1,29,-1
 702 680 l 2,30,31
 674 680 674 680 656 658.5 c 128,-1,32
 638 637 638 637 638 600 c 2,33,-1
 638 -18 l 1,34,-1
 598 -18 l 1,35,-1
 205 603 l 1,0,-1
379 -179.5 m 128,-1,37
 364 -165 364 -165 364 -142 c 0,38,39
 364 -120 364 -120 379 -105 c 128,-1,40
 394 -90 394 -90 416 -90 c 0,41,42
 439 -90 439 -90 453.5 -105 c 128,-1,43
 468 -120 468 -120 468 -142 c 0,44,45
 468 -165 468 -165 453.5 -179.5 c 128,-1,46
 439 -194 439 -194 416 -194 c 0,47,36
 394 -194 394 -194 379 -179.5 c 128,-1,37
EndSplineSet
Validated: 1
EndChar

StartChar: Eng
Encoding: 264 330 122
Width: 770
GlyphClass: 1
Flags: W
LayerCount: 2
Fore
SplineSet
417.5 -213 m 128,-1,1
 387 -188 387 -188 387 -153 c 0,2,3
 387 -134 387 -134 398 -122 c 128,-1,4
 409 -110 409 -110 425 -110 c 0,5,6
 444 -110 444 -110 453 -123 c 128,-1,7
 462 -136 462 -136 465 -158 c 0,8,9
 470 -181 470 -181 482 -193.5 c 128,-1,10
 494 -206 494 -206 512 -206 c 0,11,12
 544 -206 544 -206 571 -183 c 128,-1,13
 598 -160 598 -160 598 -116 c 2,14,-1
 598 -18 l 1,15,-1
 205 603 l 1,16,-1
 201 603 l 1,17,-1
 201 112 l 2,18,19
 201 75 201 75 218.5 53.5 c 128,-1,20
 236 32 236 32 264 32 c 2,21,-1
 300 32 l 1,22,-1
 300 0 l 1,23,-1
 62 0 l 1,24,-1
 62 32 l 1,25,-1
 98 32 l 2,26,27
 127 32 127 32 144 53.5 c 128,-1,28
 161 75 161 75 161 112 c 2,29,-1
 161 653 l 2,30,31
 160 667 160 667 154 673.5 c 128,-1,32
 148 680 148 680 134 680 c 2,33,-1
 62 680 l 1,34,-1
 62 712 l 1,35,-1
 251 712 l 1,36,-1
 598 154 l 1,37,-1
 598 600 l 2,38,39
 598 637 598 637 581 658.5 c 128,-1,40
 564 680 564 680 536 680 c 2,41,-1
 500 680 l 1,42,-1
 500 712 l 1,43,-1
 738 712 l 1,44,-1
 738 680 l 1,45,-1
 702 680 l 2,46,47
 674 680 674 680 656 658.5 c 128,-1,48
 638 637 638 637 638 600 c 2,49,-1
 638 -99 l 2,50,51
 638 -161 638 -161 598.5 -199.5 c 128,-1,52
 559 -238 559 -238 493 -238 c 0,53,0
 448 -238 448 -238 417.5 -213 c 128,-1,1
EndSplineSet
Validated: 1
EndChar

StartChar: uni01CB
Encoding: 330 459 123
Width: 1090
GlyphClass: 1
Flags: W
LayerCount: 2
Fore
SplineSet
205 603 m 1,0,-1
 201 603 l 1,1,-1
 201 112 l 2,2,3
 201 75 201 75 218.5 53.5 c 128,-1,4
 236 32 236 32 264 32 c 2,5,-1
 300 32 l 1,6,-1
 300 0 l 1,7,-1
 62 0 l 1,8,-1
 62 32 l 1,9,-1
 98 32 l 2,10,11
 127 32 127 32 144 53.5 c 128,-1,12
 161 75 161 75 161 112 c 2,13,-1
 161 653 l 2,14,15
 160 667 160 667 154 673.5 c 128,-1,16
 148 680 148 680 134 680 c 2,17,-1
 62 680 l 1,18,-1
 62 712 l 1,19,-1
 251 712 l 1,20,-1
 598 154 l 1,21,-1
 598 600 l 2,22,23
 598 637 598 637 581 658.5 c 128,-1,24
 564 680 564 680 536 680 c 2,25,-1
 500 680 l 1,26,-1
 500 712 l 1,27,-1
 738 712 l 1,28,-1
 738 680 l 1,29,-1
 702 680 l 2,30,31
 674 680 674 680 656 658.5 c 128,-1,32
 638 637 638 637 638 600 c 2,33,-1
 638 -18 l 1,34,-1
 598 -18 l 1,35,-1
 205 603 l 1,0,-1
909 595 m 128,-1,37
 894 610 894 610 894 632 c 0,38,39
 894 655 894 655 909 669.5 c 128,-1,40
 924 684 924 684 946 684 c 0,41,42
 969 684 969 684 983.5 669.5 c 128,-1,43
 998 655 998 655 998 632 c 0,44,45
 998 610 998 610 983.5 595 c 128,-1,46
 969 580 969 580 946 580 c 0,47,36
 924 580 924 580 909 595 c 128,-1,37
762.5 -212.5 m 128,-1,49
 732 -187 732 -187 732 -144 c 0,50,51
 732 -117 732 -117 747.5 -98.5 c 128,-1,52
 763 -80 763 -80 785 -80 c 0,53,54
 802 -80 802 -80 812 -89.5 c 128,-1,55
 822 -99 822 -99 822 -114 c 0,56,57
 822 -126 822 -126 816.5 -134.5 c 128,-1,58
 811 -143 811 -143 801 -152 c 0,59,60
 786 -166 786 -166 786 -182 c 0,61,62
 786 -199 786 -199 801.5 -206.5 c 128,-1,63
 817 -214 817 -214 837 -214 c 0,64,65
 870 -214 870 -214 893 -182 c 128,-1,66
 916 -150 916 -150 916 -71 c 2,67,-1
 916 410 l 2,68,69
 916 422 916 422 911 427 c 128,-1,70
 906 432 906 432 894 432 c 2,71,-1
 822 432 l 1,72,-1
 822 456 l 1,73,-1
 988 456 l 1,74,-1
 988 -43 l 2,75,76
 988 -110 988 -110 965.5 -154 c 128,-1,77
 943 -198 943 -198 908 -218 c 128,-1,78
 873 -238 873 -238 835 -238 c 0,79,48
 793 -238 793 -238 762.5 -212.5 c 128,-1,49
EndSplineSet
Validated: 1
EndChar

StartChar: uni1E48
Encoding: 661 7752 124
Width: 770
GlyphClass: 1
Flags: W
LayerCount: 2
Fore
SplineSet
205 603 m 1,0,-1
 201 603 l 1,1,-1
 201 112 l 2,2,3
 201 75 201 75 218.5 53.5 c 128,-1,4
 236 32 236 32 264 32 c 2,5,-1
 300 32 l 1,6,-1
 300 0 l 1,7,-1
 62 0 l 1,8,-1
 62 32 l 1,9,-1
 98 32 l 2,10,11
 127 32 127 32 144 53.5 c 128,-1,12
 161 75 161 75 161 112 c 2,13,-1
 161 653 l 2,14,15
 160 667 160 667 154 673.5 c 128,-1,16
 148 680 148 680 134 680 c 2,17,-1
 62 680 l 1,18,-1
 62 712 l 1,19,-1
 251 712 l 1,20,-1
 598 154 l 1,21,-1
 598 600 l 2,22,23
 598 637 598 637 581 658.5 c 128,-1,24
 564 680 564 680 536 680 c 2,25,-1
 500 680 l 1,26,-1
 500 712 l 1,27,-1
 738 712 l 1,28,-1
 738 680 l 1,29,-1
 702 680 l 2,30,31
 674 680 674 680 656 658.5 c 128,-1,32
 638 637 638 637 638 600 c 2,33,-1
 638 -18 l 1,34,-1
 598 -18 l 1,35,-1
 205 603 l 1,0,-1
286 -166 m 1,36,-1
 286 -126 l 1,37,-1
 546 -126 l 1,38,-1
 546 -166 l 1,39,-1
 286 -166 l 1,36,-1
EndSplineSet
Validated: 1
EndChar

StartChar: Ntilde
Encoding: 146 209 125
Width: 770
GlyphClass: 1
Flags: W
LayerCount: 2
Fore
SplineSet
260 810 m 1,0,1
 263 848 263 848 285.5 875 c 128,-1,2
 308 902 308 902 346 902 c 0,3,4
 375 902 375 902 436 881 c 0,5,6
 485 864 485 864 508 864 c 0,7,8
 526 864 526 864 537 875 c 128,-1,9
 548 886 548 886 552 906 c 1,10,-1
 572 904 l 1,11,12
 569 866 569 866 546.5 839 c 128,-1,13
 524 812 524 812 486 812 c 0,14,15
 457 812 457 812 396 833 c 0,16,17
 347 850 347 850 324 850 c 0,18,19
 306 850 306 850 295 839 c 128,-1,20
 284 828 284 828 280 808 c 1,21,-1
 260 810 l 1,0,1
205 603 m 1,22,-1
 201 603 l 1,23,-1
 201 112 l 2,24,25
 201 75 201 75 218.5 53.5 c 128,-1,26
 236 32 236 32 264 32 c 2,27,-1
 300 32 l 1,28,-1
 300 0 l 1,29,-1
 62 0 l 1,30,-1
 62 32 l 1,31,-1
 98 32 l 2,32,33
 127 32 127 32 144 53.5 c 128,-1,34
 161 75 161 75 161 112 c 2,35,-1
 161 653 l 2,36,37
 160 667 160 667 154 673.5 c 128,-1,38
 148 680 148 680 134 680 c 2,39,-1
 62 680 l 1,40,-1
 62 712 l 1,41,-1
 251 712 l 1,42,-1
 598 154 l 1,43,-1
 598 600 l 2,44,45
 598 637 598 637 581 658.5 c 128,-1,46
 564 680 564 680 536 680 c 2,47,-1
 500 680 l 1,48,-1
 500 712 l 1,49,-1
 738 712 l 1,50,-1
 738 680 l 1,51,-1
 702 680 l 2,52,53
 674 680 674 680 656 658.5 c 128,-1,54
 638 637 638 637 638 600 c 2,55,-1
 638 -18 l 1,56,-1
 598 -18 l 1,57,-1
 205 603 l 1,22,-1
EndSplineSet
Validated: 1
EndChar

StartChar: O
Encoding: 49 79 126
Width: 700
GlyphClass: 2
Flags: W
AnchorPoint: "Anchor-9" 514 712 basechar 0
AnchorPoint: "Anchor-8" 350 356 basechar 0
AnchorPoint: "Anchor-7" 350 712 basechar 0
AnchorPoint: "Anchor-6" 630 10 basechar 0
AnchorPoint: "Anchor-5" 350 0 basechar 0
LayerCount: 2
Fore
SplineSet
210 35 m 128,-1,1
 144 88 144 88 107 174.5 c 128,-1,2
 70 261 70 261 70 356 c 256,3,4
 70 451 70 451 107 537.5 c 128,-1,5
 144 624 144 624 210 677 c 128,-1,6
 276 730 276 730 360 730 c 256,7,8
 444 730 444 730 510 677 c 128,-1,9
 576 624 576 624 613 537.5 c 128,-1,10
 650 451 650 451 650 356 c 256,11,12
 650 261 650 261 613 174.5 c 128,-1,13
 576 88 576 88 510 35 c 128,-1,14
 444 -18 444 -18 360 -18 c 256,15,0
 276 -18 276 -18 210 35 c 128,-1,1
501 103.5 m 128,-1,17
 544 193 544 193 544 356 c 0,18,19
 544 520 544 520 501 609 c 128,-1,20
 458 698 458 698 360 698 c 256,21,22
 262 698 262 698 219 609 c 128,-1,23
 176 520 176 520 176 356 c 0,24,25
 176 193 176 193 219 103.5 c 128,-1,26
 262 14 262 14 360 14 c 256,27,16
 458 14 458 14 501 103.5 c 128,-1,17
EndSplineSet
Validated: 1
Substitution2: "+U1h9FH9uY9sA lookup 23 +MLUw1jDGMPww1jDr" ordmasculine
Substitution2: "'aalt' +MFkweTBmMG51cE9TW1cweDBuMKIwrzC7MLkA lookup 0 +MLUw1jDGMPww1jDr" ordmasculine
EndChar

StartChar: Oacute
Encoding: 148 211 127
Width: 700
GlyphClass: 1
Flags: W
LayerCount: 2
Fore
SplineSet
335 773 m 1,0,-1
 427 906 l 2,1,2
 440 924 440 924 451 931 c 128,-1,3
 462 938 462 938 476 938 c 0,4,5
 489 938 489 938 496.5 929.5 c 128,-1,6
 504 921 504 921 504 907 c 0,7,8
 504 884 504 884 476 863 c 2,9,-1
 348 762 l 1,10,-1
 335 773 l 1,0,-1
210 35 m 128,-1,12
 144 88 144 88 107 174.5 c 128,-1,13
 70 261 70 261 70 356 c 256,14,15
 70 451 70 451 107 537.5 c 128,-1,16
 144 624 144 624 210 677 c 128,-1,17
 276 730 276 730 360 730 c 256,18,19
 444 730 444 730 510 677 c 128,-1,20
 576 624 576 624 613 537.5 c 128,-1,21
 650 451 650 451 650 356 c 256,22,23
 650 261 650 261 613 174.5 c 128,-1,24
 576 88 576 88 510 35 c 128,-1,25
 444 -18 444 -18 360 -18 c 256,26,11
 276 -18 276 -18 210 35 c 128,-1,12
501 103.5 m 128,-1,28
 544 193 544 193 544 356 c 0,29,30
 544 520 544 520 501 609 c 128,-1,31
 458 698 458 698 360 698 c 256,32,33
 262 698 262 698 219 609 c 128,-1,34
 176 520 176 520 176 356 c 0,35,36
 176 193 176 193 219 103.5 c 128,-1,37
 262 14 262 14 360 14 c 256,38,27
 458 14 458 14 501 103.5 c 128,-1,28
EndSplineSet
Validated: 1
EndChar

StartChar: Obreve
Encoding: 268 334 128
Width: 700
GlyphClass: 1
Flags: W
LayerCount: 2
Fore
SplineSet
276.5 786.5 m 128,-1,1
 242 811 242 811 225.5 847 c 128,-1,2
 209 883 209 883 209 916 c 1,3,-1
 237 916 l 1,4,5
 246 874 246 874 277.5 841 c 128,-1,6
 309 808 309 808 360 808 c 256,7,8
 411 808 411 808 442.5 841 c 128,-1,9
 474 874 474 874 483 916 c 1,10,-1
 511 916 l 1,11,12
 511 883 511 883 494.5 847 c 128,-1,13
 478 811 478 811 443.5 786.5 c 128,-1,14
 409 762 409 762 360 762 c 256,15,0
 311 762 311 762 276.5 786.5 c 128,-1,1
210 35 m 128,-1,17
 144 88 144 88 107 174.5 c 128,-1,18
 70 261 70 261 70 356 c 256,19,20
 70 451 70 451 107 537.5 c 128,-1,21
 144 624 144 624 210 677 c 128,-1,22
 276 730 276 730 360 730 c 256,23,24
 444 730 444 730 510 677 c 128,-1,25
 576 624 576 624 613 537.5 c 128,-1,26
 650 451 650 451 650 356 c 256,27,28
 650 261 650 261 613 174.5 c 128,-1,29
 576 88 576 88 510 35 c 128,-1,30
 444 -18 444 -18 360 -18 c 256,31,16
 276 -18 276 -18 210 35 c 128,-1,17
501 103.5 m 128,-1,33
 544 193 544 193 544 356 c 0,34,35
 544 520 544 520 501 609 c 128,-1,36
 458 698 458 698 360 698 c 256,37,38
 262 698 262 698 219 609 c 128,-1,39
 176 520 176 520 176 356 c 0,40,41
 176 193 176 193 219 103.5 c 128,-1,42
 262 14 262 14 360 14 c 256,43,32
 458 14 458 14 501 103.5 c 128,-1,33
EndSplineSet
Validated: 1
EndChar

StartChar: Ocircumflex
Encoding: 149 212 129
Width: 700
GlyphClass: 1
Flags: W
LayerCount: 2
Fore
SplineSet
202 778 m 1,0,1
 293 830 293 830 340 920 c 1,2,-1
 380 920 l 1,3,4
 427 830 427 830 518 778 c 1,5,-1
 508 762 l 1,6,7
 482 771 482 771 436.5 800.5 c 128,-1,8
 391 830 391 830 360 858 c 1,9,10
 329 830 329 830 283.5 800.5 c 128,-1,11
 238 771 238 771 212 762 c 1,12,-1
 202 778 l 1,0,1
210 35 m 128,-1,14
 144 88 144 88 107 174.5 c 128,-1,15
 70 261 70 261 70 356 c 256,16,17
 70 451 70 451 107 537.5 c 128,-1,18
 144 624 144 624 210 677 c 128,-1,19
 276 730 276 730 360 730 c 256,20,21
 444 730 444 730 510 677 c 128,-1,22
 576 624 576 624 613 537.5 c 128,-1,23
 650 451 650 451 650 356 c 256,24,25
 650 261 650 261 613 174.5 c 128,-1,26
 576 88 576 88 510 35 c 128,-1,27
 444 -18 444 -18 360 -18 c 256,28,13
 276 -18 276 -18 210 35 c 128,-1,14
501 103.5 m 128,-1,30
 544 193 544 193 544 356 c 0,31,32
 544 520 544 520 501 609 c 128,-1,33
 458 698 458 698 360 698 c 256,34,35
 262 698 262 698 219 609 c 128,-1,36
 176 520 176 520 176 356 c 0,37,38
 176 193 176 193 219 103.5 c 128,-1,39
 262 14 262 14 360 14 c 256,40,29
 458 14 458 14 501 103.5 c 128,-1,30
EndSplineSet
Validated: 1
EndChar

StartChar: uni020C
Encoding: 355 524 135
Width: 700
GlyphClass: 1
Flags: W
LayerCount: 2
Fore
SplineSet
176 863 m 2,0,1
 148 884 148 884 148 907 c 0,2,3
 148 921 148 921 155.5 929.5 c 128,-1,4
 163 938 163 938 176 938 c 0,5,6
 190 938 190 938 201 931 c 128,-1,7
 212 924 212 924 225 906 c 2,8,-1
 317 773 l 1,9,-1
 304 762 l 1,10,-1
 176 863 l 2,0,1
312 863 m 2,11,12
 284 884 284 884 284 907 c 0,13,14
 284 921 284 921 291.5 929.5 c 128,-1,15
 299 938 299 938 312 938 c 0,16,17
 326 938 326 938 337 931 c 128,-1,18
 348 924 348 924 361 906 c 2,19,-1
 453 773 l 1,20,-1
 440 762 l 1,21,-1
 312 863 l 2,11,12
210 35 m 128,-1,23
 144 88 144 88 107 174.5 c 128,-1,24
 70 261 70 261 70 356 c 256,25,26
 70 451 70 451 107 537.5 c 128,-1,27
 144 624 144 624 210 677 c 128,-1,28
 276 730 276 730 360 730 c 256,29,30
 444 730 444 730 510 677 c 128,-1,31
 576 624 576 624 613 537.5 c 128,-1,32
 650 451 650 451 650 356 c 256,33,34
 650 261 650 261 613 174.5 c 128,-1,35
 576 88 576 88 510 35 c 128,-1,36
 444 -18 444 -18 360 -18 c 256,37,22
 276 -18 276 -18 210 35 c 128,-1,23
501 103.5 m 128,-1,39
 544 193 544 193 544 356 c 0,40,41
 544 520 544 520 501 609 c 128,-1,42
 458 698 458 698 360 698 c 256,43,44
 262 698 262 698 219 609 c 128,-1,45
 176 520 176 520 176 356 c 0,46,47
 176 193 176 193 219 103.5 c 128,-1,48
 262 14 262 14 360 14 c 256,49,38
 458 14 458 14 501 103.5 c 128,-1,39
EndSplineSet
Validated: 1
EndChar

StartChar: Odieresis
Encoding: 151 214 136
Width: 700
GlyphClass: 1
Flags: W
LayerCount: 2
Fore
SplineSet
221 813 m 128,-1,1
 206 828 206 828 206 850 c 0,2,3
 206 873 206 873 221 887.5 c 128,-1,4
 236 902 236 902 258 902 c 0,5,6
 281 902 281 902 295.5 887.5 c 128,-1,7
 310 873 310 873 310 850 c 0,8,9
 310 828 310 828 295.5 813 c 128,-1,10
 281 798 281 798 258 798 c 0,11,0
 236 798 236 798 221 813 c 128,-1,1
425 813 m 128,-1,13
 410 828 410 828 410 850 c 0,14,15
 410 873 410 873 425 887.5 c 128,-1,16
 440 902 440 902 462 902 c 0,17,18
 485 902 485 902 499.5 887.5 c 128,-1,19
 514 873 514 873 514 850 c 0,20,21
 514 828 514 828 499.5 813 c 128,-1,22
 485 798 485 798 462 798 c 0,23,12
 440 798 440 798 425 813 c 128,-1,13
210 35 m 128,-1,25
 144 88 144 88 107 174.5 c 128,-1,26
 70 261 70 261 70 356 c 256,27,28
 70 451 70 451 107 537.5 c 128,-1,29
 144 624 144 624 210 677 c 128,-1,30
 276 730 276 730 360 730 c 256,31,32
 444 730 444 730 510 677 c 128,-1,33
 576 624 576 624 613 537.5 c 128,-1,34
 650 451 650 451 650 356 c 256,35,36
 650 261 650 261 613 174.5 c 128,-1,37
 576 88 576 88 510 35 c 128,-1,38
 444 -18 444 -18 360 -18 c 256,39,24
 276 -18 276 -18 210 35 c 128,-1,25
501 103.5 m 128,-1,41
 544 193 544 193 544 356 c 0,42,43
 544 520 544 520 501 609 c 128,-1,44
 458 698 458 698 360 698 c 256,45,46
 262 698 262 698 219 609 c 128,-1,47
 176 520 176 520 176 356 c 0,48,49
 176 193 176 193 219 103.5 c 128,-1,50
 262 14 262 14 360 14 c 256,51,40
 458 14 458 14 501 103.5 c 128,-1,41
EndSplineSet
Validated: 1
EndChar

StartChar: Ograve
Encoding: 147 210 138
Width: 700
GlyphClass: 1
Flags: W
LayerCount: 2
Fore
SplineSet
244 863 m 2,0,1
 216 884 216 884 216 907 c 0,2,3
 216 921 216 921 223.5 929.5 c 128,-1,4
 231 938 231 938 244 938 c 0,5,6
 258 938 258 938 269 931 c 128,-1,7
 280 924 280 924 293 906 c 2,8,-1
 385 773 l 1,9,-1
 372 762 l 1,10,-1
 244 863 l 2,0,1
210 35 m 128,-1,12
 144 88 144 88 107 174.5 c 128,-1,13
 70 261 70 261 70 356 c 256,14,15
 70 451 70 451 107 537.5 c 128,-1,16
 144 624 144 624 210 677 c 128,-1,17
 276 730 276 730 360 730 c 256,18,19
 444 730 444 730 510 677 c 128,-1,20
 576 624 576 624 613 537.5 c 128,-1,21
 650 451 650 451 650 356 c 256,22,23
 650 261 650 261 613 174.5 c 128,-1,24
 576 88 576 88 510 35 c 128,-1,25
 444 -18 444 -18 360 -18 c 256,26,11
 276 -18 276 -18 210 35 c 128,-1,12
501 103.5 m 128,-1,28
 544 193 544 193 544 356 c 0,29,30
 544 520 544 520 501 609 c 128,-1,31
 458 698 458 698 360 698 c 256,32,33
 262 698 262 698 219 609 c 128,-1,34
 176 520 176 520 176 356 c 0,35,36
 176 193 176 193 219 103.5 c 128,-1,37
 262 14 262 14 360 14 c 256,38,27
 458 14 458 14 501 103.5 c 128,-1,28
EndSplineSet
Validated: 1
EndChar

StartChar: Ohorn
Encoding: 319 416 140
Width: 700
GlyphClass: 2
Flags: W
AnchorPoint: "Anchor-9" 514 712 basechar 0
AnchorPoint: "Anchor-8" 350 356 basechar 0
AnchorPoint: "Anchor-7" 350 712 basechar 0
AnchorPoint: "Anchor-6" 630 10 basechar 0
AnchorPoint: "Anchor-5" 350 0 basechar 0
LayerCount: 2
Fore
SplineSet
605 555 m 128,-1,1
 650 462 650 462 650 356 c 0,2,3
 650 261 650 261 613 174.5 c 128,-1,4
 576 88 576 88 510 35 c 128,-1,5
 444 -18 444 -18 360 -18 c 256,6,7
 276 -18 276 -18 210 35 c 128,-1,8
 144 88 144 88 107 174.5 c 128,-1,9
 70 261 70 261 70 356 c 256,10,11
 70 451 70 451 107 537.5 c 128,-1,12
 144 624 144 624 210 677 c 128,-1,13
 276 730 276 730 360 730 c 0,14,15
 408 730 408 730 450 712 c 1,16,17
 494 714 494 714 508.5 737 c 128,-1,18
 523 760 523 760 522 812 c 1,19,-1
 585 812 l 1,20,-1
 586 797 l 2,21,22
 586 751 586 751 558.5 726 c 128,-1,23
 531 701 531 701 484 695 c 1,24,0
 560 648 560 648 605 555 c 128,-1,1
501 103.5 m 128,-1,26
 544 193 544 193 544 356 c 0,27,28
 544 520 544 520 501 609 c 128,-1,29
 458 698 458 698 360 698 c 256,30,31
 262 698 262 698 219 609 c 128,-1,32
 176 520 176 520 176 356 c 0,33,34
 176 193 176 193 219 103.5 c 128,-1,35
 262 14 262 14 360 14 c 256,36,25
 458 14 458 14 501 103.5 c 128,-1,26
EndSplineSet
Validated: 33
EndChar

StartChar: Ohungarumlaut
Encoding: 270 336 146
Width: 700
GlyphClass: 1
Flags: W
LayerCount: 2
Fore
SplineSet
267 773 m 1,0,-1
 359 906 l 2,1,2
 372 924 372 924 383 931 c 128,-1,3
 394 938 394 938 408 938 c 0,4,5
 421 938 421 938 428.5 929.5 c 128,-1,6
 436 921 436 921 436 907 c 0,7,8
 436 884 436 884 408 863 c 2,9,-1
 280 762 l 1,10,-1
 267 773 l 1,0,-1
403 773 m 1,11,-1
 495 906 l 2,12,13
 508 924 508 924 519 931 c 128,-1,14
 530 938 530 938 544 938 c 0,15,16
 557 938 557 938 564.5 929.5 c 128,-1,17
 572 921 572 921 572 907 c 0,18,19
 572 884 572 884 544 863 c 2,20,-1
 416 762 l 1,21,-1
 403 773 l 1,11,-1
210 35 m 128,-1,23
 144 88 144 88 107 174.5 c 128,-1,24
 70 261 70 261 70 356 c 256,25,26
 70 451 70 451 107 537.5 c 128,-1,27
 144 624 144 624 210 677 c 128,-1,28
 276 730 276 730 360 730 c 256,29,30
 444 730 444 730 510 677 c 128,-1,31
 576 624 576 624 613 537.5 c 128,-1,32
 650 451 650 451 650 356 c 256,33,34
 650 261 650 261 613 174.5 c 128,-1,35
 576 88 576 88 510 35 c 128,-1,36
 444 -18 444 -18 360 -18 c 256,37,22
 276 -18 276 -18 210 35 c 128,-1,23
501 103.5 m 128,-1,39
 544 193 544 193 544 356 c 0,40,41
 544 520 544 520 501 609 c 128,-1,42
 458 698 458 698 360 698 c 256,43,44
 262 698 262 698 219 609 c 128,-1,45
 176 520 176 520 176 356 c 0,46,47
 176 193 176 193 219 103.5 c 128,-1,48
 262 14 262 14 360 14 c 256,49,38
 458 14 458 14 501 103.5 c 128,-1,39
EndSplineSet
Validated: 1
EndChar

StartChar: uni020E
Encoding: 357 526 147
Width: 700
GlyphClass: 1
Flags: W
LayerCount: 2
Fore
SplineSet
213 770 m 1,0,1
 220 801 220 801 242 836.5 c 128,-1,2
 264 872 264 872 295 896 c 128,-1,3
 326 920 326 920 360 920 c 256,4,5
 394 920 394 920 425 896 c 128,-1,6
 456 872 456 872 478 836.5 c 128,-1,7
 500 801 500 801 507 770 c 1,8,-1
 487 762 l 1,9,10
 466 807 466 807 433 835.5 c 128,-1,11
 400 864 400 864 360 864 c 256,12,13
 320 864 320 864 287 835.5 c 128,-1,14
 254 807 254 807 233 762 c 1,15,-1
 213 770 l 1,0,1
210 35 m 128,-1,17
 144 88 144 88 107 174.5 c 128,-1,18
 70 261 70 261 70 356 c 256,19,20
 70 451 70 451 107 537.5 c 128,-1,21
 144 624 144 624 210 677 c 128,-1,22
 276 730 276 730 360 730 c 256,23,24
 444 730 444 730 510 677 c 128,-1,25
 576 624 576 624 613 537.5 c 128,-1,26
 650 451 650 451 650 356 c 256,27,28
 650 261 650 261 613 174.5 c 128,-1,29
 576 88 576 88 510 35 c 128,-1,30
 444 -18 444 -18 360 -18 c 256,31,16
 276 -18 276 -18 210 35 c 128,-1,17
501 103.5 m 128,-1,33
 544 193 544 193 544 356 c 0,34,35
 544 520 544 520 501 609 c 128,-1,36
 458 698 458 698 360 698 c 256,37,38
 262 698 262 698 219 609 c 128,-1,39
 176 520 176 520 176 356 c 0,40,41
 176 193 176 193 219 103.5 c 128,-1,42
 262 14 262 14 360 14 c 256,43,32
 458 14 458 14 501 103.5 c 128,-1,33
EndSplineSet
Validated: 1
EndChar

StartChar: Omacron
Encoding: 266 332 148
Width: 700
GlyphClass: 1
Flags: W
LayerCount: 2
Fore
SplineSet
224 822 m 1,0,-1
 224 862 l 1,1,-1
 496 862 l 1,2,-1
 496 822 l 1,3,-1
 224 822 l 1,0,-1
210 35 m 128,-1,5
 144 88 144 88 107 174.5 c 128,-1,6
 70 261 70 261 70 356 c 256,7,8
 70 451 70 451 107 537.5 c 128,-1,9
 144 624 144 624 210 677 c 128,-1,10
 276 730 276 730 360 730 c 256,11,12
 444 730 444 730 510 677 c 128,-1,13
 576 624 576 624 613 537.5 c 128,-1,14
 650 451 650 451 650 356 c 256,15,16
 650 261 650 261 613 174.5 c 128,-1,17
 576 88 576 88 510 35 c 128,-1,18
 444 -18 444 -18 360 -18 c 256,19,4
 276 -18 276 -18 210 35 c 128,-1,5
501 103.5 m 128,-1,21
 544 193 544 193 544 356 c 0,22,23
 544 520 544 520 501 609 c 128,-1,24
 458 698 458 698 360 698 c 256,25,26
 262 698 262 698 219 609 c 128,-1,27
 176 520 176 520 176 356 c 0,28,29
 176 193 176 193 219 103.5 c 128,-1,30
 262 14 262 14 360 14 c 256,31,20
 458 14 458 14 501 103.5 c 128,-1,21
EndSplineSet
Validated: 1
EndChar

StartChar: uni1E52
Encoding: 669 7762 149
Width: 700
GlyphClass: 1
Flags: W
LayerCount: 2
Fore
SplineSet
320 840 m 1,0,-1
 431 931 l 2,1,2
 457 952 457 952 476 952 c 0,3,4
 490 952 490 952 499 941.5 c 128,-1,5
 508 931 508 931 508 918 c 0,6,7
 508 902 508 902 495 892.5 c 128,-1,8
 482 883 482 883 461 876 c 2,9,-1
 327 828 l 1,10,-1
 320 840 l 1,0,-1
224 776 m 1,11,-1
 224 812 l 1,12,-1
 496 812 l 1,13,-1
 496 776 l 1,14,-1
 224 776 l 1,11,-1
210 35 m 128,-1,16
 144 88 144 88 107 174.5 c 128,-1,17
 70 261 70 261 70 356 c 256,18,19
 70 451 70 451 107 537.5 c 128,-1,20
 144 624 144 624 210 677 c 128,-1,21
 276 730 276 730 360 730 c 256,22,23
 444 730 444 730 510 677 c 128,-1,24
 576 624 576 624 613 537.5 c 128,-1,25
 650 451 650 451 650 356 c 256,26,27
 650 261 650 261 613 174.5 c 128,-1,28
 576 88 576 88 510 35 c 128,-1,29
 444 -18 444 -18 360 -18 c 256,30,15
 276 -18 276 -18 210 35 c 128,-1,16
501 103.5 m 128,-1,32
 544 193 544 193 544 356 c 0,33,34
 544 520 544 520 501 609 c 128,-1,35
 458 698 458 698 360 698 c 256,36,37
 262 698 262 698 219 609 c 128,-1,38
 176 520 176 520 176 356 c 0,39,40
 176 193 176 193 219 103.5 c 128,-1,41
 262 14 262 14 360 14 c 256,42,31
 458 14 458 14 501 103.5 c 128,-1,32
EndSplineSet
Validated: 1
EndChar

StartChar: uni1E50
Encoding: 667 7760 150
Width: 700
GlyphClass: 1
Flags: W
LayerCount: 2
Fore
SplineSet
259 876 m 2,0,1
 238 883 238 883 225 892.5 c 128,-1,2
 212 902 212 902 212 918 c 0,3,4
 212 931 212 931 221 941.5 c 128,-1,5
 230 952 230 952 244 952 c 0,6,7
 263 952 263 952 289 931 c 2,8,-1
 400 840 l 1,9,-1
 393 828 l 1,10,-1
 259 876 l 2,0,1
224 776 m 1,11,-1
 224 812 l 1,12,-1
 496 812 l 1,13,-1
 496 776 l 1,14,-1
 224 776 l 1,11,-1
210 35 m 128,-1,16
 144 88 144 88 107 174.5 c 128,-1,17
 70 261 70 261 70 356 c 256,18,19
 70 451 70 451 107 537.5 c 128,-1,20
 144 624 144 624 210 677 c 128,-1,21
 276 730 276 730 360 730 c 256,22,23
 444 730 444 730 510 677 c 128,-1,24
 576 624 576 624 613 537.5 c 128,-1,25
 650 451 650 451 650 356 c 256,26,27
 650 261 650 261 613 174.5 c 128,-1,28
 576 88 576 88 510 35 c 128,-1,29
 444 -18 444 -18 360 -18 c 256,30,15
 276 -18 276 -18 210 35 c 128,-1,16
501 103.5 m 128,-1,32
 544 193 544 193 544 356 c 0,33,34
 544 520 544 520 501 609 c 128,-1,35
 458 698 458 698 360 698 c 256,36,37
 262 698 262 698 219 609 c 128,-1,38
 176 520 176 520 176 356 c 0,39,40
 176 193 176 193 219 103.5 c 128,-1,41
 262 14 262 14 360 14 c 256,42,31
 458 14 458 14 501 103.5 c 128,-1,32
EndSplineSet
Validated: 1
EndChar

StartChar: uni01EA
Encoding: 332 490 151
Width: 700
GlyphClass: 1
Flags: W
LayerCount: 2
Fore
SplineSet
261.5 -213.5 m 128,-1,1
 236 -189 236 -189 236 -148 c 0,2,3
 236 -110 236 -110 260.5 -79 c 128,-1,4
 285 -48 285 -48 329 -20 c 1,5,-1
 329 -16 l 1,6,7
 253 -6 253 -6 194 48 c 128,-1,8
 135 102 135 102 102.5 184 c 128,-1,9
 70 266 70 266 70 356 c 0,10,11
 70 451 70 451 107 537.5 c 128,-1,12
 144 624 144 624 210 677 c 128,-1,13
 276 730 276 730 360 730 c 256,14,15
 444 730 444 730 510 677 c 128,-1,16
 576 624 576 624 613 537.5 c 128,-1,17
 650 451 650 451 650 356 c 0,18,19
 650 265 650 265 616.5 183 c 128,-1,20
 583 101 583 101 524.5 47.5 c 128,-1,21
 466 -6 466 -6 395 -16 c 0,22,23
 359 -20 359 -20 334 -52 c 0,24,25
 304 -89 304 -89 304 -135 c 0,26,27
 304 -160 304 -160 318 -177 c 128,-1,28
 332 -194 332 -194 356 -194 c 0,29,30
 378 -194 378 -194 391.5 -187.5 c 128,-1,31
 405 -181 405 -181 418 -167 c 1,32,-1
 430 -176 l 1,33,34
 417 -201 417 -201 392 -219.5 c 128,-1,35
 367 -238 367 -238 331 -238 c 0,36,0
 287 -238 287 -238 261.5 -213.5 c 128,-1,1
501 103.5 m 128,-1,38
 544 193 544 193 544 356 c 0,39,40
 544 520 544 520 501 609 c 128,-1,41
 458 698 458 698 360 698 c 256,42,43
 262 698 262 698 219 609 c 128,-1,44
 176 520 176 520 176 356 c 0,45,46
 176 193 176 193 219 103.5 c 128,-1,47
 262 14 262 14 360 14 c 256,48,37
 458 14 458 14 501 103.5 c 128,-1,38
EndSplineSet
Validated: 1
EndChar

StartChar: Oslash
Encoding: 153 216 152
Width: 700
GlyphClass: 1
Flags: W
LayerCount: 2
Fore
SplineSet
70 6 m 1,0,-1
 145 105 l 1,1,2
 109 157 109 157 89.5 222.5 c 128,-1,3
 70 288 70 288 70 356 c 0,4,5
 70 451 70 451 106.5 537.5 c 128,-1,6
 143 624 143 624 209.5 677 c 128,-1,7
 276 730 276 730 360 730 c 0,8,9
 415 730 415 730 463 706.5 c 128,-1,10
 511 683 511 683 549 641 c 1,11,-1
 616 730 l 1,12,-1
 648 706 l 1,13,-1
 574 608 l 1,14,15
 611 556 611 556 630.5 490.5 c 128,-1,16
 650 425 650 425 650 356 c 0,17,18
 650 261 650 261 613 174.5 c 128,-1,19
 576 88 576 88 510 35 c 128,-1,20
 444 -18 444 -18 360 -18 c 0,21,22
 305 -18 305 -18 256.5 5.5 c 128,-1,23
 208 29 208 29 170 72 c 1,24,-1
 102 -18 l 1,25,-1
 70 6 l 1,0,-1
510 589 m 1,26,27
 466 698 466 698 360 698 c 0,28,29
 262 698 262 698 219 609 c 128,-1,30
 176 520 176 520 176 356 c 0,31,32
 176 249 176 249 194 171 c 1,33,-1
 510 589 l 1,26,27
501 103.5 m 128,-1,35
 544 193 544 193 544 356 c 0,36,37
 544 467 544 467 525 543 c 1,38,-1
 209 124 l 1,39,40
 254 14 254 14 360 14 c 0,41,34
 458 14 458 14 501 103.5 c 128,-1,35
EndSplineSet
Validated: 1
EndChar

StartChar: Oslashacute
Encoding: 341 510 153
Width: 700
GlyphClass: 1
Flags: W
LayerCount: 2
Fore
SplineSet
343 773 m 1,0,-1
 435 906 l 2,1,2
 448 924 448 924 459 931 c 128,-1,3
 470 938 470 938 484 938 c 0,4,5
 497 938 497 938 504.5 929.5 c 128,-1,6
 512 921 512 921 512 907 c 0,7,8
 512 884 512 884 484 863 c 2,9,-1
 356 762 l 1,10,-1
 343 773 l 1,0,-1
70 6 m 1,11,-1
 145 105 l 1,12,13
 109 157 109 157 89.5 222.5 c 128,-1,14
 70 288 70 288 70 356 c 0,15,16
 70 451 70 451 106.5 537.5 c 128,-1,17
 143 624 143 624 209.5 677 c 128,-1,18
 276 730 276 730 360 730 c 0,19,20
 415 730 415 730 463 706.5 c 128,-1,21
 511 683 511 683 549 641 c 1,22,-1
 616 730 l 1,23,-1
 648 706 l 1,24,-1
 574 608 l 1,25,26
 611 556 611 556 630.5 490.5 c 128,-1,27
 650 425 650 425 650 356 c 0,28,29
 650 261 650 261 613 174.5 c 128,-1,30
 576 88 576 88 510 35 c 128,-1,31
 444 -18 444 -18 360 -18 c 0,32,33
 305 -18 305 -18 256.5 5.5 c 128,-1,34
 208 29 208 29 170 72 c 1,35,-1
 102 -18 l 1,36,-1
 70 6 l 1,11,-1
510 589 m 1,37,38
 466 698 466 698 360 698 c 0,39,40
 262 698 262 698 219 609 c 128,-1,41
 176 520 176 520 176 356 c 0,42,43
 176 249 176 249 194 171 c 1,44,-1
 510 589 l 1,37,38
501 103.5 m 128,-1,46
 544 193 544 193 544 356 c 0,47,48
 544 467 544 467 525 543 c 1,49,-1
 209 124 l 1,50,51
 254 14 254 14 360 14 c 0,52,45
 458 14 458 14 501 103.5 c 128,-1,46
EndSplineSet
Validated: 1
EndChar

StartChar: Otilde
Encoding: 150 213 154
Width: 700
GlyphClass: 1
Flags: W
LayerCount: 2
Fore
SplineSet
204 810 m 1,0,1
 207 848 207 848 229.5 875 c 128,-1,2
 252 902 252 902 290 902 c 0,3,4
 319 902 319 902 380 881 c 0,5,6
 429 864 429 864 452 864 c 0,7,8
 470 864 470 864 481 875 c 128,-1,9
 492 886 492 886 496 906 c 1,10,-1
 516 904 l 1,11,12
 513 866 513 866 490.5 839 c 128,-1,13
 468 812 468 812 430 812 c 0,14,15
 401 812 401 812 340 833 c 0,16,17
 291 850 291 850 268 850 c 0,18,19
 250 850 250 850 239 839 c 128,-1,20
 228 828 228 828 224 808 c 1,21,-1
 204 810 l 1,0,1
210 35 m 128,-1,23
 144 88 144 88 107 174.5 c 128,-1,24
 70 261 70 261 70 356 c 256,25,26
 70 451 70 451 107 537.5 c 128,-1,27
 144 624 144 624 210 677 c 128,-1,28
 276 730 276 730 360 730 c 256,29,30
 444 730 444 730 510 677 c 128,-1,31
 576 624 576 624 613 537.5 c 128,-1,32
 650 451 650 451 650 356 c 256,33,34
 650 261 650 261 613 174.5 c 128,-1,35
 576 88 576 88 510 35 c 128,-1,36
 444 -18 444 -18 360 -18 c 256,37,22
 276 -18 276 -18 210 35 c 128,-1,23
501 103.5 m 128,-1,39
 544 193 544 193 544 356 c 0,40,41
 544 520 544 520 501 609 c 128,-1,42
 458 698 458 698 360 698 c 256,43,44
 262 698 262 698 219 609 c 128,-1,45
 176 520 176 520 176 356 c 0,46,47
 176 193 176 193 219 103.5 c 128,-1,48
 262 14 262 14 360 14 c 256,49,38
 458 14 458 14 501 103.5 c 128,-1,39
EndSplineSet
Validated: 1
EndChar

StartChar: uni1E4C
Encoding: 663 7756 155
Width: 700
GlyphClass: 1
Flags: W
LayerCount: 2
Fore
SplineSet
319 853 m 1,0,-1
 437 934 l 2,1,2
 454 946 454 946 462.5 949 c 128,-1,3
 471 952 471 952 478 952 c 0,4,5
 494 952 494 952 500.5 942 c 128,-1,6
 507 932 507 932 507 922 c 0,7,8
 507 906 507 906 494.5 897.5 c 128,-1,9
 482 889 482 889 463 882 c 2,10,-1
 326 840 l 1,11,-1
 319 853 l 1,0,-1
226 811 m 128,-1,13
 250 831 250 831 293 831 c 0,14,15
 320 831 320 831 374 821 c 256,16,17
 428 811 428 811 456 811 c 0,18,19
 476 811 476 811 488.5 819 c 128,-1,20
 501 827 501 827 503 841 c 1,21,-1
 520 841 l 1,22,23
 518 811 518 811 494 791 c 128,-1,24
 470 771 470 771 427 771 c 0,25,26
 400 771 400 771 346 781 c 256,27,28
 292 791 292 791 264 791 c 0,29,30
 244 791 244 791 231.5 783 c 128,-1,31
 219 775 219 775 217 761 c 1,32,-1
 200 761 l 1,33,12
 202 791 202 791 226 811 c 128,-1,13
210 35 m 128,-1,35
 144 88 144 88 107 174.5 c 128,-1,36
 70 261 70 261 70 356 c 256,37,38
 70 451 70 451 107 537.5 c 128,-1,39
 144 624 144 624 210 677 c 128,-1,40
 276 730 276 730 360 730 c 256,41,42
 444 730 444 730 510 677 c 128,-1,43
 576 624 576 624 613 537.5 c 128,-1,44
 650 451 650 451 650 356 c 256,45,46
 650 261 650 261 613 174.5 c 128,-1,47
 576 88 576 88 510 35 c 128,-1,48
 444 -18 444 -18 360 -18 c 256,49,34
 276 -18 276 -18 210 35 c 128,-1,35
501 103.5 m 128,-1,51
 544 193 544 193 544 356 c 0,52,53
 544 520 544 520 501 609 c 128,-1,54
 458 698 458 698 360 698 c 256,55,56
 262 698 262 698 219 609 c 128,-1,57
 176 520 176 520 176 356 c 0,58,59
 176 193 176 193 219 103.5 c 128,-1,60
 262 14 262 14 360 14 c 256,61,50
 458 14 458 14 501 103.5 c 128,-1,51
EndSplineSet
Validated: 1
EndChar

StartChar: uni1E4E
Encoding: 665 7758 156
Width: 700
GlyphClass: 1
Flags: W
LayerCount: 2
Fore
SplineSet
230 882 m 128,-1,1
 218 894 218 894 218 910 c 0,2,3
 218 927 218 927 230 938.5 c 128,-1,4
 242 950 242 950 258 950 c 0,5,6
 275 950 275 950 286.5 938.5 c 128,-1,7
 298 927 298 927 298 910 c 0,8,9
 298 894 298 894 286.5 882 c 128,-1,10
 275 870 275 870 258 870 c 0,11,0
 242 870 242 870 230 882 c 128,-1,1
434 882 m 128,-1,13
 422 894 422 894 422 910 c 0,14,15
 422 927 422 927 434 938.5 c 128,-1,16
 446 950 446 950 462 950 c 0,17,18
 479 950 479 950 490.5 938.5 c 128,-1,19
 502 927 502 927 502 910 c 0,20,21
 502 894 502 894 490.5 882 c 128,-1,22
 479 870 479 870 462 870 c 0,23,12
 446 870 446 870 434 882 c 128,-1,13
228.5 820 m 128,-1,25
 256 846 256 846 298 846 c 0,26,27
 317 846 317 846 334.5 842 c 128,-1,28
 352 838 352 838 377 830 c 256,29,30
 402 822 402 822 419.5 818 c 128,-1,31
 437 814 437 814 458 814 c 0,32,33
 494 814 494 814 506 853 c 1,34,-1
 524 853 l 1,35,36
 519 822 519 822 491.5 796 c 128,-1,37
 464 770 464 770 422 770 c 0,38,39
 403 770 403 770 385.5 774 c 128,-1,40
 368 778 368 778 343 786 c 256,41,42
 318 794 318 794 300.5 798 c 128,-1,43
 283 802 283 802 262 802 c 0,44,45
 226 802 226 802 214 763 c 1,46,-1
 196 763 l 1,47,24
 201 794 201 794 228.5 820 c 128,-1,25
210 35 m 128,-1,49
 144 88 144 88 107 174.5 c 128,-1,50
 70 261 70 261 70 356 c 256,51,52
 70 451 70 451 107 537.5 c 128,-1,53
 144 624 144 624 210 677 c 128,-1,54
 276 730 276 730 360 730 c 256,55,56
 444 730 444 730 510 677 c 128,-1,57
 576 624 576 624 613 537.5 c 128,-1,58
 650 451 650 451 650 356 c 256,59,60
 650 261 650 261 613 174.5 c 128,-1,61
 576 88 576 88 510 35 c 128,-1,62
 444 -18 444 -18 360 -18 c 256,63,48
 276 -18 276 -18 210 35 c 128,-1,49
501 103.5 m 128,-1,65
 544 193 544 193 544 356 c 0,66,67
 544 520 544 520 501 609 c 128,-1,68
 458 698 458 698 360 698 c 256,69,70
 262 698 262 698 219 609 c 128,-1,71
 176 520 176 520 176 356 c 0,72,73
 176 193 176 193 219 103.5 c 128,-1,74
 262 14 262 14 360 14 c 256,75,64
 458 14 458 14 501 103.5 c 128,-1,65
EndSplineSet
Validated: 1
EndChar

StartChar: OE
Encoding: 272 338 157
Width: 1048
GlyphClass: 1
Flags: W
LayerCount: 2
Fore
SplineSet
209.5 35 m 128,-1,1
 143 88 143 88 106.5 174.5 c 128,-1,2
 70 261 70 261 70 356 c 256,3,4
 70 451 70 451 106.5 537.5 c 128,-1,5
 143 624 143 624 209.5 677 c 128,-1,6
 276 730 276 730 360 730 c 0,7,8
 375 730 375 730 407 724 c 0,9,10
 453 712 453 712 518 712 c 2,11,-1
 978 712 l 1,12,-1
 982 462 l 1,13,-1
 957 462 l 1,14,15
 957 482 957 482 948.5 530 c 128,-1,16
 940 578 940 578 915 616 c 0,17,18
 873 680 873 680 797 680 c 2,19,-1
 638 680 l 2,20,21
 624 680 624 680 617.5 673.5 c 128,-1,22
 611 667 611 667 611 653 c 2,23,-1
 611 384 l 1,24,-1
 688 384 l 2,25,26
 739 384 739 384 761.5 436 c 128,-1,27
 784 488 784 488 784 547 c 1,28,-1
 810 547 l 1,29,-1
 810 189 l 1,30,-1
 784 189 l 1,31,32
 784 248 784 248 761.5 300 c 128,-1,33
 739 352 739 352 688 352 c 2,34,-1
 611 352 l 1,35,-1
 611 59 l 2,36,37
 611 32 611 32 638 32 c 2,38,-1
 798 32 l 2,39,40
 827 32 827 32 857 45 c 128,-1,41
 887 58 887 58 908 85 c 0,42,43
 928 113 928 113 941 155 c 128,-1,44
 954 197 954 197 959 231.5 c 128,-1,45
 964 266 964 266 965 276 c 1,46,-1
 990 276 l 1,47,-1
 978 0 l 1,48,-1
 519 0 l 2,49,50
 453 0 453 0 407 -12 c 0,51,52
 375 -18 375 -18 360 -18 c 0,53,0
 276 -18 276 -18 209.5 35 c 128,-1,1
477.5 59 m 128,-1,55
 519 104 519 104 519 181 c 2,56,-1
 519 530 l 2,57,58
 519 609 519 609 481 653.5 c 128,-1,59
 443 698 443 698 360 698 c 0,60,61
 262 698 262 698 219 609 c 128,-1,62
 176 520 176 520 176 356 c 0,63,64
 176 193 176 193 219 103.5 c 128,-1,65
 262 14 262 14 360 14 c 0,66,54
 436 14 436 14 477.5 59 c 128,-1,55
EndSplineSet
Validated: 1
EndChar

StartChar: P
Encoding: 50 80 158
Width: 680
GlyphClass: 1
Flags: W
LayerCount: 2
Fore
SplineSet
62 32 m 1,0,-1
 134 32 l 2,1,2
 161 32 161 32 161 59 c 2,3,-1
 161 653 l 2,4,5
 161 667 161 667 154.5 673.5 c 128,-1,6
 148 680 148 680 134 680 c 2,7,-1
 62 680 l 1,8,-1
 62 712 l 1,9,-1
 396 712 l 2,10,11
 466 712 466 712 520.5 688.5 c 128,-1,12
 575 665 575 665 605.5 622.5 c 128,-1,13
 636 580 636 580 636 526 c 0,14,15
 636 471 636 471 605.5 428 c 128,-1,16
 575 385 575 385 520.5 360.5 c 128,-1,17
 466 336 466 336 396 336 c 2,18,-1
 253 336 l 1,19,-1
 253 59 l 2,20,21
 253 45 253 45 259 38.5 c 128,-1,22
 265 32 265 32 280 32 c 2,23,-1
 368 32 l 1,24,-1
 368 0 l 1,25,-1
 62 0 l 1,26,-1
 62 32 l 1,0,-1
409 368 m 2,27,28
 463 368 463 368 496.5 414.5 c 128,-1,29
 530 461 530 461 530 526 c 256,30,31
 530 591 530 591 497 635.5 c 128,-1,32
 464 680 464 680 409 680 c 2,33,-1
 280 680 l 2,34,35
 266 680 266 680 259.5 673.5 c 128,-1,36
 253 667 253 667 253 653 c 2,37,-1
 253 368 l 1,38,-1
 409 368 l 2,27,28
EndSplineSet
Validated: 1
EndChar

StartChar: Thorn
Encoding: 159 222 159
Width: 680
GlyphClass: 1
Flags: W
LayerCount: 2
Fore
SplineSet
62 32 m 1,0,-1
 134 32 l 2,1,2
 161 32 161 32 161 59 c 2,3,-1
 161 653 l 2,4,5
 161 667 161 667 154.5 673.5 c 128,-1,6
 148 680 148 680 134 680 c 2,7,-1
 62 680 l 1,8,-1
 62 712 l 1,9,-1
 368 712 l 1,10,-1
 368 680 l 1,11,-1
 280 680 l 2,12,13
 266 680 266 680 259.5 673.5 c 128,-1,14
 253 667 253 667 253 653 c 2,15,-1
 253 586 l 1,16,-1
 396 586 l 2,17,18
 466 586 466 586 520.5 562.5 c 128,-1,19
 575 539 575 539 605.5 496.5 c 128,-1,20
 636 454 636 454 636 400 c 0,21,22
 636 345 636 345 605.5 302 c 128,-1,23
 575 259 575 259 520.5 234.5 c 128,-1,24
 466 210 466 210 396 210 c 2,25,-1
 253 210 l 1,26,-1
 253 59 l 2,27,28
 253 32 253 32 280 32 c 2,29,-1
 368 32 l 1,30,-1
 368 0 l 1,31,-1
 62 0 l 1,32,-1
 62 32 l 1,0,-1
409 242 m 2,33,34
 463 242 463 242 496.5 288.5 c 128,-1,35
 530 335 530 335 530 400 c 256,36,37
 530 465 530 465 497 509.5 c 128,-1,38
 464 554 464 554 409 554 c 2,39,-1
 280 554 l 2,40,41
 266 554 266 554 259.5 547.5 c 128,-1,42
 253 541 253 541 253 527 c 2,43,-1
 253 242 l 1,44,-1
 409 242 l 2,33,34
EndSplineSet
Validated: 1
EndChar

StartChar: Q
Encoding: 51 81 160
Width: 700
GlyphClass: 1
Flags: W
LayerCount: 2
Fore
SplineSet
451 -123 m 128,-1,1
 427 -78 427 -78 422 -8 c 1,2,3
 386 -18 386 -18 360 -18 c 0,4,5
 276 -18 276 -18 209.5 36 c 128,-1,6
 143 90 143 90 106.5 177 c 128,-1,7
 70 264 70 264 70 360 c 0,8,9
 70 455 70 455 107 540.5 c 128,-1,10
 144 626 144 626 210 678 c 128,-1,11
 276 730 276 730 360 730 c 256,12,13
 444 730 444 730 510 678 c 128,-1,14
 576 626 576 626 613 540.5 c 128,-1,15
 650 455 650 455 650 360 c 0,16,17
 650 251 650 251 607.5 159 c 128,-1,18
 565 67 565 67 485 19 c 1,19,20
 496 -33 496 -33 515.5 -64.5 c 128,-1,21
 535 -96 535 -96 567 -96 c 0,22,23
 605 -96 605 -96 618 -55.5 c 128,-1,24
 631 -15 631 -15 631 50 c 1,25,-1
 650 50 l 1,26,27
 650 -51 650 -51 626.5 -109.5 c 128,-1,28
 603 -168 603 -168 535 -168 c 0,29,0
 475 -168 475 -168 451 -123 c 128,-1,1
265 47 m 1,30,31
 260 59 260 59 260 75 c 0,32,33
 260 117 260 117 288 144 c 128,-1,34
 316 171 316 171 357 171 c 0,35,36
 404 171 404 171 432 141 c 128,-1,37
 460 111 460 111 473 63 c 1,38,39
 511 102 511 102 527.5 176 c 128,-1,40
 544 250 544 250 544 360 c 0,41,42
 544 523 544 523 501.5 610.5 c 128,-1,43
 459 698 459 698 360 698 c 256,44,45
 261 698 261 698 218.5 610.5 c 128,-1,46
 176 523 176 523 176 360 c 0,47,48
 176 257 176 257 194 174 c 128,-1,49
 212 91 212 91 264 46 c 1,50,-1
 265 47 l 1,30,31
419 25 m 1,52,53
 416 76 416 76 403 107.5 c 128,-1,54
 390 139 390 139 354 139 c 0,55,56
 328 139 328 139 311 121.5 c 128,-1,57
 294 104 294 104 294 74 c 0,58,59
 294 14 294 14 360 14 c 0,60,51
 392 14 392 14 419 25 c 1,52,53
EndSplineSet
Validated: 1
EndChar

StartChar: R
Encoding: 52 82 161
Width: 716
GlyphClass: 1
Flags: W
LayerCount: 2
Fore
SplineSet
524.5 -1 m 128,-1,1
 502 10 502 10 489 35 c 0,2,3
 462 87 462 87 460 212 c 0,4,5
 459 279 459 279 436 323.5 c 128,-1,6
 413 368 413 368 362 368 c 2,7,-1
 253 368 l 1,8,-1
 253 59 l 2,9,10
 253 45 253 45 259 38.5 c 128,-1,11
 265 32 265 32 280 32 c 2,12,-1
 369 32 l 1,13,-1
 369 0 l 1,14,-1
 62 0 l 1,15,-1
 62 32 l 1,16,-1
 134 32 l 2,17,18
 161 32 161 32 161 59 c 2,19,-1
 161 653 l 2,20,21
 161 667 161 667 154.5 673.5 c 128,-1,22
 148 680 148 680 134 680 c 2,23,-1
 62 680 l 1,24,-1
 62 712 l 1,25,-1
 390 712 l 2,26,27
 487 712 487 712 549 675 c 128,-1,28
 611 638 611 638 611 552 c 0,29,30
 611 478 611 478 555.5 433 c 128,-1,31
 500 388 500 388 422 380 c 1,32,-1
 422 376 l 1,33,34
 479 365 479 365 515.5 323.5 c 128,-1,35
 552 282 552 282 564 182 c 0,36,37
 571 125 571 125 576.5 99 c 128,-1,38
 582 73 582 73 590.5 62.5 c 128,-1,39
 599 52 599 52 616 52 c 0,40,41
 659 52 659 52 659 160 c 1,42,-1
 684 160 l 1,43,44
 684 95 684 95 665 41.5 c 128,-1,45
 646 -12 646 -12 580 -12 c 0,46,0
 547 -12 547 -12 524.5 -1 c 128,-1,1
350 400 m 2,47,48
 434 400 434 400 469.5 440.5 c 128,-1,49
 505 481 505 481 505 552 c 0,50,51
 505 613 505 613 472.5 646.5 c 128,-1,52
 440 680 440 680 384 680 c 2,53,-1
 280 680 l 2,54,55
 266 680 266 680 259.5 673.5 c 128,-1,56
 253 667 253 667 253 653 c 2,57,-1
 253 400 l 1,58,-1
 350 400 l 2,47,48
EndSplineSet
Validated: 1
EndChar

StartChar: Racute
Encoding: 274 340 162
Width: 716
GlyphClass: 1
Flags: W
LayerCount: 2
Fore
SplineSet
307 773 m 1,0,-1
 399 906 l 2,1,2
 412 924 412 924 423 931 c 128,-1,3
 434 938 434 938 448 938 c 0,4,5
 461 938 461 938 468.5 929.5 c 128,-1,6
 476 921 476 921 476 907 c 0,7,8
 476 884 476 884 448 863 c 2,9,-1
 320 762 l 1,10,-1
 307 773 l 1,0,-1
524.5 -1 m 128,-1,12
 502 10 502 10 489 35 c 0,13,14
 462 87 462 87 460 212 c 0,15,16
 459 279 459 279 436 323.5 c 128,-1,17
 413 368 413 368 362 368 c 2,18,-1
 253 368 l 1,19,-1
 253 59 l 2,20,21
 253 45 253 45 259 38.5 c 128,-1,22
 265 32 265 32 280 32 c 2,23,-1
 369 32 l 1,24,-1
 369 0 l 1,25,-1
 62 0 l 1,26,-1
 62 32 l 1,27,-1
 134 32 l 2,28,29
 161 32 161 32 161 59 c 2,30,-1
 161 653 l 2,31,32
 161 667 161 667 154.5 673.5 c 128,-1,33
 148 680 148 680 134 680 c 2,34,-1
 62 680 l 1,35,-1
 62 712 l 1,36,-1
 390 712 l 2,37,38
 487 712 487 712 549 675 c 128,-1,39
 611 638 611 638 611 552 c 0,40,41
 611 478 611 478 555.5 433 c 128,-1,42
 500 388 500 388 422 380 c 1,43,-1
 422 376 l 1,44,45
 479 365 479 365 515.5 323.5 c 128,-1,46
 552 282 552 282 564 182 c 0,47,48
 571 125 571 125 576.5 99 c 128,-1,49
 582 73 582 73 590.5 62.5 c 128,-1,50
 599 52 599 52 616 52 c 0,51,52
 659 52 659 52 659 160 c 1,53,-1
 684 160 l 1,54,55
 684 95 684 95 665 41.5 c 128,-1,56
 646 -12 646 -12 580 -12 c 0,57,11
 547 -12 547 -12 524.5 -1 c 128,-1,12
350 400 m 2,58,59
 434 400 434 400 469.5 440.5 c 128,-1,60
 505 481 505 481 505 552 c 0,61,62
 505 613 505 613 472.5 646.5 c 128,-1,63
 440 680 440 680 384 680 c 2,64,-1
 280 680 l 2,65,66
 266 680 266 680 259.5 673.5 c 128,-1,67
 253 667 253 667 253 653 c 2,68,-1
 253 400 l 1,69,-1
 350 400 l 2,58,59
EndSplineSet
Validated: 1
EndChar

StartChar: Rcaron
Encoding: 278 344 163
Width: 716
GlyphClass: 1
Flags: W
LayerCount: 2
Fore
SplineSet
312 762 m 1,0,-1
 172 906 l 1,1,-1
 184 920 l 1,2,-1
 332 824 l 1,3,-1
 480 920 l 1,4,-1
 492 906 l 1,5,-1
 352 762 l 1,6,-1
 312 762 l 1,0,-1
524.5 -1 m 128,-1,8
 502 10 502 10 489 35 c 0,9,10
 462 87 462 87 460 212 c 0,11,12
 459 279 459 279 436 323.5 c 128,-1,13
 413 368 413 368 362 368 c 2,14,-1
 253 368 l 1,15,-1
 253 59 l 2,16,17
 253 45 253 45 259 38.5 c 128,-1,18
 265 32 265 32 280 32 c 2,19,-1
 369 32 l 1,20,-1
 369 0 l 1,21,-1
 62 0 l 1,22,-1
 62 32 l 1,23,-1
 134 32 l 2,24,25
 161 32 161 32 161 59 c 2,26,-1
 161 653 l 2,27,28
 161 667 161 667 154.5 673.5 c 128,-1,29
 148 680 148 680 134 680 c 2,30,-1
 62 680 l 1,31,-1
 62 712 l 1,32,-1
 390 712 l 2,33,34
 487 712 487 712 549 675 c 128,-1,35
 611 638 611 638 611 552 c 0,36,37
 611 478 611 478 555.5 433 c 128,-1,38
 500 388 500 388 422 380 c 1,39,-1
 422 376 l 1,40,41
 479 365 479 365 515.5 323.5 c 128,-1,42
 552 282 552 282 564 182 c 0,43,44
 571 125 571 125 576.5 99 c 128,-1,45
 582 73 582 73 590.5 62.5 c 128,-1,46
 599 52 599 52 616 52 c 0,47,48
 659 52 659 52 659 160 c 1,49,-1
 684 160 l 1,50,51
 684 95 684 95 665 41.5 c 128,-1,52
 646 -12 646 -12 580 -12 c 0,53,7
 547 -12 547 -12 524.5 -1 c 128,-1,8
350 400 m 2,54,55
 434 400 434 400 469.5 440.5 c 128,-1,56
 505 481 505 481 505 552 c 0,57,58
 505 613 505 613 472.5 646.5 c 128,-1,59
 440 680 440 680 384 680 c 2,60,-1
 280 680 l 2,61,62
 266 680 266 680 259.5 673.5 c 128,-1,63
 253 667 253 667 253 653 c 2,64,-1
 253 400 l 1,65,-1
 350 400 l 2,54,55
EndSplineSet
Validated: 1
EndChar

StartChar: Rcommaaccent
Encoding: 276 342 164
Width: 716
GlyphClass: 1
Flags: W
LayerCount: 2
Fore
SplineSet
524.5 -1 m 128,-1,1
 502 10 502 10 489 35 c 0,2,3
 462 87 462 87 460 212 c 0,4,5
 459 279 459 279 436 323.5 c 128,-1,6
 413 368 413 368 362 368 c 2,7,-1
 253 368 l 1,8,-1
 253 59 l 2,9,10
 253 45 253 45 259 38.5 c 128,-1,11
 265 32 265 32 280 32 c 2,12,-1
 369 32 l 1,13,-1
 369 0 l 1,14,-1
 62 0 l 1,15,-1
 62 32 l 1,16,-1
 134 32 l 2,17,18
 161 32 161 32 161 59 c 2,19,-1
 161 653 l 2,20,21
 161 667 161 667 154.5 673.5 c 128,-1,22
 148 680 148 680 134 680 c 2,23,-1
 62 680 l 1,24,-1
 62 712 l 1,25,-1
 390 712 l 2,26,27
 487 712 487 712 549 675 c 128,-1,28
 611 638 611 638 611 552 c 0,29,30
 611 478 611 478 555.5 433 c 128,-1,31
 500 388 500 388 422 380 c 1,32,-1
 422 376 l 1,33,34
 479 365 479 365 515.5 323.5 c 128,-1,35
 552 282 552 282 564 182 c 0,36,37
 571 125 571 125 576.5 99 c 128,-1,38
 582 73 582 73 590.5 62.5 c 128,-1,39
 599 52 599 52 616 52 c 0,40,41
 659 52 659 52 659 160 c 1,42,-1
 684 160 l 1,43,44
 684 95 684 95 665 41.5 c 128,-1,45
 646 -12 646 -12 580 -12 c 0,46,0
 547 -12 547 -12 524.5 -1 c 128,-1,1
350 400 m 2,47,48
 434 400 434 400 469.5 440.5 c 128,-1,49
 505 481 505 481 505 552 c 0,50,51
 505 613 505 613 472.5 646.5 c 128,-1,52
 440 680 440 680 384 680 c 2,53,-1
 280 680 l 2,54,55
 266 680 266 680 259.5 673.5 c 128,-1,56
 253 667 253 667 253 653 c 2,57,-1
 253 400 l 1,58,-1
 350 400 l 2,47,48
334 -227 m 1,59,60
 360 -215 360 -215 379.5 -193.5 c 128,-1,61
 399 -172 399 -172 399 -152 c 0,62,63
 399 -136 399 -136 391 -130 c 0,64,65
 385 -126 385 -126 367 -126 c 0,66,67
 351 -126 351 -126 341.5 -113 c 128,-1,68
 332 -100 332 -100 332 -85 c 0,69,70
 332 -64 332 -64 345.5 -52 c 128,-1,71
 359 -40 359 -40 379 -40 c 0,72,73
 405 -40 405 -40 420.5 -59 c 128,-1,74
 436 -78 436 -78 436 -106 c 0,75,76
 436 -149 436 -149 408.5 -186 c 128,-1,77
 381 -223 381 -223 344 -238 c 1,78,-1
 334 -227 l 1,59,60
EndSplineSet
Validated: 1
EndChar

StartChar: uni0210
Encoding: 359 528 165
Width: 716
GlyphClass: 1
Flags: W
LayerCount: 2
Fore
SplineSet
148 863 m 2,0,1
 120 884 120 884 120 907 c 0,2,3
 120 921 120 921 127.5 929.5 c 128,-1,4
 135 938 135 938 148 938 c 0,5,6
 162 938 162 938 173 931 c 128,-1,7
 184 924 184 924 197 906 c 2,8,-1
 289 773 l 1,9,-1
 276 762 l 1,10,-1
 148 863 l 2,0,1
284 863 m 2,11,12
 256 884 256 884 256 907 c 0,13,14
 256 921 256 921 263.5 929.5 c 128,-1,15
 271 938 271 938 284 938 c 0,16,17
 298 938 298 938 309 931 c 128,-1,18
 320 924 320 924 333 906 c 2,19,-1
 425 773 l 1,20,-1
 412 762 l 1,21,-1
 284 863 l 2,11,12
524.5 -1 m 128,-1,23
 502 10 502 10 489 35 c 0,24,25
 462 87 462 87 460 212 c 0,26,27
 459 279 459 279 436 323.5 c 128,-1,28
 413 368 413 368 362 368 c 2,29,-1
 253 368 l 1,30,-1
 253 59 l 2,31,32
 253 45 253 45 259 38.5 c 128,-1,33
 265 32 265 32 280 32 c 2,34,-1
 369 32 l 1,35,-1
 369 0 l 1,36,-1
 62 0 l 1,37,-1
 62 32 l 1,38,-1
 134 32 l 2,39,40
 161 32 161 32 161 59 c 2,41,-1
 161 653 l 2,42,43
 161 667 161 667 154.5 673.5 c 128,-1,44
 148 680 148 680 134 680 c 2,45,-1
 62 680 l 1,46,-1
 62 712 l 1,47,-1
 390 712 l 2,48,49
 487 712 487 712 549 675 c 128,-1,50
 611 638 611 638 611 552 c 0,51,52
 611 478 611 478 555.5 433 c 128,-1,53
 500 388 500 388 422 380 c 1,54,-1
 422 376 l 1,55,56
 479 365 479 365 515.5 323.5 c 128,-1,57
 552 282 552 282 564 182 c 0,58,59
 571 125 571 125 576.5 99 c 128,-1,60
 582 73 582 73 590.5 62.5 c 128,-1,61
 599 52 599 52 616 52 c 0,62,63
 659 52 659 52 659 160 c 1,64,-1
 684 160 l 1,65,66
 684 95 684 95 665 41.5 c 128,-1,67
 646 -12 646 -12 580 -12 c 0,68,22
 547 -12 547 -12 524.5 -1 c 128,-1,23
350 400 m 2,69,70
 434 400 434 400 469.5 440.5 c 128,-1,71
 505 481 505 481 505 552 c 0,72,73
 505 613 505 613 472.5 646.5 c 128,-1,74
 440 680 440 680 384 680 c 2,75,-1
 280 680 l 2,76,77
 266 680 266 680 259.5 673.5 c 128,-1,78
 253 667 253 667 253 653 c 2,79,-1
 253 400 l 1,80,-1
 350 400 l 2,69,70
EndSplineSet
Validated: 1
EndChar

StartChar: uni1E5A
Encoding: 671 7770 166
Width: 716
GlyphClass: 1
Flags: W
LayerCount: 2
Fore
SplineSet
524.5 -1 m 128,-1,1
 502 10 502 10 489 35 c 0,2,3
 462 87 462 87 460 212 c 0,4,5
 459 279 459 279 436 323.5 c 128,-1,6
 413 368 413 368 362 368 c 2,7,-1
 253 368 l 1,8,-1
 253 59 l 2,9,10
 253 45 253 45 259 38.5 c 128,-1,11
 265 32 265 32 280 32 c 2,12,-1
 369 32 l 1,13,-1
 369 0 l 1,14,-1
 62 0 l 1,15,-1
 62 32 l 1,16,-1
 134 32 l 2,17,18
 161 32 161 32 161 59 c 2,19,-1
 161 653 l 2,20,21
 161 667 161 667 154.5 673.5 c 128,-1,22
 148 680 148 680 134 680 c 2,23,-1
 62 680 l 1,24,-1
 62 712 l 1,25,-1
 390 712 l 2,26,27
 487 712 487 712 549 675 c 128,-1,28
 611 638 611 638 611 552 c 0,29,30
 611 478 611 478 555.5 433 c 128,-1,31
 500 388 500 388 422 380 c 1,32,-1
 422 376 l 1,33,34
 479 365 479 365 515.5 323.5 c 128,-1,35
 552 282 552 282 564 182 c 0,36,37
 571 125 571 125 576.5 99 c 128,-1,38
 582 73 582 73 590.5 62.5 c 128,-1,39
 599 52 599 52 616 52 c 0,40,41
 659 52 659 52 659 160 c 1,42,-1
 684 160 l 1,43,44
 684 95 684 95 665 41.5 c 128,-1,45
 646 -12 646 -12 580 -12 c 0,46,0
 547 -12 547 -12 524.5 -1 c 128,-1,1
350 400 m 2,47,48
 434 400 434 400 469.5 440.5 c 128,-1,49
 505 481 505 481 505 552 c 0,50,51
 505 613 505 613 472.5 646.5 c 128,-1,52
 440 680 440 680 384 680 c 2,53,-1
 280 680 l 2,54,55
 266 680 266 680 259.5 673.5 c 128,-1,56
 253 667 253 667 253 653 c 2,57,-1
 253 400 l 1,58,-1
 350 400 l 2,47,48
295 -179.5 m 128,-1,60
 280 -165 280 -165 280 -142 c 0,61,62
 280 -120 280 -120 295 -105 c 128,-1,63
 310 -90 310 -90 332 -90 c 0,64,65
 355 -90 355 -90 369.5 -105 c 128,-1,66
 384 -120 384 -120 384 -142 c 0,67,68
 384 -165 384 -165 369.5 -179.5 c 128,-1,69
 355 -194 355 -194 332 -194 c 0,70,59
 310 -194 310 -194 295 -179.5 c 128,-1,60
EndSplineSet
Validated: 1
EndChar

StartChar: uni0212
Encoding: 361 530 167
Width: 716
GlyphClass: 1
Flags: W
LayerCount: 2
Fore
SplineSet
185 770 m 1,0,1
 192 801 192 801 214 836.5 c 128,-1,2
 236 872 236 872 267 896 c 128,-1,3
 298 920 298 920 332 920 c 256,4,5
 366 920 366 920 397 896 c 128,-1,6
 428 872 428 872 450 836.5 c 128,-1,7
 472 801 472 801 479 770 c 1,8,-1
 459 762 l 1,9,10
 438 807 438 807 405 835.5 c 128,-1,11
 372 864 372 864 332 864 c 256,12,13
 292 864 292 864 259 835.5 c 128,-1,14
 226 807 226 807 205 762 c 1,15,-1
 185 770 l 1,0,1
524.5 -1 m 128,-1,17
 502 10 502 10 489 35 c 0,18,19
 462 87 462 87 460 212 c 0,20,21
 459 279 459 279 436 323.5 c 128,-1,22
 413 368 413 368 362 368 c 2,23,-1
 253 368 l 1,24,-1
 253 59 l 2,25,26
 253 45 253 45 259 38.5 c 128,-1,27
 265 32 265 32 280 32 c 2,28,-1
 369 32 l 1,29,-1
 369 0 l 1,30,-1
 62 0 l 1,31,-1
 62 32 l 1,32,-1
 134 32 l 2,33,34
 161 32 161 32 161 59 c 2,35,-1
 161 653 l 2,36,37
 161 667 161 667 154.5 673.5 c 128,-1,38
 148 680 148 680 134 680 c 2,39,-1
 62 680 l 1,40,-1
 62 712 l 1,41,-1
 390 712 l 2,42,43
 487 712 487 712 549 675 c 128,-1,44
 611 638 611 638 611 552 c 0,45,46
 611 478 611 478 555.5 433 c 128,-1,47
 500 388 500 388 422 380 c 1,48,-1
 422 376 l 1,49,50
 479 365 479 365 515.5 323.5 c 128,-1,51
 552 282 552 282 564 182 c 0,52,53
 571 125 571 125 576.5 99 c 128,-1,54
 582 73 582 73 590.5 62.5 c 128,-1,55
 599 52 599 52 616 52 c 0,56,57
 659 52 659 52 659 160 c 1,58,-1
 684 160 l 1,59,60
 684 95 684 95 665 41.5 c 128,-1,61
 646 -12 646 -12 580 -12 c 0,62,16
 547 -12 547 -12 524.5 -1 c 128,-1,17
350 400 m 2,63,64
 434 400 434 400 469.5 440.5 c 128,-1,65
 505 481 505 481 505 552 c 0,66,67
 505 613 505 613 472.5 646.5 c 128,-1,68
 440 680 440 680 384 680 c 2,69,-1
 280 680 l 2,70,71
 266 680 266 680 259.5 673.5 c 128,-1,72
 253 667 253 667 253 653 c 2,73,-1
 253 400 l 1,74,-1
 350 400 l 2,63,64
EndSplineSet
Validated: 1
EndChar

StartChar: uni1E5E
Encoding: 673 7774 168
Width: 716
GlyphClass: 1
Flags: W
LayerCount: 2
Fore
SplineSet
524.5 -1 m 128,-1,1
 502 10 502 10 489 35 c 0,2,3
 462 87 462 87 460 212 c 0,4,5
 459 279 459 279 436 323.5 c 128,-1,6
 413 368 413 368 362 368 c 2,7,-1
 253 368 l 1,8,-1
 253 59 l 2,9,10
 253 45 253 45 259 38.5 c 128,-1,11
 265 32 265 32 280 32 c 2,12,-1
 369 32 l 1,13,-1
 369 0 l 1,14,-1
 62 0 l 1,15,-1
 62 32 l 1,16,-1
 134 32 l 2,17,18
 161 32 161 32 161 59 c 2,19,-1
 161 653 l 2,20,21
 161 667 161 667 154.5 673.5 c 128,-1,22
 148 680 148 680 134 680 c 2,23,-1
 62 680 l 1,24,-1
 62 712 l 1,25,-1
 390 712 l 2,26,27
 487 712 487 712 549 675 c 128,-1,28
 611 638 611 638 611 552 c 0,29,30
 611 478 611 478 555.5 433 c 128,-1,31
 500 388 500 388 422 380 c 1,32,-1
 422 376 l 1,33,34
 479 365 479 365 515.5 323.5 c 128,-1,35
 552 282 552 282 564 182 c 0,36,37
 571 125 571 125 576.5 99 c 128,-1,38
 582 73 582 73 590.5 62.5 c 128,-1,39
 599 52 599 52 616 52 c 0,40,41
 659 52 659 52 659 160 c 1,42,-1
 684 160 l 1,43,44
 684 95 684 95 665 41.5 c 128,-1,45
 646 -12 646 -12 580 -12 c 0,46,0
 547 -12 547 -12 524.5 -1 c 128,-1,1
350 400 m 2,47,48
 434 400 434 400 469.5 440.5 c 128,-1,49
 505 481 505 481 505 552 c 0,50,51
 505 613 505 613 472.5 646.5 c 128,-1,52
 440 680 440 680 384 680 c 2,53,-1
 280 680 l 2,54,55
 266 680 266 680 259.5 673.5 c 128,-1,56
 253 667 253 667 253 653 c 2,57,-1
 253 400 l 1,58,-1
 350 400 l 2,47,48
202 -166 m 1,59,-1
 202 -126 l 1,60,-1
 462 -126 l 1,61,-1
 462 -166 l 1,62,-1
 202 -166 l 1,59,-1
EndSplineSet
Validated: 1
EndChar

StartChar: S
Encoding: 53 83 169
Width: 620
GlyphClass: 1
Flags: W
LayerCount: 2
Fore
SplineSet
268.5 0.5 m 128,-1,1
 228 19 228 19 198 41 c 0,2,3
 156 73 156 73 148 73 c 0,4,5
 128 73 128 73 122 30 c 2,6,-1
 118 -10 l 1,7,-1
 95 -10 l 1,8,-1
 88 306 l 1,9,-1
 112 306 l 1,10,11
 118 232 118 232 153.5 164.5 c 128,-1,12
 189 97 189 97 242 55.5 c 128,-1,13
 295 14 295 14 351 14 c 0,14,15
 433 14 433 14 470.5 54 c 128,-1,16
 508 94 508 94 508 150 c 0,17,18
 508 199 508 199 479.5 227 c 128,-1,19
 451 255 451 255 396 277 c 2,20,-1
 244 338 l 2,21,22
 165 370 165 370 127.5 420.5 c 128,-1,23
 90 471 90 471 90 542 c 0,24,25
 90 638 90 638 146 684 c 128,-1,26
 202 730 202 730 286 730 c 0,27,28
 352 730 352 730 432 670 c 0,29,30
 442 663 442 663 452 657.5 c 128,-1,31
 462 652 462 652 470 652 c 0,32,33
 487 652 487 652 490 676 c 2,34,-1
 494 712 l 1,35,-1
 518 712 l 1,36,-1
 528 452 l 1,37,-1
 504 452 l 1,38,39
 488 524 488 524 453.5 580 c 128,-1,40
 419 636 419 636 373 667 c 128,-1,41
 327 698 327 698 278 698 c 0,42,43
 222 698 222 698 186 661.5 c 128,-1,44
 150 625 150 625 150 560 c 0,45,46
 150 515 150 515 173 490 c 128,-1,47
 196 465 196 465 241 447 c 2,48,-1
 434 370 l 2,49,50
 501 343 501 343 534.5 293 c 128,-1,51
 568 243 568 243 568 188 c 0,52,53
 568 135 568 135 544.5 88 c 128,-1,54
 521 41 521 41 472.5 11.5 c 128,-1,55
 424 -18 424 -18 351 -18 c 0,56,0
 309 -18 309 -18 268.5 0.5 c 128,-1,1
EndSplineSet
Validated: 1
EndChar

StartChar: Sacute
Encoding: 280 346 170
Width: 620
GlyphClass: 1
Flags: W
LayerCount: 2
Fore
SplineSet
267 773 m 1,0,-1
 359 906 l 2,1,2
 372 924 372 924 383 931 c 128,-1,3
 394 938 394 938 408 938 c 0,4,5
 421 938 421 938 428.5 929.5 c 128,-1,6
 436 921 436 921 436 907 c 0,7,8
 436 884 436 884 408 863 c 2,9,-1
 280 762 l 1,10,-1
 267 773 l 1,0,-1
268.5 0.5 m 128,-1,12
 228 19 228 19 198 41 c 0,13,14
 156 73 156 73 148 73 c 0,15,16
 128 73 128 73 122 30 c 2,17,-1
 118 -10 l 1,18,-1
 95 -10 l 1,19,-1
 88 306 l 1,20,-1
 112 306 l 1,21,22
 118 232 118 232 153.5 164.5 c 128,-1,23
 189 97 189 97 242 55.5 c 128,-1,24
 295 14 295 14 351 14 c 0,25,26
 433 14 433 14 470.5 54 c 128,-1,27
 508 94 508 94 508 150 c 0,28,29
 508 199 508 199 479.5 227 c 128,-1,30
 451 255 451 255 396 277 c 2,31,-1
 244 338 l 2,32,33
 165 370 165 370 127.5 420.5 c 128,-1,34
 90 471 90 471 90 542 c 0,35,36
 90 638 90 638 146 684 c 128,-1,37
 202 730 202 730 286 730 c 0,38,39
 352 730 352 730 432 670 c 0,40,41
 442 663 442 663 452 657.5 c 128,-1,42
 462 652 462 652 470 652 c 0,43,44
 487 652 487 652 490 676 c 2,45,-1
 494 712 l 1,46,-1
 518 712 l 1,47,-1
 528 452 l 1,48,-1
 504 452 l 1,49,50
 488 524 488 524 453.5 580 c 128,-1,51
 419 636 419 636 373 667 c 128,-1,52
 327 698 327 698 278 698 c 0,53,54
 222 698 222 698 186 661.5 c 128,-1,55
 150 625 150 625 150 560 c 0,56,57
 150 515 150 515 173 490 c 128,-1,58
 196 465 196 465 241 447 c 2,59,-1
 434 370 l 2,60,61
 501 343 501 343 534.5 293 c 128,-1,62
 568 243 568 243 568 188 c 0,63,64
 568 135 568 135 544.5 88 c 128,-1,65
 521 41 521 41 472.5 11.5 c 128,-1,66
 424 -18 424 -18 351 -18 c 0,67,11
 309 -18 309 -18 268.5 0.5 c 128,-1,12
EndSplineSet
Validated: 1
EndChar

StartChar: uni1E64
Encoding: 679 7780 171
Width: 620
GlyphClass: 1
Flags: W
LayerCount: 2
Fore
SplineSet
262.5 880.5 m 128,-1,1
 250 893 250 893 250 910 c 256,2,3
 250 927 250 927 262.5 939.5 c 128,-1,4
 275 952 275 952 292 952 c 256,5,6
 309 952 309 952 321.5 939.5 c 128,-1,7
 334 927 334 927 334 910 c 256,8,9
 334 893 334 893 321.5 880.5 c 128,-1,10
 309 868 309 868 292 868 c 256,11,0
 275 868 275 868 262.5 880.5 c 128,-1,1
284 774 m 1,12,-1
 389 897 l 2,13,14
 414 926 414 926 436 926 c 0,15,16
 452 926 452 926 459 916.5 c 128,-1,17
 466 907 466 907 466 895 c 0,18,19
 466 870 466 870 434 850 c 2,20,-1
 296 762 l 1,21,-1
 284 774 l 1,12,-1
268.5 0.5 m 128,-1,23
 228 19 228 19 198 41 c 0,24,25
 156 73 156 73 148 73 c 0,26,27
 128 73 128 73 122 30 c 2,28,-1
 118 -10 l 1,29,-1
 95 -10 l 1,30,-1
 88 306 l 1,31,-1
 112 306 l 1,32,33
 118 232 118 232 153.5 164.5 c 128,-1,34
 189 97 189 97 242 55.5 c 128,-1,35
 295 14 295 14 351 14 c 0,36,37
 433 14 433 14 470.5 54 c 128,-1,38
 508 94 508 94 508 150 c 0,39,40
 508 199 508 199 479.5 227 c 128,-1,41
 451 255 451 255 396 277 c 2,42,-1
 244 338 l 2,43,44
 165 370 165 370 127.5 420.5 c 128,-1,45
 90 471 90 471 90 542 c 0,46,47
 90 638 90 638 146 684 c 128,-1,48
 202 730 202 730 286 730 c 0,49,50
 352 730 352 730 432 670 c 0,51,52
 442 663 442 663 452 657.5 c 128,-1,53
 462 652 462 652 470 652 c 0,54,55
 487 652 487 652 490 676 c 2,56,-1
 494 712 l 1,57,-1
 518 712 l 1,58,-1
 528 452 l 1,59,-1
 504 452 l 1,60,61
 488 524 488 524 453.5 580 c 128,-1,62
 419 636 419 636 373 667 c 128,-1,63
 327 698 327 698 278 698 c 0,64,65
 222 698 222 698 186 661.5 c 128,-1,66
 150 625 150 625 150 560 c 0,67,68
 150 515 150 515 173 490 c 128,-1,69
 196 465 196 465 241 447 c 2,70,-1
 434 370 l 2,71,72
 501 343 501 343 534.5 293 c 128,-1,73
 568 243 568 243 568 188 c 0,74,75
 568 135 568 135 544.5 88 c 128,-1,76
 521 41 521 41 472.5 11.5 c 128,-1,77
 424 -18 424 -18 351 -18 c 0,78,22
 309 -18 309 -18 268.5 0.5 c 128,-1,23
EndSplineSet
Validated: 1
EndChar

StartChar: Scaron
Encoding: 286 352 172
Width: 620
GlyphClass: 1
Flags: W
LayerCount: 2
Fore
SplineSet
272 762 m 1,0,-1
 132 906 l 1,1,-1
 144 920 l 1,2,-1
 292 824 l 1,3,-1
 440 920 l 1,4,-1
 452 906 l 1,5,-1
 312 762 l 1,6,-1
 272 762 l 1,0,-1
268.5 0.5 m 128,-1,8
 228 19 228 19 198 41 c 0,9,10
 156 73 156 73 148 73 c 0,11,12
 128 73 128 73 122 30 c 2,13,-1
 118 -10 l 1,14,-1
 95 -10 l 1,15,-1
 88 306 l 1,16,-1
 112 306 l 1,17,18
 118 232 118 232 153.5 164.5 c 128,-1,19
 189 97 189 97 242 55.5 c 128,-1,20
 295 14 295 14 351 14 c 0,21,22
 433 14 433 14 470.5 54 c 128,-1,23
 508 94 508 94 508 150 c 0,24,25
 508 199 508 199 479.5 227 c 128,-1,26
 451 255 451 255 396 277 c 2,27,-1
 244 338 l 2,28,29
 165 370 165 370 127.5 420.5 c 128,-1,30
 90 471 90 471 90 542 c 0,31,32
 90 638 90 638 146 684 c 128,-1,33
 202 730 202 730 286 730 c 0,34,35
 352 730 352 730 432 670 c 0,36,37
 442 663 442 663 452 657.5 c 128,-1,38
 462 652 462 652 470 652 c 0,39,40
 487 652 487 652 490 676 c 2,41,-1
 494 712 l 1,42,-1
 518 712 l 1,43,-1
 528 452 l 1,44,-1
 504 452 l 1,45,46
 488 524 488 524 453.5 580 c 128,-1,47
 419 636 419 636 373 667 c 128,-1,48
 327 698 327 698 278 698 c 0,49,50
 222 698 222 698 186 661.5 c 128,-1,51
 150 625 150 625 150 560 c 0,52,53
 150 515 150 515 173 490 c 128,-1,54
 196 465 196 465 241 447 c 2,55,-1
 434 370 l 2,56,57
 501 343 501 343 534.5 293 c 128,-1,58
 568 243 568 243 568 188 c 0,59,60
 568 135 568 135 544.5 88 c 128,-1,61
 521 41 521 41 472.5 11.5 c 128,-1,62
 424 -18 424 -18 351 -18 c 0,63,7
 309 -18 309 -18 268.5 0.5 c 128,-1,8
EndSplineSet
Validated: 1
EndChar

StartChar: uni1E66
Encoding: 681 7782 173
Width: 620
GlyphClass: 1
Flags: W
LayerCount: 2
Fore
SplineSet
262.5 880.5 m 128,-1,1
 250 893 250 893 250 910 c 256,2,3
 250 927 250 927 262.5 939.5 c 128,-1,4
 275 952 275 952 292 952 c 256,5,6
 309 952 309 952 321.5 939.5 c 128,-1,7
 334 927 334 927 334 910 c 256,8,9
 334 893 334 893 321.5 880.5 c 128,-1,10
 309 868 309 868 292 868 c 256,11,0
 275 868 275 868 262.5 880.5 c 128,-1,1
272 762 m 1,12,-1
 132 886 l 1,13,-1
 142 900 l 1,14,-1
 292 812 l 1,15,-1
 442 900 l 1,16,-1
 452 886 l 1,17,-1
 312 762 l 1,18,-1
 272 762 l 1,12,-1
268.5 0.5 m 128,-1,20
 228 19 228 19 198 41 c 0,21,22
 156 73 156 73 148 73 c 0,23,24
 128 73 128 73 122 30 c 2,25,-1
 118 -10 l 1,26,-1
 95 -10 l 1,27,-1
 88 306 l 1,28,-1
 112 306 l 1,29,30
 118 232 118 232 153.5 164.5 c 128,-1,31
 189 97 189 97 242 55.5 c 128,-1,32
 295 14 295 14 351 14 c 0,33,34
 433 14 433 14 470.5 54 c 128,-1,35
 508 94 508 94 508 150 c 0,36,37
 508 199 508 199 479.5 227 c 128,-1,38
 451 255 451 255 396 277 c 2,39,-1
 244 338 l 2,40,41
 165 370 165 370 127.5 420.5 c 128,-1,42
 90 471 90 471 90 542 c 0,43,44
 90 638 90 638 146 684 c 128,-1,45
 202 730 202 730 286 730 c 0,46,47
 352 730 352 730 432 670 c 0,48,49
 442 663 442 663 452 657.5 c 128,-1,50
 462 652 462 652 470 652 c 0,51,52
 487 652 487 652 490 676 c 2,53,-1
 494 712 l 1,54,-1
 518 712 l 1,55,-1
 528 452 l 1,56,-1
 504 452 l 1,57,58
 488 524 488 524 453.5 580 c 128,-1,59
 419 636 419 636 373 667 c 128,-1,60
 327 698 327 698 278 698 c 0,61,62
 222 698 222 698 186 661.5 c 128,-1,63
 150 625 150 625 150 560 c 0,64,65
 150 515 150 515 173 490 c 128,-1,66
 196 465 196 465 241 447 c 2,67,-1
 434 370 l 2,68,69
 501 343 501 343 534.5 293 c 128,-1,70
 568 243 568 243 568 188 c 0,71,72
 568 135 568 135 544.5 88 c 128,-1,73
 521 41 521 41 472.5 11.5 c 128,-1,74
 424 -18 424 -18 351 -18 c 0,75,19
 309 -18 309 -18 268.5 0.5 c 128,-1,20
EndSplineSet
Validated: 1
EndChar

StartChar: Scedilla
Encoding: 284 350 174
Width: 620
GlyphClass: 1
Flags: W
LayerCount: 2
Fore
SplineSet
274 -219.5 m 128,-1,1
 244 -201 244 -201 244 -168 c 0,2,3
 244 -156 244 -156 251.5 -147 c 128,-1,4
 259 -138 259 -138 271 -138 c 0,5,6
 297 -138 297 -138 303 -173 c 0,7,8
 306 -192 306 -192 320 -203 c 128,-1,9
 334 -214 334 -214 355 -214 c 0,10,11
 386 -214 386 -214 401 -200.5 c 128,-1,12
 416 -187 416 -187 416 -164 c 0,13,14
 416 -112 416 -112 348 -112 c 2,15,-1
 299 -112 l 1,16,-1
 316 -15 l 1,17,18
 259 -4 259 -4 198 41 c 0,19,20
 156 73 156 73 148 73 c 0,21,22
 128 73 128 73 122 30 c 2,23,-1
 118 -10 l 1,24,-1
 95 -10 l 1,25,-1
 88 306 l 1,26,-1
 112 306 l 1,27,28
 118 232 118 232 153.5 164.5 c 128,-1,29
 189 97 189 97 242 55.5 c 128,-1,30
 295 14 295 14 351 14 c 0,31,32
 433 14 433 14 470.5 54 c 128,-1,33
 508 94 508 94 508 150 c 0,34,35
 508 199 508 199 479.5 227 c 128,-1,36
 451 255 451 255 396 277 c 2,37,-1
 244 338 l 2,38,39
 165 370 165 370 127.5 420.5 c 128,-1,40
 90 471 90 471 90 542 c 0,41,42
 90 638 90 638 146 684 c 128,-1,43
 202 730 202 730 286 730 c 0,44,45
 352 730 352 730 432 670 c 0,46,47
 442 663 442 663 452 657.5 c 128,-1,48
 462 652 462 652 470 652 c 0,49,50
 487 652 487 652 490 676 c 2,51,-1
 494 712 l 1,52,-1
 518 712 l 1,53,-1
 528 452 l 1,54,-1
 504 452 l 1,55,56
 488 524 488 524 453.5 580 c 128,-1,57
 419 636 419 636 373 667 c 128,-1,58
 327 698 327 698 278 698 c 0,59,60
 222 698 222 698 186 661.5 c 128,-1,61
 150 625 150 625 150 560 c 0,62,63
 150 515 150 515 173 490 c 128,-1,64
 196 465 196 465 241 447 c 2,65,-1
 434 370 l 2,66,67
 501 343 501 343 534.5 293 c 128,-1,68
 568 243 568 243 568 188 c 0,69,70
 568 135 568 135 544.5 88 c 128,-1,71
 521 41 521 41 472.5 11.5 c 128,-1,72
 424 -18 424 -18 351 -18 c 2,73,-1
 342 -18 l 1,74,-1
 335 -56 l 1,75,-1
 366 -56 l 2,76,77
 405 -56 405 -56 432.5 -77 c 128,-1,78
 460 -98 460 -98 460 -137 c 0,79,80
 460 -179 460 -179 432 -208.5 c 128,-1,81
 404 -238 404 -238 342 -238 c 0,82,0
 304 -238 304 -238 274 -219.5 c 128,-1,1
EndSplineSet
Validated: 1
Substitution2: "'locl' +Vv0w+1cwV99W+mcJMG5bV19i in +MOkwxjDzZYdbVwAA lookup 6 +MLUw1jDGMPww1jDr" Scommaaccent
Substitution2: "'locl' +Vv0w+1cwV99W+mcJMG5bV19i in +MOkwxjDzZYdbVwAA lookup 5 +MLUw1jDGMPww1jDr" Scommaaccent
Substitution2: "'aalt' +MFkweTBmMG51cE9TW1cweDBuMKIwrzC7MLkA lookup 0 +MLUw1jDGMPww1jDr" Scommaaccent
EndChar

StartChar: Scircumflex
Encoding: 282 348 175
Width: 620
GlyphClass: 1
Flags: W
LayerCount: 2
Fore
SplineSet
134 778 m 1,0,1
 225 830 225 830 272 920 c 1,2,-1
 312 920 l 1,3,4
 359 830 359 830 450 778 c 1,5,-1
 440 762 l 1,6,7
 414 771 414 771 368.5 800.5 c 128,-1,8
 323 830 323 830 292 858 c 1,9,10
 261 830 261 830 215.5 800.5 c 128,-1,11
 170 771 170 771 144 762 c 1,12,-1
 134 778 l 1,0,1
268.5 0.5 m 128,-1,14
 228 19 228 19 198 41 c 0,15,16
 156 73 156 73 148 73 c 0,17,18
 128 73 128 73 122 30 c 2,19,-1
 118 -10 l 1,20,-1
 95 -10 l 1,21,-1
 88 306 l 1,22,-1
 112 306 l 1,23,24
 118 232 118 232 153.5 164.5 c 128,-1,25
 189 97 189 97 242 55.5 c 128,-1,26
 295 14 295 14 351 14 c 0,27,28
 433 14 433 14 470.5 54 c 128,-1,29
 508 94 508 94 508 150 c 0,30,31
 508 199 508 199 479.5 227 c 128,-1,32
 451 255 451 255 396 277 c 2,33,-1
 244 338 l 2,34,35
 165 370 165 370 127.5 420.5 c 128,-1,36
 90 471 90 471 90 542 c 0,37,38
 90 638 90 638 146 684 c 128,-1,39
 202 730 202 730 286 730 c 0,40,41
 352 730 352 730 432 670 c 0,42,43
 442 663 442 663 452 657.5 c 128,-1,44
 462 652 462 652 470 652 c 0,45,46
 487 652 487 652 490 676 c 2,47,-1
 494 712 l 1,48,-1
 518 712 l 1,49,-1
 528 452 l 1,50,-1
 504 452 l 1,51,52
 488 524 488 524 453.5 580 c 128,-1,53
 419 636 419 636 373 667 c 128,-1,54
 327 698 327 698 278 698 c 0,55,56
 222 698 222 698 186 661.5 c 128,-1,57
 150 625 150 625 150 560 c 0,58,59
 150 515 150 515 173 490 c 128,-1,60
 196 465 196 465 241 447 c 2,61,-1
 434 370 l 2,62,63
 501 343 501 343 534.5 293 c 128,-1,64
 568 243 568 243 568 188 c 0,65,66
 568 135 568 135 544.5 88 c 128,-1,67
 521 41 521 41 472.5 11.5 c 128,-1,68
 424 -18 424 -18 351 -18 c 0,69,13
 309 -18 309 -18 268.5 0.5 c 128,-1,14
EndSplineSet
Validated: 1
EndChar

StartChar: Scommaaccent
Encoding: 367 536 176
Width: 620
GlyphClass: 1
Flags: W
LayerCount: 2
Fore
SplineSet
268.5 0.5 m 128,-1,1
 228 19 228 19 198 41 c 0,2,3
 156 73 156 73 148 73 c 0,4,5
 128 73 128 73 122 30 c 2,6,-1
 118 -10 l 1,7,-1
 95 -10 l 1,8,-1
 88 306 l 1,9,-1
 112 306 l 1,10,11
 118 232 118 232 153.5 164.5 c 128,-1,12
 189 97 189 97 242 55.5 c 128,-1,13
 295 14 295 14 351 14 c 0,14,15
 433 14 433 14 470.5 54 c 128,-1,16
 508 94 508 94 508 150 c 0,17,18
 508 199 508 199 479.5 227 c 128,-1,19
 451 255 451 255 396 277 c 2,20,-1
 244 338 l 2,21,22
 165 370 165 370 127.5 420.5 c 128,-1,23
 90 471 90 471 90 542 c 0,24,25
 90 638 90 638 146 684 c 128,-1,26
 202 730 202 730 286 730 c 0,27,28
 352 730 352 730 432 670 c 0,29,30
 442 663 442 663 452 657.5 c 128,-1,31
 462 652 462 652 470 652 c 0,32,33
 487 652 487 652 490 676 c 2,34,-1
 494 712 l 1,35,-1
 518 712 l 1,36,-1
 528 452 l 1,37,-1
 504 452 l 1,38,39
 488 524 488 524 453.5 580 c 128,-1,40
 419 636 419 636 373 667 c 128,-1,41
 327 698 327 698 278 698 c 0,42,43
 222 698 222 698 186 661.5 c 128,-1,44
 150 625 150 625 150 560 c 0,45,46
 150 515 150 515 173 490 c 128,-1,47
 196 465 196 465 241 447 c 2,48,-1
 434 370 l 2,49,50
 501 343 501 343 534.5 293 c 128,-1,51
 568 243 568 243 568 188 c 0,52,53
 568 135 568 135 544.5 88 c 128,-1,54
 521 41 521 41 472.5 11.5 c 128,-1,55
 424 -18 424 -18 351 -18 c 0,56,0
 309 -18 309 -18 268.5 0.5 c 128,-1,1
284 -227 m 1,57,58
 310 -215 310 -215 329.5 -193.5 c 128,-1,59
 349 -172 349 -172 349 -152 c 0,60,61
 349 -136 349 -136 341 -130 c 0,62,63
 335 -126 335 -126 317 -126 c 0,64,65
 301 -126 301 -126 291.5 -113 c 128,-1,66
 282 -100 282 -100 282 -85 c 0,67,68
 282 -64 282 -64 295.5 -52 c 128,-1,69
 309 -40 309 -40 329 -40 c 0,70,71
 355 -40 355 -40 370.5 -59 c 128,-1,72
 386 -78 386 -78 386 -106 c 0,73,74
 386 -149 386 -149 358.5 -186 c 128,-1,75
 331 -223 331 -223 294 -238 c 1,76,-1
 284 -227 l 1,57,58
EndSplineSet
Validated: 1
EndChar

